M48
; DRILL file {KiCad (5.1.8)-1} date 03/12/21 16:02:02
; FORMAT={-:-/ absolute / inch / decimal}
; #@! TF.CreationDate,2021-03-12T16:02:02+08:00
; #@! TF.GenerationSoftware,Kicad,Pcbnew,(5.1.8)-1
; #@! TF.FileFunction,Plated,1,2,PTH
FMAT,2
INCH
T1C0.0157
T2C0.0394
%
G90
G05
T1
X3.7039Y-4.6596
X3.7254Y-4.7055
X3.7884Y-4.7218
X3.8105Y-4.6892
X3.835Y-4.53
X3.94Y-4.535
X3.96Y-4.375
X3.995Y-4.41
X3.995Y-4.445
X4.03Y-4.41
X4.03Y-4.445
X4.065Y-4.41
X4.065Y-4.445
X4.335Y-4.655
T2
X3.07Y-5.03
X3.07Y-5.13
X3.17Y-5.03
X3.17Y-5.13
X3.27Y-5.03
X3.27Y-5.13
X3.37Y-5.03
X3.37Y-5.13
X3.47Y-5.03
X3.47Y-5.13
X3.57Y-5.03
X3.57Y-5.13
X3.97Y-5.03
X3.97Y-5.13
X4.07Y-5.03
X4.07Y-5.13
X4.17Y-5.03
X4.17Y-5.13
X4.27Y-5.03
X4.27Y-5.13
X4.37Y-5.03
X4.37Y-5.13
X4.47Y-5.03
X4.47Y-5.13
T0
M30
