M48
; DRILL file {KiCad (5.1.8)-1} date 12/28/20 01:33:17
; FORMAT={-:-/ absolute / inch / decimal}
; #@! TF.CreationDate,2020-12-28T01:33:17+08:00
; #@! TF.GenerationSoftware,Kicad,Pcbnew,(5.1.8)-1
; #@! TF.FileFunction,Plated,1,2,PTH
FMAT,2
INCH
T1C0.0118
T2C0.0157
T3C0.0394
%
G90
G05
T1
X3.84Y-4.675
T2
X3.71Y-4.66
X3.76Y-4.545
X3.825Y-4.48
X3.825Y-4.515
X3.86Y-4.48
X3.86Y-4.515
X3.895Y-4.48
X3.895Y-4.515
X4.05Y-4.6109
X4.335Y-4.655
T3
X3.97Y-5.03
X3.97Y-5.13
X4.07Y-5.03
X4.07Y-5.13
X4.17Y-5.03
X4.17Y-5.13
X4.27Y-5.03
X4.27Y-5.13
X4.37Y-5.03
X4.37Y-5.13
X4.47Y-5.03
X4.47Y-5.13
X3.07Y-5.03
X3.07Y-5.13
X3.17Y-5.03
X3.17Y-5.13
X3.27Y-5.03
X3.27Y-5.13
X3.37Y-5.03
X3.37Y-5.13
X3.47Y-5.03
X3.47Y-5.13
X3.57Y-5.03
X3.57Y-5.13
T0
M30
