%TF.GenerationSoftware,KiCad,Pcbnew,(5.1.8)-1*%
%TF.CreationDate,2020-12-28T01:33:14+08:00*%
%TF.ProjectId,PModCamera,504d6f64-4361-46d6-9572-612e6b696361,rev?*%
%TF.SameCoordinates,Original*%
%TF.FileFunction,Soldermask,Top*%
%TF.FilePolarity,Negative*%
%FSLAX46Y46*%
G04 Gerber Fmt 4.6, Leading zero omitted, Abs format (unit mm)*
G04 Created by KiCad (PCBNEW (5.1.8)-1) date 2020-12-28 01:33:14*
%MOMM*%
%LPD*%
G01*
G04 APERTURE LIST*
%ADD10R,2.300000X3.100000*%
%ADD11R,0.300000X1.100000*%
%ADD12C,0.100000*%
%ADD13R,0.900000X1.300000*%
%ADD14O,1.700000X1.700000*%
%ADD15R,1.700000X1.700000*%
%ADD16R,1.200000X1.400000*%
G04 APERTURE END LIST*
D10*
%TO.C,J1*%
X87830000Y-114966000D03*
X102670000Y-114966000D03*
D11*
X89500000Y-116666000D03*
X90000000Y-116666000D03*
X90500000Y-116666000D03*
X91000000Y-116666000D03*
X91500000Y-116666000D03*
X92000000Y-116666000D03*
X92500000Y-116666000D03*
X93000000Y-116666000D03*
X93500000Y-116666000D03*
X94000000Y-116666000D03*
X94500000Y-116666000D03*
X95000000Y-116666000D03*
X95500000Y-116666000D03*
X96000000Y-116666000D03*
X96500000Y-116666000D03*
X97000000Y-116666000D03*
X97500000Y-116666000D03*
X98000000Y-116666000D03*
X98500000Y-116666000D03*
X99000000Y-116666000D03*
X99500000Y-116666000D03*
X100000000Y-116666000D03*
X100500000Y-116666000D03*
X101000000Y-116666000D03*
%TD*%
D12*
%TO.C,U2*%
G36*
X112753500Y-120978500D02*
G01*
X112753500Y-124103500D01*
X112337000Y-124103500D01*
X112337000Y-125578500D01*
X111437000Y-125578500D01*
X111437000Y-124103500D01*
X111020500Y-124103500D01*
X111020500Y-120978500D01*
X112753500Y-120978500D01*
G37*
D13*
X113387000Y-124928500D03*
X110387000Y-124928500D03*
%TD*%
D12*
%TO.C,U1*%
G36*
X112880500Y-109714000D02*
G01*
X112880500Y-112839000D01*
X112464000Y-112839000D01*
X112464000Y-114314000D01*
X111564000Y-114314000D01*
X111564000Y-112839000D01*
X111147500Y-112839000D01*
X111147500Y-109714000D01*
X112880500Y-109714000D01*
G37*
D13*
X113514000Y-113664000D03*
X110514000Y-113664000D03*
%TD*%
D14*
%TO.C,J2*%
X113538000Y-130302000D03*
X113538000Y-127762000D03*
X110998000Y-130302000D03*
X110998000Y-127762000D03*
X108458000Y-130302000D03*
X108458000Y-127762000D03*
X105918000Y-130302000D03*
X105918000Y-127762000D03*
X103378000Y-130302000D03*
X103378000Y-127762000D03*
X100838000Y-130302000D03*
D15*
X100838000Y-127762000D03*
%TD*%
D14*
%TO.C,J3*%
X90678000Y-130302000D03*
X90678000Y-127762000D03*
X88138000Y-130302000D03*
X88138000Y-127762000D03*
X85598000Y-130302000D03*
X85598000Y-127762000D03*
X83058000Y-130302000D03*
X83058000Y-127762000D03*
X80518000Y-130302000D03*
X80518000Y-127762000D03*
X77978000Y-130302000D03*
D15*
X77978000Y-127762000D03*
%TD*%
D16*
%TO.C,X1*%
X108265000Y-116783000D03*
X108265000Y-119183000D03*
X106365000Y-119183000D03*
X106365000Y-116783000D03*
%TD*%
%TO.C,R10*%
G36*
G01*
X104311000Y-118766000D02*
X104311000Y-118216000D01*
G75*
G02*
X104511000Y-118016000I200000J0D01*
G01*
X104911000Y-118016000D01*
G75*
G02*
X105111000Y-118216000I0J-200000D01*
G01*
X105111000Y-118766000D01*
G75*
G02*
X104911000Y-118966000I-200000J0D01*
G01*
X104511000Y-118966000D01*
G75*
G02*
X104311000Y-118766000I0J200000D01*
G01*
G37*
G36*
G01*
X102661000Y-118766000D02*
X102661000Y-118216000D01*
G75*
G02*
X102861000Y-118016000I200000J0D01*
G01*
X103261000Y-118016000D01*
G75*
G02*
X103461000Y-118216000I0J-200000D01*
G01*
X103461000Y-118766000D01*
G75*
G02*
X103261000Y-118966000I-200000J0D01*
G01*
X102861000Y-118966000D01*
G75*
G02*
X102661000Y-118766000I0J200000D01*
G01*
G37*
%TD*%
%TO.C,R9*%
G36*
G01*
X96025000Y-130075000D02*
X95475000Y-130075000D01*
G75*
G02*
X95275000Y-129875000I0J200000D01*
G01*
X95275000Y-129475000D01*
G75*
G02*
X95475000Y-129275000I200000J0D01*
G01*
X96025000Y-129275000D01*
G75*
G02*
X96225000Y-129475000I0J-200000D01*
G01*
X96225000Y-129875000D01*
G75*
G02*
X96025000Y-130075000I-200000J0D01*
G01*
G37*
G36*
G01*
X96025000Y-131725000D02*
X95475000Y-131725000D01*
G75*
G02*
X95275000Y-131525000I0J200000D01*
G01*
X95275000Y-131125000D01*
G75*
G02*
X95475000Y-130925000I200000J0D01*
G01*
X96025000Y-130925000D01*
G75*
G02*
X96225000Y-131125000I0J-200000D01*
G01*
X96225000Y-131525000D01*
G75*
G02*
X96025000Y-131725000I-200000J0D01*
G01*
G37*
%TD*%
%TO.C,R4*%
G36*
G01*
X104819000Y-110384000D02*
X104819000Y-109834000D01*
G75*
G02*
X105019000Y-109634000I200000J0D01*
G01*
X105419000Y-109634000D01*
G75*
G02*
X105619000Y-109834000I0J-200000D01*
G01*
X105619000Y-110384000D01*
G75*
G02*
X105419000Y-110584000I-200000J0D01*
G01*
X105019000Y-110584000D01*
G75*
G02*
X104819000Y-110384000I0J200000D01*
G01*
G37*
G36*
G01*
X103169000Y-110384000D02*
X103169000Y-109834000D01*
G75*
G02*
X103369000Y-109634000I200000J0D01*
G01*
X103769000Y-109634000D01*
G75*
G02*
X103969000Y-109834000I0J-200000D01*
G01*
X103969000Y-110384000D01*
G75*
G02*
X103769000Y-110584000I-200000J0D01*
G01*
X103369000Y-110584000D01*
G75*
G02*
X103169000Y-110384000I0J200000D01*
G01*
G37*
%TD*%
%TO.C,R3*%
G36*
G01*
X103969000Y-108310000D02*
X103969000Y-108860000D01*
G75*
G02*
X103769000Y-109060000I-200000J0D01*
G01*
X103369000Y-109060000D01*
G75*
G02*
X103169000Y-108860000I0J200000D01*
G01*
X103169000Y-108310000D01*
G75*
G02*
X103369000Y-108110000I200000J0D01*
G01*
X103769000Y-108110000D01*
G75*
G02*
X103969000Y-108310000I0J-200000D01*
G01*
G37*
G36*
G01*
X105619000Y-108310000D02*
X105619000Y-108860000D01*
G75*
G02*
X105419000Y-109060000I-200000J0D01*
G01*
X105019000Y-109060000D01*
G75*
G02*
X104819000Y-108860000I0J200000D01*
G01*
X104819000Y-108310000D01*
G75*
G02*
X105019000Y-108110000I200000J0D01*
G01*
X105419000Y-108110000D01*
G75*
G02*
X105619000Y-108310000I0J-200000D01*
G01*
G37*
%TD*%
%TO.C,R2*%
G36*
G01*
X103969000Y-106786000D02*
X103969000Y-107336000D01*
G75*
G02*
X103769000Y-107536000I-200000J0D01*
G01*
X103369000Y-107536000D01*
G75*
G02*
X103169000Y-107336000I0J200000D01*
G01*
X103169000Y-106786000D01*
G75*
G02*
X103369000Y-106586000I200000J0D01*
G01*
X103769000Y-106586000D01*
G75*
G02*
X103969000Y-106786000I0J-200000D01*
G01*
G37*
G36*
G01*
X105619000Y-106786000D02*
X105619000Y-107336000D01*
G75*
G02*
X105419000Y-107536000I-200000J0D01*
G01*
X105019000Y-107536000D01*
G75*
G02*
X104819000Y-107336000I0J200000D01*
G01*
X104819000Y-106786000D01*
G75*
G02*
X105019000Y-106586000I200000J0D01*
G01*
X105419000Y-106586000D01*
G75*
G02*
X105619000Y-106786000I0J-200000D01*
G01*
G37*
%TD*%
%TO.C,R1*%
G36*
G01*
X103969000Y-104754000D02*
X103969000Y-105304000D01*
G75*
G02*
X103769000Y-105504000I-200000J0D01*
G01*
X103369000Y-105504000D01*
G75*
G02*
X103169000Y-105304000I0J200000D01*
G01*
X103169000Y-104754000D01*
G75*
G02*
X103369000Y-104554000I200000J0D01*
G01*
X103769000Y-104554000D01*
G75*
G02*
X103969000Y-104754000I0J-200000D01*
G01*
G37*
G36*
G01*
X105619000Y-104754000D02*
X105619000Y-105304000D01*
G75*
G02*
X105419000Y-105504000I-200000J0D01*
G01*
X105019000Y-105504000D01*
G75*
G02*
X104819000Y-105304000I0J200000D01*
G01*
X104819000Y-104754000D01*
G75*
G02*
X105019000Y-104554000I200000J0D01*
G01*
X105419000Y-104554000D01*
G75*
G02*
X105619000Y-104754000I0J-200000D01*
G01*
G37*
%TD*%
%TO.C,D1*%
G36*
G01*
X95501750Y-127858000D02*
X96014250Y-127858000D01*
G75*
G02*
X96233000Y-128076750I0J-218750D01*
G01*
X96233000Y-128514250D01*
G75*
G02*
X96014250Y-128733000I-218750J0D01*
G01*
X95501750Y-128733000D01*
G75*
G02*
X95283000Y-128514250I0J218750D01*
G01*
X95283000Y-128076750D01*
G75*
G02*
X95501750Y-127858000I218750J0D01*
G01*
G37*
G36*
G01*
X95501750Y-126283000D02*
X96014250Y-126283000D01*
G75*
G02*
X96233000Y-126501750I0J-218750D01*
G01*
X96233000Y-126939250D01*
G75*
G02*
X96014250Y-127158000I-218750J0D01*
G01*
X95501750Y-127158000D01*
G75*
G02*
X95283000Y-126939250I0J218750D01*
G01*
X95283000Y-126501750D01*
G75*
G02*
X95501750Y-126283000I218750J0D01*
G01*
G37*
%TD*%
%TO.C,C4*%
G36*
G01*
X112593000Y-119757000D02*
X112593000Y-119257000D01*
G75*
G02*
X112818000Y-119032000I225000J0D01*
G01*
X113268000Y-119032000D01*
G75*
G02*
X113493000Y-119257000I0J-225000D01*
G01*
X113493000Y-119757000D01*
G75*
G02*
X113268000Y-119982000I-225000J0D01*
G01*
X112818000Y-119982000D01*
G75*
G02*
X112593000Y-119757000I0J225000D01*
G01*
G37*
G36*
G01*
X111043000Y-119757000D02*
X111043000Y-119257000D01*
G75*
G02*
X111268000Y-119032000I225000J0D01*
G01*
X111718000Y-119032000D01*
G75*
G02*
X111943000Y-119257000I0J-225000D01*
G01*
X111943000Y-119757000D01*
G75*
G02*
X111718000Y-119982000I-225000J0D01*
G01*
X111268000Y-119982000D01*
G75*
G02*
X111043000Y-119757000I0J225000D01*
G01*
G37*
%TD*%
%TO.C,C3*%
G36*
G01*
X112593000Y-118233000D02*
X112593000Y-117733000D01*
G75*
G02*
X112818000Y-117508000I225000J0D01*
G01*
X113268000Y-117508000D01*
G75*
G02*
X113493000Y-117733000I0J-225000D01*
G01*
X113493000Y-118233000D01*
G75*
G02*
X113268000Y-118458000I-225000J0D01*
G01*
X112818000Y-118458000D01*
G75*
G02*
X112593000Y-118233000I0J225000D01*
G01*
G37*
G36*
G01*
X111043000Y-118233000D02*
X111043000Y-117733000D01*
G75*
G02*
X111268000Y-117508000I225000J0D01*
G01*
X111718000Y-117508000D01*
G75*
G02*
X111943000Y-117733000I0J-225000D01*
G01*
X111943000Y-118233000D01*
G75*
G02*
X111718000Y-118458000I-225000J0D01*
G01*
X111268000Y-118458000D01*
G75*
G02*
X111043000Y-118233000I0J225000D01*
G01*
G37*
%TD*%
%TO.C,C2*%
G36*
G01*
X113101000Y-108835000D02*
X113101000Y-108335000D01*
G75*
G02*
X113326000Y-108110000I225000J0D01*
G01*
X113776000Y-108110000D01*
G75*
G02*
X114001000Y-108335000I0J-225000D01*
G01*
X114001000Y-108835000D01*
G75*
G02*
X113776000Y-109060000I-225000J0D01*
G01*
X113326000Y-109060000D01*
G75*
G02*
X113101000Y-108835000I0J225000D01*
G01*
G37*
G36*
G01*
X111551000Y-108835000D02*
X111551000Y-108335000D01*
G75*
G02*
X111776000Y-108110000I225000J0D01*
G01*
X112226000Y-108110000D01*
G75*
G02*
X112451000Y-108335000I0J-225000D01*
G01*
X112451000Y-108835000D01*
G75*
G02*
X112226000Y-109060000I-225000J0D01*
G01*
X111776000Y-109060000D01*
G75*
G02*
X111551000Y-108835000I0J225000D01*
G01*
G37*
%TD*%
%TO.C,C1*%
G36*
G01*
X113101000Y-107311000D02*
X113101000Y-106811000D01*
G75*
G02*
X113326000Y-106586000I225000J0D01*
G01*
X113776000Y-106586000D01*
G75*
G02*
X114001000Y-106811000I0J-225000D01*
G01*
X114001000Y-107311000D01*
G75*
G02*
X113776000Y-107536000I-225000J0D01*
G01*
X113326000Y-107536000D01*
G75*
G02*
X113101000Y-107311000I0J225000D01*
G01*
G37*
G36*
G01*
X111551000Y-107311000D02*
X111551000Y-106811000D01*
G75*
G02*
X111776000Y-106586000I225000J0D01*
G01*
X112226000Y-106586000D01*
G75*
G02*
X112451000Y-106811000I0J-225000D01*
G01*
X112451000Y-107311000D01*
G75*
G02*
X112226000Y-107536000I-225000J0D01*
G01*
X111776000Y-107536000D01*
G75*
G02*
X111551000Y-107311000I0J225000D01*
G01*
G37*
%TD*%
M02*
