%TF.GenerationSoftware,KiCad,Pcbnew,(5.1.8)-1*%
%TF.CreationDate,2020-12-28T01:33:14+08:00*%
%TF.ProjectId,PModCamera,504d6f64-4361-46d6-9572-612e6b696361,rev?*%
%TF.SameCoordinates,Original*%
%TF.FileFunction,Copper,L2,Bot*%
%TF.FilePolarity,Positive*%
%FSLAX46Y46*%
G04 Gerber Fmt 4.6, Leading zero omitted, Abs format (unit mm)*
G04 Created by KiCad (PCBNEW (5.1.8)-1) date 2020-12-28 01:33:14*
%MOMM*%
%LPD*%
G01*
G04 APERTURE LIST*
%TA.AperFunction,ComponentPad*%
%ADD10O,1.700000X1.700000*%
%TD*%
%TA.AperFunction,ComponentPad*%
%ADD11R,1.700000X1.700000*%
%TD*%
%TA.AperFunction,ViaPad*%
%ADD12C,0.800000*%
%TD*%
%TA.AperFunction,ViaPad*%
%ADD13C,0.600000*%
%TD*%
%TA.AperFunction,Conductor*%
%ADD14C,0.250000*%
%TD*%
%TA.AperFunction,Conductor*%
%ADD15C,1.000000*%
%TD*%
%TA.AperFunction,Conductor*%
%ADD16C,0.254000*%
%TD*%
%TA.AperFunction,Conductor*%
%ADD17C,0.100000*%
%TD*%
G04 APERTURE END LIST*
D10*
%TO.P,J2,12*%
%TO.N,+3V3*%
X113538000Y-130302000D03*
%TO.P,J2,11*%
X113538000Y-127762000D03*
%TO.P,J2,10*%
%TO.N,GND*%
X110998000Y-130302000D03*
%TO.P,J2,9*%
X110998000Y-127762000D03*
%TO.P,J2,8*%
%TO.N,/OV1_D1*%
X108458000Y-130302000D03*
%TO.P,J2,7*%
%TO.N,/OV1_D2*%
X108458000Y-127762000D03*
%TO.P,J2,6*%
%TO.N,/OV1_D0*%
X105918000Y-130302000D03*
%TO.P,J2,5*%
%TO.N,/OV1_D3*%
X105918000Y-127762000D03*
%TO.P,J2,4*%
%TO.N,/OV1_D5*%
X103378000Y-130302000D03*
%TO.P,J2,3*%
%TO.N,/OV1_D4*%
X103378000Y-127762000D03*
%TO.P,J2,2*%
%TO.N,/OV1_D7*%
X100838000Y-130302000D03*
D11*
%TO.P,J2,1*%
%TO.N,/OV1_D6*%
X100838000Y-127762000D03*
%TD*%
D10*
%TO.P,J3,12*%
%TO.N,+3V3*%
X90678000Y-130302000D03*
%TO.P,J3,11*%
X90678000Y-127762000D03*
%TO.P,J3,10*%
%TO.N,GND*%
X88138000Y-130302000D03*
%TO.P,J3,9*%
X88138000Y-127762000D03*
%TO.P,J3,8*%
%TO.N,/OV1_PCLK*%
X85598000Y-130302000D03*
%TO.P,J3,7*%
%TO.N,/OV1_XCLK*%
X85598000Y-127762000D03*
%TO.P,J3,6*%
%TO.N,/OV1_HREF*%
X83058000Y-130302000D03*
%TO.P,J3,5*%
%TO.N,/OV1_PWDN*%
X83058000Y-127762000D03*
%TO.P,J3,4*%
%TO.N,/OV1_VSYNC*%
X80518000Y-130302000D03*
%TO.P,J3,3*%
%TO.N,/OV1_RESET*%
X80518000Y-127762000D03*
%TO.P,J3,2*%
%TO.N,/OV1_SCL*%
X77978000Y-130302000D03*
D11*
%TO.P,J3,1*%
%TO.N,/OV1_SDA*%
X77978000Y-127762000D03*
%TD*%
D12*
%TO.N,GND*%
X97155000Y-114681000D03*
X98044000Y-114681000D03*
X98933000Y-114681000D03*
X98933000Y-113792000D03*
X98044000Y-113792000D03*
X97155000Y-113792000D03*
%TO.N,+1V5*%
X94234000Y-118364000D03*
X110109000Y-118237000D03*
D13*
%TO.N,/OV1_PCLK*%
X97536000Y-118745000D03*
D12*
%TO.N,/OV1_XCLK*%
X95504000Y-115443000D03*
X102870000Y-117116002D03*
%TD*%
D14*
%TO.N,+1V5*%
X94107000Y-118237000D02*
X93980000Y-118364000D01*
X109855000Y-117983000D02*
X110109000Y-118237000D01*
X94615000Y-117983000D02*
X109855000Y-117983000D01*
X94234000Y-118364000D02*
X94615000Y-117983000D01*
%TO.N,/OV1_PCLK*%
X95344988Y-118816010D02*
X97536000Y-118816010D01*
X91824707Y-122336291D02*
X95344988Y-118816010D01*
X89337854Y-124823146D02*
X91824707Y-122336291D01*
X89306434Y-124848204D02*
X89337854Y-124823146D01*
X89270225Y-124865641D02*
X89306434Y-124848204D01*
X89190856Y-124874584D02*
X89231044Y-124874584D01*
X89151675Y-124865641D02*
X89190856Y-124874584D01*
X89115466Y-124848204D02*
X89151675Y-124865641D01*
X89052623Y-124798090D02*
X89115466Y-124848204D01*
X89016414Y-124780653D02*
X89052623Y-124798090D01*
X88977233Y-124771710D02*
X89016414Y-124780653D01*
X88937045Y-124771710D02*
X88977233Y-124771710D01*
X88897864Y-124780653D02*
X88937045Y-124771710D01*
X88861655Y-124798090D02*
X88897864Y-124780653D01*
X88830236Y-124823146D02*
X88861655Y-124798090D01*
X88659779Y-124993602D02*
X88830236Y-124823146D01*
X89231044Y-124874584D02*
X89270225Y-124865641D01*
X88634722Y-125025023D02*
X88659779Y-124993602D01*
X88617286Y-125061230D02*
X88634722Y-125025023D01*
X88608343Y-125100411D02*
X88617286Y-125061230D01*
X88608342Y-125140601D02*
X88608343Y-125100411D01*
X88617285Y-125179782D02*
X88608342Y-125140601D01*
X88581617Y-125991436D02*
X88621805Y-125991436D01*
X88252419Y-125914941D02*
X88288628Y-125897504D01*
X88542436Y-125982493D02*
X88581617Y-125991436D01*
X88443387Y-125914941D02*
X88506227Y-125965056D01*
X88367997Y-125888561D02*
X88407178Y-125897504D01*
X88621805Y-125991436D02*
X88660986Y-125982493D01*
X88288628Y-125897504D02*
X88327809Y-125888561D01*
X88941564Y-125583364D02*
X88924127Y-125547155D01*
X88506227Y-125965056D02*
X88542436Y-125982493D01*
X85598000Y-130302000D02*
X86868000Y-129032000D01*
X88220999Y-125939999D02*
X88252419Y-125914941D01*
X88327809Y-125888561D02*
X88367997Y-125888561D01*
X88950507Y-125622545D02*
X88941564Y-125583364D01*
X88407178Y-125897504D02*
X88443387Y-125914941D01*
X86868000Y-127292998D02*
X88220999Y-125939999D01*
X88634723Y-125215989D02*
X88617285Y-125179782D01*
X88660986Y-125982493D02*
X88697195Y-125965056D01*
X88697195Y-125965056D02*
X88728615Y-125939999D01*
X88728615Y-125939999D02*
X88899070Y-125769543D01*
X88899070Y-125769543D02*
X88924127Y-125738123D01*
X86868000Y-129032000D02*
X86868000Y-127292998D01*
X88924127Y-125738123D02*
X88941564Y-125701914D01*
X88941564Y-125701914D02*
X88950507Y-125662733D01*
X88950507Y-125662733D02*
X88950507Y-125622545D01*
X88924127Y-125547155D02*
X88899070Y-125515734D01*
X88899070Y-125515734D02*
X88772165Y-125388829D01*
X88772165Y-125388829D02*
X88786684Y-125374314D01*
X88786684Y-125374314D02*
X88659780Y-125247410D01*
X88659780Y-125247410D02*
X88634723Y-125215989D01*
%TO.N,/OV1_XCLK*%
X92075000Y-118872000D02*
X95504000Y-115443000D01*
X92075000Y-120082918D02*
X92075000Y-118872000D01*
X90906844Y-121251075D02*
X92075000Y-120082918D01*
X90229008Y-121919060D02*
X90277664Y-121880258D01*
X90172938Y-121946063D02*
X90229008Y-121919060D01*
X90112264Y-121959910D02*
X90172938Y-121946063D01*
X90050032Y-121959911D02*
X90112264Y-121959910D01*
X89989358Y-121946062D02*
X90050032Y-121959911D01*
X89933288Y-121919061D02*
X89989358Y-121946062D01*
X89779903Y-121814453D02*
X89835973Y-121841455D01*
X89719231Y-121800606D02*
X89779903Y-121814453D01*
X89656997Y-121800605D02*
X89719231Y-121800606D01*
X89596323Y-121814453D02*
X89656997Y-121800605D01*
X89540253Y-121841455D02*
X89596323Y-121814453D01*
X89491597Y-121880257D02*
X89540253Y-121841455D01*
X89460366Y-121911487D02*
X89491597Y-121880257D01*
X89421564Y-121960143D02*
X89460366Y-121911487D01*
X89394562Y-122016213D02*
X89421564Y-121960143D01*
X89380714Y-122076887D02*
X89394562Y-122016213D01*
X89380713Y-122139121D02*
X89380714Y-122076887D01*
X89394562Y-122199793D02*
X89380713Y-122139121D01*
X89421564Y-122255864D02*
X89394562Y-122199793D01*
X88546034Y-123048321D02*
X88532185Y-122987649D01*
X88808355Y-123349564D02*
X88611839Y-123153047D01*
X89036103Y-122728786D02*
X89429134Y-123121817D01*
X88792737Y-123365177D02*
X88808355Y-123349564D01*
X88989253Y-123561694D02*
X88792737Y-123365177D01*
X89055058Y-123666422D02*
X89028056Y-123610352D01*
X89068906Y-123789328D02*
X89068906Y-123727095D01*
X89028056Y-123906072D02*
X89055058Y-123850002D01*
X88611839Y-123153047D02*
X88573036Y-123104392D01*
X88931375Y-122662981D02*
X88987445Y-122689983D01*
X88989254Y-123954728D02*
X89028056Y-123906072D01*
X88909367Y-124024762D02*
X88958023Y-123985960D01*
X89919202Y-122985859D02*
X89933050Y-122925185D01*
X89028056Y-123610352D02*
X88989253Y-123561694D01*
X89068906Y-123727095D02*
X89055058Y-123666422D01*
X90277664Y-121880258D02*
X90906844Y-121251075D01*
X85598000Y-127762000D02*
X85598000Y-126559919D01*
X89055058Y-123850002D02*
X89068906Y-123789328D01*
X88171958Y-123985960D02*
X88220614Y-123947158D01*
X88460264Y-123920156D02*
X88516334Y-123947158D01*
X88691725Y-122689983D02*
X88747795Y-122662981D01*
X88573036Y-123104392D02*
X88546034Y-123048321D01*
X88276684Y-123920156D02*
X88337357Y-123906307D01*
X88853296Y-124051764D02*
X88909367Y-124024762D01*
X88669717Y-124051764D02*
X88730390Y-124065612D01*
X89477791Y-123160618D02*
X89533861Y-123187621D01*
X88220614Y-123947158D02*
X88276684Y-123920156D01*
X89460367Y-122304519D02*
X89421564Y-122255864D01*
X88399591Y-123906307D02*
X88460264Y-123920156D01*
X88337357Y-123906307D02*
X88399591Y-123906307D01*
X85598000Y-126559919D02*
X88171958Y-123985960D01*
X89933050Y-122862952D02*
X89919202Y-122802279D01*
X88516334Y-123947158D02*
X88613646Y-124024762D01*
X88958023Y-123985960D02*
X88989254Y-123954728D01*
X89835973Y-121841455D02*
X89933288Y-121919061D01*
X88613646Y-124024762D02*
X88669717Y-124051764D01*
X88792623Y-124065612D02*
X88853296Y-124051764D01*
X88730390Y-124065612D02*
X88792623Y-124065612D01*
X88532185Y-122987649D02*
X88532186Y-122925415D01*
X88532186Y-122925415D02*
X88546034Y-122864741D01*
X88546034Y-122864741D02*
X88573036Y-122808671D01*
X88573036Y-122808671D02*
X88611838Y-122760015D01*
X88611838Y-122760015D02*
X88643069Y-122728785D01*
X88643069Y-122728785D02*
X88691725Y-122689983D01*
X88747795Y-122662981D02*
X88808469Y-122649133D01*
X88808469Y-122649133D02*
X88870703Y-122649134D01*
X88870703Y-122649134D02*
X88931375Y-122662981D01*
X88987445Y-122689983D02*
X89036103Y-122728786D01*
X89429134Y-123121817D02*
X89477791Y-123160618D01*
X89533861Y-123187621D02*
X89594534Y-123201469D01*
X89594534Y-123201469D02*
X89656767Y-123201469D01*
X89656767Y-123201469D02*
X89717441Y-123187621D01*
X89717441Y-123187621D02*
X89773511Y-123160619D01*
X89773511Y-123160619D02*
X89822167Y-123121817D01*
X89822167Y-123121817D02*
X89853398Y-123090585D01*
X89853398Y-123090585D02*
X89892200Y-123041929D01*
X89892200Y-123041929D02*
X89919202Y-122985859D01*
X89933050Y-122925185D02*
X89933050Y-122862952D01*
X89919202Y-122802279D02*
X89892200Y-122746209D01*
X89892200Y-122746209D02*
X89853398Y-122697552D01*
X89853398Y-122697552D02*
X89460367Y-122304519D01*
X102847998Y-117094000D02*
X102870000Y-117116002D01*
X97155000Y-117094000D02*
X102847998Y-117094000D01*
X95504000Y-115443000D02*
X97155000Y-117094000D01*
D15*
%TO.N,+3V3*%
X90678000Y-130302000D02*
X90678000Y-125857000D01*
X90678000Y-125857000D02*
X91948000Y-124587000D01*
X91948000Y-124587000D02*
X113030000Y-124587000D01*
X113538000Y-125095000D02*
X113538000Y-130302000D01*
X113030000Y-124587000D02*
X113538000Y-125095000D01*
%TD*%
D16*
%TO.N,GND*%
X100208078Y-87574871D02*
X100699686Y-87723296D01*
X101153107Y-87964383D01*
X101551064Y-88288950D01*
X101878397Y-88684628D01*
X102122643Y-89136352D01*
X102274497Y-89626913D01*
X102329994Y-90154928D01*
X102330001Y-90156990D01*
X102329999Y-99174021D01*
X102330062Y-99174656D01*
X102330074Y-99178223D01*
X102331695Y-99194181D01*
X102331583Y-99210206D01*
X102332082Y-99215306D01*
X102393283Y-99797595D01*
X102399983Y-99830234D01*
X102406205Y-99862854D01*
X102407684Y-99867751D01*
X102407685Y-99867758D01*
X102407688Y-99867764D01*
X102580823Y-100427073D01*
X102593730Y-100457777D01*
X102606173Y-100488576D01*
X102608577Y-100493097D01*
X102608579Y-100493102D01*
X102608582Y-100493106D01*
X102887055Y-101008133D01*
X102905655Y-101035709D01*
X102923869Y-101063543D01*
X102927108Y-101067514D01*
X103300318Y-101518647D01*
X103323948Y-101542113D01*
X103347193Y-101565850D01*
X103351135Y-101569111D01*
X103351141Y-101569117D01*
X103351148Y-101569121D01*
X103804869Y-101939169D01*
X103832600Y-101957593D01*
X103860021Y-101976369D01*
X103864528Y-101978806D01*
X104381493Y-102253680D01*
X104412272Y-102266367D01*
X104442819Y-102279459D01*
X104447704Y-102280971D01*
X104447714Y-102280975D01*
X104447724Y-102280977D01*
X105008221Y-102450201D01*
X105040854Y-102456663D01*
X105073387Y-102463578D01*
X105078472Y-102464112D01*
X105078483Y-102464114D01*
X105078493Y-102464114D01*
X105661185Y-102521248D01*
X105661200Y-102521248D01*
X105678978Y-102522999D01*
X112000240Y-102522999D01*
X113206129Y-102574680D01*
X113208077Y-102574871D01*
X113699685Y-102723295D01*
X114153107Y-102964384D01*
X114551063Y-103288950D01*
X114878397Y-103684629D01*
X115122643Y-104136353D01*
X115274497Y-104626914D01*
X115329994Y-105154929D01*
X115330001Y-105156992D01*
X115329999Y-131788999D01*
X76064000Y-131788999D01*
X76064000Y-130186076D01*
X76801000Y-130186076D01*
X76801000Y-130417924D01*
X76846231Y-130645318D01*
X76934956Y-130859519D01*
X77063764Y-131052294D01*
X77227706Y-131216236D01*
X77420481Y-131345044D01*
X77634682Y-131433769D01*
X77862076Y-131479000D01*
X78093924Y-131479000D01*
X78321318Y-131433769D01*
X78535519Y-131345044D01*
X78728294Y-131216236D01*
X78892236Y-131052294D01*
X79021044Y-130859519D01*
X79109769Y-130645318D01*
X79155000Y-130417924D01*
X79155000Y-130186076D01*
X79341000Y-130186076D01*
X79341000Y-130417924D01*
X79386231Y-130645318D01*
X79474956Y-130859519D01*
X79603764Y-131052294D01*
X79767706Y-131216236D01*
X79960481Y-131345044D01*
X80174682Y-131433769D01*
X80402076Y-131479000D01*
X80633924Y-131479000D01*
X80861318Y-131433769D01*
X81075519Y-131345044D01*
X81268294Y-131216236D01*
X81432236Y-131052294D01*
X81561044Y-130859519D01*
X81649769Y-130645318D01*
X81695000Y-130417924D01*
X81695000Y-130186076D01*
X81881000Y-130186076D01*
X81881000Y-130417924D01*
X81926231Y-130645318D01*
X82014956Y-130859519D01*
X82143764Y-131052294D01*
X82307706Y-131216236D01*
X82500481Y-131345044D01*
X82714682Y-131433769D01*
X82942076Y-131479000D01*
X83173924Y-131479000D01*
X83401318Y-131433769D01*
X83615519Y-131345044D01*
X83808294Y-131216236D01*
X83972236Y-131052294D01*
X84101044Y-130859519D01*
X84189769Y-130645318D01*
X84235000Y-130417924D01*
X84235000Y-130186076D01*
X84189769Y-129958682D01*
X84101044Y-129744481D01*
X83972236Y-129551706D01*
X83808294Y-129387764D01*
X83615519Y-129258956D01*
X83401318Y-129170231D01*
X83173924Y-129125000D01*
X82942076Y-129125000D01*
X82714682Y-129170231D01*
X82500481Y-129258956D01*
X82307706Y-129387764D01*
X82143764Y-129551706D01*
X82014956Y-129744481D01*
X81926231Y-129958682D01*
X81881000Y-130186076D01*
X81695000Y-130186076D01*
X81649769Y-129958682D01*
X81561044Y-129744481D01*
X81432236Y-129551706D01*
X81268294Y-129387764D01*
X81075519Y-129258956D01*
X80861318Y-129170231D01*
X80633924Y-129125000D01*
X80402076Y-129125000D01*
X80174682Y-129170231D01*
X79960481Y-129258956D01*
X79767706Y-129387764D01*
X79603764Y-129551706D01*
X79474956Y-129744481D01*
X79386231Y-129958682D01*
X79341000Y-130186076D01*
X79155000Y-130186076D01*
X79109769Y-129958682D01*
X79021044Y-129744481D01*
X78892236Y-129551706D01*
X78728294Y-129387764D01*
X78535519Y-129258956D01*
X78321318Y-129170231D01*
X78093924Y-129125000D01*
X77862076Y-129125000D01*
X77634682Y-129170231D01*
X77420481Y-129258956D01*
X77227706Y-129387764D01*
X77063764Y-129551706D01*
X76934956Y-129744481D01*
X76846231Y-129958682D01*
X76801000Y-130186076D01*
X76064000Y-130186076D01*
X76064000Y-126912000D01*
X76799418Y-126912000D01*
X76799418Y-128612000D01*
X76805732Y-128676103D01*
X76824430Y-128737743D01*
X76854794Y-128794550D01*
X76895657Y-128844343D01*
X76945450Y-128885206D01*
X77002257Y-128915570D01*
X77063897Y-128934268D01*
X77128000Y-128940582D01*
X78828000Y-128940582D01*
X78892103Y-128934268D01*
X78953743Y-128915570D01*
X79010550Y-128885206D01*
X79060343Y-128844343D01*
X79101206Y-128794550D01*
X79131570Y-128737743D01*
X79150268Y-128676103D01*
X79156582Y-128612000D01*
X79156582Y-127646076D01*
X79341000Y-127646076D01*
X79341000Y-127877924D01*
X79386231Y-128105318D01*
X79474956Y-128319519D01*
X79603764Y-128512294D01*
X79767706Y-128676236D01*
X79960481Y-128805044D01*
X80174682Y-128893769D01*
X80402076Y-128939000D01*
X80633924Y-128939000D01*
X80861318Y-128893769D01*
X81075519Y-128805044D01*
X81268294Y-128676236D01*
X81432236Y-128512294D01*
X81561044Y-128319519D01*
X81649769Y-128105318D01*
X81695000Y-127877924D01*
X81695000Y-127646076D01*
X81881000Y-127646076D01*
X81881000Y-127877924D01*
X81926231Y-128105318D01*
X82014956Y-128319519D01*
X82143764Y-128512294D01*
X82307706Y-128676236D01*
X82500481Y-128805044D01*
X82714682Y-128893769D01*
X82942076Y-128939000D01*
X83173924Y-128939000D01*
X83401318Y-128893769D01*
X83615519Y-128805044D01*
X83808294Y-128676236D01*
X83972236Y-128512294D01*
X84101044Y-128319519D01*
X84189769Y-128105318D01*
X84235000Y-127877924D01*
X84235000Y-127646076D01*
X84421000Y-127646076D01*
X84421000Y-127877924D01*
X84466231Y-128105318D01*
X84554956Y-128319519D01*
X84683764Y-128512294D01*
X84847706Y-128676236D01*
X85040481Y-128805044D01*
X85254682Y-128893769D01*
X85482076Y-128939000D01*
X85713924Y-128939000D01*
X85941318Y-128893769D01*
X86155519Y-128805044D01*
X86348294Y-128676236D01*
X86416000Y-128608530D01*
X86416000Y-128844775D01*
X86046837Y-129213939D01*
X85941318Y-129170231D01*
X85713924Y-129125000D01*
X85482076Y-129125000D01*
X85254682Y-129170231D01*
X85040481Y-129258956D01*
X84847706Y-129387764D01*
X84683764Y-129551706D01*
X84554956Y-129744481D01*
X84466231Y-129958682D01*
X84421000Y-130186076D01*
X84421000Y-130417924D01*
X84466231Y-130645318D01*
X84554956Y-130859519D01*
X84683764Y-131052294D01*
X84847706Y-131216236D01*
X85040481Y-131345044D01*
X85254682Y-131433769D01*
X85482076Y-131479000D01*
X85713924Y-131479000D01*
X85941318Y-131433769D01*
X86155519Y-131345044D01*
X86348294Y-131216236D01*
X86512236Y-131052294D01*
X86641044Y-130859519D01*
X86729769Y-130645318D01*
X86775000Y-130417924D01*
X86775000Y-130186076D01*
X86729769Y-129958682D01*
X86686061Y-129853163D01*
X87171912Y-129367313D01*
X87189159Y-129353159D01*
X87245643Y-129284333D01*
X87287614Y-129205810D01*
X87307444Y-129140438D01*
X87313460Y-129120608D01*
X87322187Y-129032001D01*
X87320000Y-129009796D01*
X87320000Y-127646076D01*
X89501000Y-127646076D01*
X89501000Y-127877924D01*
X89546231Y-128105318D01*
X89634956Y-128319519D01*
X89763764Y-128512294D01*
X89851000Y-128599530D01*
X89851000Y-129464470D01*
X89763764Y-129551706D01*
X89634956Y-129744481D01*
X89546231Y-129958682D01*
X89501000Y-130186076D01*
X89501000Y-130417924D01*
X89546231Y-130645318D01*
X89634956Y-130859519D01*
X89763764Y-131052294D01*
X89927706Y-131216236D01*
X90120481Y-131345044D01*
X90334682Y-131433769D01*
X90562076Y-131479000D01*
X90793924Y-131479000D01*
X91021318Y-131433769D01*
X91235519Y-131345044D01*
X91428294Y-131216236D01*
X91592236Y-131052294D01*
X91721044Y-130859519D01*
X91809769Y-130645318D01*
X91855000Y-130417924D01*
X91855000Y-130186076D01*
X99661000Y-130186076D01*
X99661000Y-130417924D01*
X99706231Y-130645318D01*
X99794956Y-130859519D01*
X99923764Y-131052294D01*
X100087706Y-131216236D01*
X100280481Y-131345044D01*
X100494682Y-131433769D01*
X100722076Y-131479000D01*
X100953924Y-131479000D01*
X101181318Y-131433769D01*
X101395519Y-131345044D01*
X101588294Y-131216236D01*
X101752236Y-131052294D01*
X101881044Y-130859519D01*
X101969769Y-130645318D01*
X102015000Y-130417924D01*
X102015000Y-130186076D01*
X102201000Y-130186076D01*
X102201000Y-130417924D01*
X102246231Y-130645318D01*
X102334956Y-130859519D01*
X102463764Y-131052294D01*
X102627706Y-131216236D01*
X102820481Y-131345044D01*
X103034682Y-131433769D01*
X103262076Y-131479000D01*
X103493924Y-131479000D01*
X103721318Y-131433769D01*
X103935519Y-131345044D01*
X104128294Y-131216236D01*
X104292236Y-131052294D01*
X104421044Y-130859519D01*
X104509769Y-130645318D01*
X104555000Y-130417924D01*
X104555000Y-130186076D01*
X104741000Y-130186076D01*
X104741000Y-130417924D01*
X104786231Y-130645318D01*
X104874956Y-130859519D01*
X105003764Y-131052294D01*
X105167706Y-131216236D01*
X105360481Y-131345044D01*
X105574682Y-131433769D01*
X105802076Y-131479000D01*
X106033924Y-131479000D01*
X106261318Y-131433769D01*
X106475519Y-131345044D01*
X106668294Y-131216236D01*
X106832236Y-131052294D01*
X106961044Y-130859519D01*
X107049769Y-130645318D01*
X107095000Y-130417924D01*
X107095000Y-130186076D01*
X107281000Y-130186076D01*
X107281000Y-130417924D01*
X107326231Y-130645318D01*
X107414956Y-130859519D01*
X107543764Y-131052294D01*
X107707706Y-131216236D01*
X107900481Y-131345044D01*
X108114682Y-131433769D01*
X108342076Y-131479000D01*
X108573924Y-131479000D01*
X108801318Y-131433769D01*
X109015519Y-131345044D01*
X109208294Y-131216236D01*
X109372236Y-131052294D01*
X109501044Y-130859519D01*
X109589769Y-130645318D01*
X109635000Y-130417924D01*
X109635000Y-130186076D01*
X109589769Y-129958682D01*
X109501044Y-129744481D01*
X109372236Y-129551706D01*
X109208294Y-129387764D01*
X109015519Y-129258956D01*
X108801318Y-129170231D01*
X108573924Y-129125000D01*
X108342076Y-129125000D01*
X108114682Y-129170231D01*
X107900481Y-129258956D01*
X107707706Y-129387764D01*
X107543764Y-129551706D01*
X107414956Y-129744481D01*
X107326231Y-129958682D01*
X107281000Y-130186076D01*
X107095000Y-130186076D01*
X107049769Y-129958682D01*
X106961044Y-129744481D01*
X106832236Y-129551706D01*
X106668294Y-129387764D01*
X106475519Y-129258956D01*
X106261318Y-129170231D01*
X106033924Y-129125000D01*
X105802076Y-129125000D01*
X105574682Y-129170231D01*
X105360481Y-129258956D01*
X105167706Y-129387764D01*
X105003764Y-129551706D01*
X104874956Y-129744481D01*
X104786231Y-129958682D01*
X104741000Y-130186076D01*
X104555000Y-130186076D01*
X104509769Y-129958682D01*
X104421044Y-129744481D01*
X104292236Y-129551706D01*
X104128294Y-129387764D01*
X103935519Y-129258956D01*
X103721318Y-129170231D01*
X103493924Y-129125000D01*
X103262076Y-129125000D01*
X103034682Y-129170231D01*
X102820481Y-129258956D01*
X102627706Y-129387764D01*
X102463764Y-129551706D01*
X102334956Y-129744481D01*
X102246231Y-129958682D01*
X102201000Y-130186076D01*
X102015000Y-130186076D01*
X101969769Y-129958682D01*
X101881044Y-129744481D01*
X101752236Y-129551706D01*
X101588294Y-129387764D01*
X101395519Y-129258956D01*
X101181318Y-129170231D01*
X100953924Y-129125000D01*
X100722076Y-129125000D01*
X100494682Y-129170231D01*
X100280481Y-129258956D01*
X100087706Y-129387764D01*
X99923764Y-129551706D01*
X99794956Y-129744481D01*
X99706231Y-129958682D01*
X99661000Y-130186076D01*
X91855000Y-130186076D01*
X91809769Y-129958682D01*
X91721044Y-129744481D01*
X91592236Y-129551706D01*
X91505000Y-129464470D01*
X91505000Y-128599530D01*
X91592236Y-128512294D01*
X91721044Y-128319519D01*
X91809769Y-128105318D01*
X91855000Y-127877924D01*
X91855000Y-127646076D01*
X91809769Y-127418682D01*
X91721044Y-127204481D01*
X91592236Y-127011706D01*
X91505000Y-126924470D01*
X91505000Y-126912000D01*
X99659418Y-126912000D01*
X99659418Y-128612000D01*
X99665732Y-128676103D01*
X99684430Y-128737743D01*
X99714794Y-128794550D01*
X99755657Y-128844343D01*
X99805450Y-128885206D01*
X99862257Y-128915570D01*
X99923897Y-128934268D01*
X99988000Y-128940582D01*
X101688000Y-128940582D01*
X101752103Y-128934268D01*
X101813743Y-128915570D01*
X101870550Y-128885206D01*
X101920343Y-128844343D01*
X101961206Y-128794550D01*
X101991570Y-128737743D01*
X102010268Y-128676103D01*
X102016582Y-128612000D01*
X102016582Y-127646076D01*
X102201000Y-127646076D01*
X102201000Y-127877924D01*
X102246231Y-128105318D01*
X102334956Y-128319519D01*
X102463764Y-128512294D01*
X102627706Y-128676236D01*
X102820481Y-128805044D01*
X103034682Y-128893769D01*
X103262076Y-128939000D01*
X103493924Y-128939000D01*
X103721318Y-128893769D01*
X103935519Y-128805044D01*
X104128294Y-128676236D01*
X104292236Y-128512294D01*
X104421044Y-128319519D01*
X104509769Y-128105318D01*
X104555000Y-127877924D01*
X104555000Y-127646076D01*
X104741000Y-127646076D01*
X104741000Y-127877924D01*
X104786231Y-128105318D01*
X104874956Y-128319519D01*
X105003764Y-128512294D01*
X105167706Y-128676236D01*
X105360481Y-128805044D01*
X105574682Y-128893769D01*
X105802076Y-128939000D01*
X106033924Y-128939000D01*
X106261318Y-128893769D01*
X106475519Y-128805044D01*
X106668294Y-128676236D01*
X106832236Y-128512294D01*
X106961044Y-128319519D01*
X107049769Y-128105318D01*
X107095000Y-127877924D01*
X107095000Y-127646076D01*
X107281000Y-127646076D01*
X107281000Y-127877924D01*
X107326231Y-128105318D01*
X107414956Y-128319519D01*
X107543764Y-128512294D01*
X107707706Y-128676236D01*
X107900481Y-128805044D01*
X108114682Y-128893769D01*
X108342076Y-128939000D01*
X108573924Y-128939000D01*
X108801318Y-128893769D01*
X109015519Y-128805044D01*
X109208294Y-128676236D01*
X109372236Y-128512294D01*
X109501044Y-128319519D01*
X109589769Y-128105318D01*
X109635000Y-127877924D01*
X109635000Y-127646076D01*
X109589769Y-127418682D01*
X109501044Y-127204481D01*
X109372236Y-127011706D01*
X109208294Y-126847764D01*
X109015519Y-126718956D01*
X108801318Y-126630231D01*
X108573924Y-126585000D01*
X108342076Y-126585000D01*
X108114682Y-126630231D01*
X107900481Y-126718956D01*
X107707706Y-126847764D01*
X107543764Y-127011706D01*
X107414956Y-127204481D01*
X107326231Y-127418682D01*
X107281000Y-127646076D01*
X107095000Y-127646076D01*
X107049769Y-127418682D01*
X106961044Y-127204481D01*
X106832236Y-127011706D01*
X106668294Y-126847764D01*
X106475519Y-126718956D01*
X106261318Y-126630231D01*
X106033924Y-126585000D01*
X105802076Y-126585000D01*
X105574682Y-126630231D01*
X105360481Y-126718956D01*
X105167706Y-126847764D01*
X105003764Y-127011706D01*
X104874956Y-127204481D01*
X104786231Y-127418682D01*
X104741000Y-127646076D01*
X104555000Y-127646076D01*
X104509769Y-127418682D01*
X104421044Y-127204481D01*
X104292236Y-127011706D01*
X104128294Y-126847764D01*
X103935519Y-126718956D01*
X103721318Y-126630231D01*
X103493924Y-126585000D01*
X103262076Y-126585000D01*
X103034682Y-126630231D01*
X102820481Y-126718956D01*
X102627706Y-126847764D01*
X102463764Y-127011706D01*
X102334956Y-127204481D01*
X102246231Y-127418682D01*
X102201000Y-127646076D01*
X102016582Y-127646076D01*
X102016582Y-126912000D01*
X102010268Y-126847897D01*
X101991570Y-126786257D01*
X101961206Y-126729450D01*
X101920343Y-126679657D01*
X101870550Y-126638794D01*
X101813743Y-126608430D01*
X101752103Y-126589732D01*
X101688000Y-126583418D01*
X99988000Y-126583418D01*
X99923897Y-126589732D01*
X99862257Y-126608430D01*
X99805450Y-126638794D01*
X99755657Y-126679657D01*
X99714794Y-126729450D01*
X99684430Y-126786257D01*
X99665732Y-126847897D01*
X99659418Y-126912000D01*
X91505000Y-126912000D01*
X91505000Y-126199553D01*
X92290554Y-125414000D01*
X112687447Y-125414000D01*
X112711000Y-125437554D01*
X112711000Y-126924470D01*
X112623764Y-127011706D01*
X112494956Y-127204481D01*
X112406231Y-127418682D01*
X112361000Y-127646076D01*
X112361000Y-127877924D01*
X112406231Y-128105318D01*
X112494956Y-128319519D01*
X112623764Y-128512294D01*
X112711001Y-128599531D01*
X112711001Y-129464469D01*
X112623764Y-129551706D01*
X112494956Y-129744481D01*
X112406231Y-129958682D01*
X112361000Y-130186076D01*
X112361000Y-130417924D01*
X112406231Y-130645318D01*
X112494956Y-130859519D01*
X112623764Y-131052294D01*
X112787706Y-131216236D01*
X112980481Y-131345044D01*
X113194682Y-131433769D01*
X113422076Y-131479000D01*
X113653924Y-131479000D01*
X113881318Y-131433769D01*
X114095519Y-131345044D01*
X114288294Y-131216236D01*
X114452236Y-131052294D01*
X114581044Y-130859519D01*
X114669769Y-130645318D01*
X114715000Y-130417924D01*
X114715000Y-130186076D01*
X114669769Y-129958682D01*
X114581044Y-129744481D01*
X114452236Y-129551706D01*
X114365000Y-129464470D01*
X114365000Y-128599530D01*
X114452236Y-128512294D01*
X114581044Y-128319519D01*
X114669769Y-128105318D01*
X114715000Y-127877924D01*
X114715000Y-127646076D01*
X114669769Y-127418682D01*
X114581044Y-127204481D01*
X114452236Y-127011706D01*
X114365000Y-126924470D01*
X114365000Y-125135610D01*
X114369000Y-125094999D01*
X114365000Y-125054388D01*
X114365000Y-125054376D01*
X114353034Y-124932880D01*
X114305745Y-124776990D01*
X114304093Y-124773900D01*
X114228951Y-124633319D01*
X114151502Y-124538948D01*
X114151501Y-124538947D01*
X114125606Y-124507394D01*
X114094054Y-124481500D01*
X113643505Y-124030952D01*
X113617606Y-123999394D01*
X113491679Y-123896048D01*
X113348010Y-123819255D01*
X113192120Y-123771966D01*
X113070624Y-123760000D01*
X113070614Y-123760000D01*
X113030000Y-123756000D01*
X112989386Y-123760000D01*
X91988613Y-123760000D01*
X91947999Y-123756000D01*
X91907385Y-123760000D01*
X91907376Y-123760000D01*
X91785880Y-123771966D01*
X91629990Y-123819255D01*
X91596292Y-123837267D01*
X91486319Y-123896048D01*
X91397748Y-123968738D01*
X91360394Y-123999394D01*
X91334499Y-124030947D01*
X90121948Y-125243499D01*
X90090395Y-125269394D01*
X90064500Y-125300947D01*
X90064498Y-125300949D01*
X89987048Y-125395321D01*
X89910256Y-125538990D01*
X89862967Y-125694880D01*
X89847000Y-125857000D01*
X89851001Y-125897624D01*
X89851001Y-126924469D01*
X89763764Y-127011706D01*
X89634956Y-127204481D01*
X89546231Y-127418682D01*
X89501000Y-127646076D01*
X87320000Y-127646076D01*
X87320000Y-127480221D01*
X88391574Y-126408648D01*
X88393130Y-126409167D01*
X88428994Y-126422284D01*
X88457314Y-126426688D01*
X88465572Y-126428573D01*
X88493010Y-126436896D01*
X88531012Y-126440639D01*
X88568876Y-126445444D01*
X88597466Y-126443436D01*
X88605955Y-126443436D01*
X88634545Y-126445444D01*
X88672411Y-126440639D01*
X88710412Y-126436896D01*
X88737847Y-126428574D01*
X88746112Y-126426687D01*
X88774428Y-126422284D01*
X88810286Y-126409170D01*
X88846497Y-126397066D01*
X88871382Y-126382853D01*
X88879027Y-126379172D01*
X88905662Y-126368574D01*
X88937692Y-126347816D01*
X88970302Y-126327958D01*
X88986344Y-126313213D01*
X89012913Y-126291407D01*
X89027795Y-126279539D01*
X89030072Y-126277325D01*
X89032526Y-126275311D01*
X89045982Y-126261855D01*
X89075632Y-126233025D01*
X89077446Y-126230391D01*
X89189466Y-126118371D01*
X89192096Y-126116560D01*
X89220890Y-126086947D01*
X89234384Y-126073453D01*
X89236403Y-126070993D01*
X89238610Y-126068723D01*
X89250461Y-126053862D01*
X89272279Y-126027276D01*
X89287029Y-126011230D01*
X89306887Y-125978620D01*
X89327645Y-125946590D01*
X89338243Y-125919955D01*
X89341925Y-125912308D01*
X89356137Y-125887425D01*
X89368238Y-125851220D01*
X89381355Y-125815356D01*
X89385759Y-125787036D01*
X89387644Y-125778778D01*
X89395967Y-125751340D01*
X89399710Y-125713338D01*
X89404515Y-125675474D01*
X89402507Y-125646884D01*
X89402507Y-125638394D01*
X89404515Y-125609804D01*
X89399709Y-125571937D01*
X89395967Y-125533939D01*
X89387645Y-125506504D01*
X89385759Y-125498242D01*
X89381355Y-125469922D01*
X89368238Y-125434058D01*
X89356137Y-125397853D01*
X89341925Y-125372970D01*
X89338246Y-125365330D01*
X89327649Y-125338695D01*
X89315807Y-125320423D01*
X89319651Y-125320044D01*
X89347086Y-125311722D01*
X89355351Y-125309835D01*
X89383667Y-125305432D01*
X89419527Y-125292317D01*
X89455736Y-125280214D01*
X89480621Y-125266001D01*
X89488275Y-125262315D01*
X89514908Y-125251718D01*
X89546930Y-125230964D01*
X89579541Y-125211106D01*
X89595590Y-125196354D01*
X89622180Y-125174532D01*
X89637041Y-125162680D01*
X89639309Y-125160474D01*
X89641765Y-125158459D01*
X89655255Y-125144969D01*
X89684877Y-125116165D01*
X89686686Y-125113538D01*
X92160020Y-122640202D01*
X92160024Y-122640197D01*
X95532213Y-119268010D01*
X97190170Y-119268010D01*
X97239004Y-119300640D01*
X97353111Y-119347905D01*
X97474246Y-119372000D01*
X97597754Y-119372000D01*
X97718889Y-119347905D01*
X97832996Y-119300640D01*
X97935689Y-119232023D01*
X98023023Y-119144689D01*
X98091640Y-119041996D01*
X98138905Y-118927889D01*
X98163000Y-118806754D01*
X98163000Y-118683246D01*
X98138905Y-118562111D01*
X98091640Y-118448004D01*
X98082951Y-118435000D01*
X109407142Y-118435000D01*
X109409938Y-118449058D01*
X109464741Y-118581364D01*
X109544302Y-118700436D01*
X109645564Y-118801698D01*
X109764636Y-118881259D01*
X109896942Y-118936062D01*
X110037397Y-118964000D01*
X110180603Y-118964000D01*
X110321058Y-118936062D01*
X110453364Y-118881259D01*
X110572436Y-118801698D01*
X110673698Y-118700436D01*
X110753259Y-118581364D01*
X110808062Y-118449058D01*
X110836000Y-118308603D01*
X110836000Y-118165397D01*
X110808062Y-118024942D01*
X110753259Y-117892636D01*
X110673698Y-117773564D01*
X110572436Y-117672302D01*
X110453364Y-117592741D01*
X110321058Y-117537938D01*
X110180603Y-117510000D01*
X110037397Y-117510000D01*
X109913734Y-117534598D01*
X109877205Y-117531000D01*
X109855000Y-117528813D01*
X109832795Y-117531000D01*
X103467063Y-117531000D01*
X103514259Y-117460366D01*
X103569062Y-117328060D01*
X103597000Y-117187605D01*
X103597000Y-117044399D01*
X103569062Y-116903944D01*
X103514259Y-116771638D01*
X103434698Y-116652566D01*
X103333436Y-116551304D01*
X103214364Y-116471743D01*
X103082058Y-116416940D01*
X102941603Y-116389002D01*
X102798397Y-116389002D01*
X102657942Y-116416940D01*
X102525636Y-116471743D01*
X102406564Y-116551304D01*
X102315868Y-116642000D01*
X97342224Y-116642000D01*
X96228317Y-115528093D01*
X96231000Y-115514603D01*
X96231000Y-115371397D01*
X96203062Y-115230942D01*
X96148259Y-115098636D01*
X96068698Y-114979564D01*
X95967436Y-114878302D01*
X95848364Y-114798741D01*
X95716058Y-114743938D01*
X95575603Y-114716000D01*
X95432397Y-114716000D01*
X95291942Y-114743938D01*
X95159636Y-114798741D01*
X95040564Y-114878302D01*
X94939302Y-114979564D01*
X94859741Y-115098636D01*
X94804938Y-115230942D01*
X94777000Y-115371397D01*
X94777000Y-115514603D01*
X94779683Y-115528092D01*
X91771096Y-118536681D01*
X91753842Y-118550841D01*
X91701482Y-118614642D01*
X91697358Y-118619667D01*
X91655386Y-118698191D01*
X91629540Y-118783393D01*
X91620813Y-118872000D01*
X91623001Y-118894215D01*
X91623000Y-119895694D01*
X90602937Y-120915759D01*
X90602932Y-120915763D01*
X90066478Y-121452220D01*
X90044436Y-121437935D01*
X90017810Y-121427341D01*
X89990296Y-121414091D01*
X89965406Y-121399876D01*
X89929206Y-121387777D01*
X89893349Y-121374663D01*
X89865023Y-121370258D01*
X89835268Y-121363467D01*
X89807845Y-121355148D01*
X89769842Y-121351405D01*
X89731962Y-121346598D01*
X89703377Y-121348606D01*
X89672857Y-121348606D01*
X89644261Y-121346597D01*
X89606399Y-121351402D01*
X89568398Y-121355144D01*
X89540966Y-121363465D01*
X89511202Y-121370258D01*
X89482877Y-121374663D01*
X89447013Y-121387780D01*
X89410817Y-121399878D01*
X89385937Y-121414088D01*
X89358413Y-121427342D01*
X89331788Y-121437936D01*
X89299768Y-121458688D01*
X89267143Y-121478555D01*
X89246035Y-121497958D01*
X89242088Y-121501105D01*
X89239271Y-121502611D01*
X89207301Y-121528847D01*
X89192419Y-121540715D01*
X89190146Y-121542925D01*
X89187692Y-121544939D01*
X89174229Y-121558401D01*
X89169558Y-121562943D01*
X89167338Y-121564472D01*
X89156110Y-121576019D01*
X89144581Y-121587229D01*
X89143054Y-121589446D01*
X89138506Y-121594123D01*
X89125058Y-121607571D01*
X89123044Y-121610024D01*
X89120823Y-121612309D01*
X89108941Y-121627209D01*
X89082728Y-121659148D01*
X89081218Y-121661973D01*
X89078064Y-121665928D01*
X89058664Y-121687033D01*
X89038792Y-121719665D01*
X89018045Y-121751679D01*
X89007454Y-121778298D01*
X88994197Y-121805827D01*
X88979987Y-121830707D01*
X88967889Y-121866903D01*
X88954772Y-121902767D01*
X88950368Y-121931086D01*
X88943574Y-121960855D01*
X88935256Y-121988273D01*
X88931514Y-122026258D01*
X88926706Y-122064152D01*
X88928714Y-122092742D01*
X88928714Y-122123266D01*
X88926705Y-122151866D01*
X88931512Y-122189741D01*
X88932625Y-122201047D01*
X88921314Y-122199933D01*
X88883434Y-122195126D01*
X88854849Y-122197134D01*
X88824329Y-122197134D01*
X88795733Y-122195125D01*
X88757871Y-122199930D01*
X88719870Y-122203672D01*
X88692438Y-122211993D01*
X88662674Y-122218786D01*
X88634349Y-122223191D01*
X88598485Y-122236308D01*
X88562289Y-122248406D01*
X88537409Y-122262616D01*
X88509885Y-122275870D01*
X88483260Y-122286464D01*
X88451240Y-122307216D01*
X88418615Y-122327083D01*
X88397507Y-122346486D01*
X88393560Y-122349633D01*
X88390743Y-122351139D01*
X88358773Y-122377375D01*
X88343891Y-122389243D01*
X88341618Y-122391453D01*
X88339164Y-122393467D01*
X88325707Y-122406924D01*
X88321030Y-122411471D01*
X88318810Y-122413000D01*
X88307582Y-122424547D01*
X88296053Y-122435757D01*
X88294526Y-122437974D01*
X88289978Y-122442651D01*
X88276530Y-122456099D01*
X88274516Y-122458552D01*
X88272295Y-122460837D01*
X88260413Y-122475737D01*
X88234200Y-122507676D01*
X88232690Y-122510501D01*
X88229536Y-122514456D01*
X88210136Y-122535561D01*
X88190264Y-122568193D01*
X88169517Y-122600207D01*
X88158926Y-122626826D01*
X88145669Y-122654355D01*
X88131459Y-122679235D01*
X88119361Y-122715431D01*
X88106244Y-122751295D01*
X88101840Y-122779614D01*
X88095046Y-122809383D01*
X88086728Y-122836801D01*
X88082986Y-122874786D01*
X88078178Y-122912680D01*
X88080186Y-122941270D01*
X88080186Y-122971794D01*
X88078177Y-123000394D01*
X88082984Y-123038269D01*
X88086724Y-123076248D01*
X88095045Y-123103679D01*
X88101840Y-123133450D01*
X88106243Y-123161764D01*
X88119358Y-123197625D01*
X88131463Y-123233837D01*
X88145675Y-123258720D01*
X88158921Y-123286225D01*
X88169521Y-123312865D01*
X88190288Y-123344907D01*
X88210135Y-123377500D01*
X88229534Y-123398605D01*
X88232690Y-123402562D01*
X88234196Y-123405379D01*
X88260448Y-123437368D01*
X88272303Y-123452232D01*
X88274510Y-123454501D01*
X88276525Y-123456957D01*
X88277576Y-123458008D01*
X88248750Y-123460847D01*
X88221311Y-123469171D01*
X88191560Y-123475961D01*
X88163238Y-123480366D01*
X88127369Y-123493484D01*
X88091170Y-123505584D01*
X88066290Y-123519795D01*
X88038774Y-123533045D01*
X88012149Y-123543639D01*
X87980129Y-123564391D01*
X87947504Y-123584258D01*
X87926396Y-123603661D01*
X87922450Y-123606807D01*
X87919624Y-123608318D01*
X87887600Y-123634599D01*
X87872780Y-123646418D01*
X87870512Y-123648623D01*
X87868046Y-123650647D01*
X87854534Y-123664159D01*
X87824942Y-123692932D01*
X87823130Y-123695563D01*
X85294096Y-126224600D01*
X85276842Y-126238760D01*
X85231084Y-126294516D01*
X85220358Y-126307586D01*
X85178386Y-126386110D01*
X85152540Y-126471312D01*
X85143813Y-126559919D01*
X85146001Y-126582134D01*
X85146001Y-126675248D01*
X85040481Y-126718956D01*
X84847706Y-126847764D01*
X84683764Y-127011706D01*
X84554956Y-127204481D01*
X84466231Y-127418682D01*
X84421000Y-127646076D01*
X84235000Y-127646076D01*
X84189769Y-127418682D01*
X84101044Y-127204481D01*
X83972236Y-127011706D01*
X83808294Y-126847764D01*
X83615519Y-126718956D01*
X83401318Y-126630231D01*
X83173924Y-126585000D01*
X82942076Y-126585000D01*
X82714682Y-126630231D01*
X82500481Y-126718956D01*
X82307706Y-126847764D01*
X82143764Y-127011706D01*
X82014956Y-127204481D01*
X81926231Y-127418682D01*
X81881000Y-127646076D01*
X81695000Y-127646076D01*
X81649769Y-127418682D01*
X81561044Y-127204481D01*
X81432236Y-127011706D01*
X81268294Y-126847764D01*
X81075519Y-126718956D01*
X80861318Y-126630231D01*
X80633924Y-126585000D01*
X80402076Y-126585000D01*
X80174682Y-126630231D01*
X79960481Y-126718956D01*
X79767706Y-126847764D01*
X79603764Y-127011706D01*
X79474956Y-127204481D01*
X79386231Y-127418682D01*
X79341000Y-127646076D01*
X79156582Y-127646076D01*
X79156582Y-126912000D01*
X79150268Y-126847897D01*
X79131570Y-126786257D01*
X79101206Y-126729450D01*
X79060343Y-126679657D01*
X79010550Y-126638794D01*
X78953743Y-126608430D01*
X78892103Y-126589732D01*
X78828000Y-126583418D01*
X77128000Y-126583418D01*
X77063897Y-126589732D01*
X77002257Y-126608430D01*
X76945450Y-126638794D01*
X76895657Y-126679657D01*
X76854794Y-126729450D01*
X76824430Y-126786257D01*
X76805732Y-126847897D01*
X76799418Y-126912000D01*
X76064000Y-126912000D01*
X76064000Y-105173944D01*
X76115872Y-104644921D01*
X76264297Y-104153313D01*
X76505384Y-103699892D01*
X76829951Y-103301935D01*
X77225629Y-102974602D01*
X77677353Y-102730356D01*
X78167914Y-102578502D01*
X78695929Y-102523005D01*
X78697705Y-102522999D01*
X85715023Y-102522999D01*
X85715658Y-102522936D01*
X85719224Y-102522924D01*
X85735182Y-102521303D01*
X85751207Y-102521415D01*
X85756307Y-102520916D01*
X86338596Y-102459715D01*
X86371210Y-102453021D01*
X86403854Y-102446793D01*
X86408752Y-102445314D01*
X86408759Y-102445313D01*
X86408765Y-102445310D01*
X86968072Y-102272176D01*
X86998788Y-102259265D01*
X87029577Y-102246825D01*
X87034092Y-102244425D01*
X87034101Y-102244421D01*
X87034108Y-102244416D01*
X87549134Y-101965943D01*
X87576737Y-101947324D01*
X87604542Y-101929129D01*
X87608513Y-101925891D01*
X88059648Y-101552680D01*
X88083114Y-101529050D01*
X88106851Y-101505805D01*
X88110118Y-101501857D01*
X88480169Y-101048129D01*
X88498611Y-101020372D01*
X88517368Y-100992977D01*
X88519806Y-100988470D01*
X88794680Y-100471507D01*
X88807377Y-100440702D01*
X88820459Y-100410180D01*
X88821970Y-100405299D01*
X88821975Y-100405286D01*
X88821977Y-100405273D01*
X88991201Y-99844778D01*
X88997663Y-99812145D01*
X89004578Y-99779612D01*
X89005112Y-99774527D01*
X89005114Y-99774516D01*
X89005114Y-99774506D01*
X89062248Y-99191814D01*
X89062248Y-99191810D01*
X89064000Y-99174022D01*
X89064000Y-90173956D01*
X89115871Y-89644925D01*
X89264298Y-89153315D01*
X89505383Y-88699897D01*
X89829951Y-88301937D01*
X90225629Y-87974604D01*
X90677356Y-87730356D01*
X91167914Y-87578503D01*
X91695929Y-87523006D01*
X91697705Y-87523000D01*
X99679065Y-87523000D01*
X100208078Y-87574871D01*
%TA.AperFunction,Conductor*%
D17*
G36*
X100208078Y-87574871D02*
G01*
X100699686Y-87723296D01*
X101153107Y-87964383D01*
X101551064Y-88288950D01*
X101878397Y-88684628D01*
X102122643Y-89136352D01*
X102274497Y-89626913D01*
X102329994Y-90154928D01*
X102330001Y-90156990D01*
X102329999Y-99174021D01*
X102330062Y-99174656D01*
X102330074Y-99178223D01*
X102331695Y-99194181D01*
X102331583Y-99210206D01*
X102332082Y-99215306D01*
X102393283Y-99797595D01*
X102399983Y-99830234D01*
X102406205Y-99862854D01*
X102407684Y-99867751D01*
X102407685Y-99867758D01*
X102407688Y-99867764D01*
X102580823Y-100427073D01*
X102593730Y-100457777D01*
X102606173Y-100488576D01*
X102608577Y-100493097D01*
X102608579Y-100493102D01*
X102608582Y-100493106D01*
X102887055Y-101008133D01*
X102905655Y-101035709D01*
X102923869Y-101063543D01*
X102927108Y-101067514D01*
X103300318Y-101518647D01*
X103323948Y-101542113D01*
X103347193Y-101565850D01*
X103351135Y-101569111D01*
X103351141Y-101569117D01*
X103351148Y-101569121D01*
X103804869Y-101939169D01*
X103832600Y-101957593D01*
X103860021Y-101976369D01*
X103864528Y-101978806D01*
X104381493Y-102253680D01*
X104412272Y-102266367D01*
X104442819Y-102279459D01*
X104447704Y-102280971D01*
X104447714Y-102280975D01*
X104447724Y-102280977D01*
X105008221Y-102450201D01*
X105040854Y-102456663D01*
X105073387Y-102463578D01*
X105078472Y-102464112D01*
X105078483Y-102464114D01*
X105078493Y-102464114D01*
X105661185Y-102521248D01*
X105661200Y-102521248D01*
X105678978Y-102522999D01*
X112000240Y-102522999D01*
X113206129Y-102574680D01*
X113208077Y-102574871D01*
X113699685Y-102723295D01*
X114153107Y-102964384D01*
X114551063Y-103288950D01*
X114878397Y-103684629D01*
X115122643Y-104136353D01*
X115274497Y-104626914D01*
X115329994Y-105154929D01*
X115330001Y-105156992D01*
X115329999Y-131788999D01*
X76064000Y-131788999D01*
X76064000Y-130186076D01*
X76801000Y-130186076D01*
X76801000Y-130417924D01*
X76846231Y-130645318D01*
X76934956Y-130859519D01*
X77063764Y-131052294D01*
X77227706Y-131216236D01*
X77420481Y-131345044D01*
X77634682Y-131433769D01*
X77862076Y-131479000D01*
X78093924Y-131479000D01*
X78321318Y-131433769D01*
X78535519Y-131345044D01*
X78728294Y-131216236D01*
X78892236Y-131052294D01*
X79021044Y-130859519D01*
X79109769Y-130645318D01*
X79155000Y-130417924D01*
X79155000Y-130186076D01*
X79341000Y-130186076D01*
X79341000Y-130417924D01*
X79386231Y-130645318D01*
X79474956Y-130859519D01*
X79603764Y-131052294D01*
X79767706Y-131216236D01*
X79960481Y-131345044D01*
X80174682Y-131433769D01*
X80402076Y-131479000D01*
X80633924Y-131479000D01*
X80861318Y-131433769D01*
X81075519Y-131345044D01*
X81268294Y-131216236D01*
X81432236Y-131052294D01*
X81561044Y-130859519D01*
X81649769Y-130645318D01*
X81695000Y-130417924D01*
X81695000Y-130186076D01*
X81881000Y-130186076D01*
X81881000Y-130417924D01*
X81926231Y-130645318D01*
X82014956Y-130859519D01*
X82143764Y-131052294D01*
X82307706Y-131216236D01*
X82500481Y-131345044D01*
X82714682Y-131433769D01*
X82942076Y-131479000D01*
X83173924Y-131479000D01*
X83401318Y-131433769D01*
X83615519Y-131345044D01*
X83808294Y-131216236D01*
X83972236Y-131052294D01*
X84101044Y-130859519D01*
X84189769Y-130645318D01*
X84235000Y-130417924D01*
X84235000Y-130186076D01*
X84189769Y-129958682D01*
X84101044Y-129744481D01*
X83972236Y-129551706D01*
X83808294Y-129387764D01*
X83615519Y-129258956D01*
X83401318Y-129170231D01*
X83173924Y-129125000D01*
X82942076Y-129125000D01*
X82714682Y-129170231D01*
X82500481Y-129258956D01*
X82307706Y-129387764D01*
X82143764Y-129551706D01*
X82014956Y-129744481D01*
X81926231Y-129958682D01*
X81881000Y-130186076D01*
X81695000Y-130186076D01*
X81649769Y-129958682D01*
X81561044Y-129744481D01*
X81432236Y-129551706D01*
X81268294Y-129387764D01*
X81075519Y-129258956D01*
X80861318Y-129170231D01*
X80633924Y-129125000D01*
X80402076Y-129125000D01*
X80174682Y-129170231D01*
X79960481Y-129258956D01*
X79767706Y-129387764D01*
X79603764Y-129551706D01*
X79474956Y-129744481D01*
X79386231Y-129958682D01*
X79341000Y-130186076D01*
X79155000Y-130186076D01*
X79109769Y-129958682D01*
X79021044Y-129744481D01*
X78892236Y-129551706D01*
X78728294Y-129387764D01*
X78535519Y-129258956D01*
X78321318Y-129170231D01*
X78093924Y-129125000D01*
X77862076Y-129125000D01*
X77634682Y-129170231D01*
X77420481Y-129258956D01*
X77227706Y-129387764D01*
X77063764Y-129551706D01*
X76934956Y-129744481D01*
X76846231Y-129958682D01*
X76801000Y-130186076D01*
X76064000Y-130186076D01*
X76064000Y-126912000D01*
X76799418Y-126912000D01*
X76799418Y-128612000D01*
X76805732Y-128676103D01*
X76824430Y-128737743D01*
X76854794Y-128794550D01*
X76895657Y-128844343D01*
X76945450Y-128885206D01*
X77002257Y-128915570D01*
X77063897Y-128934268D01*
X77128000Y-128940582D01*
X78828000Y-128940582D01*
X78892103Y-128934268D01*
X78953743Y-128915570D01*
X79010550Y-128885206D01*
X79060343Y-128844343D01*
X79101206Y-128794550D01*
X79131570Y-128737743D01*
X79150268Y-128676103D01*
X79156582Y-128612000D01*
X79156582Y-127646076D01*
X79341000Y-127646076D01*
X79341000Y-127877924D01*
X79386231Y-128105318D01*
X79474956Y-128319519D01*
X79603764Y-128512294D01*
X79767706Y-128676236D01*
X79960481Y-128805044D01*
X80174682Y-128893769D01*
X80402076Y-128939000D01*
X80633924Y-128939000D01*
X80861318Y-128893769D01*
X81075519Y-128805044D01*
X81268294Y-128676236D01*
X81432236Y-128512294D01*
X81561044Y-128319519D01*
X81649769Y-128105318D01*
X81695000Y-127877924D01*
X81695000Y-127646076D01*
X81881000Y-127646076D01*
X81881000Y-127877924D01*
X81926231Y-128105318D01*
X82014956Y-128319519D01*
X82143764Y-128512294D01*
X82307706Y-128676236D01*
X82500481Y-128805044D01*
X82714682Y-128893769D01*
X82942076Y-128939000D01*
X83173924Y-128939000D01*
X83401318Y-128893769D01*
X83615519Y-128805044D01*
X83808294Y-128676236D01*
X83972236Y-128512294D01*
X84101044Y-128319519D01*
X84189769Y-128105318D01*
X84235000Y-127877924D01*
X84235000Y-127646076D01*
X84421000Y-127646076D01*
X84421000Y-127877924D01*
X84466231Y-128105318D01*
X84554956Y-128319519D01*
X84683764Y-128512294D01*
X84847706Y-128676236D01*
X85040481Y-128805044D01*
X85254682Y-128893769D01*
X85482076Y-128939000D01*
X85713924Y-128939000D01*
X85941318Y-128893769D01*
X86155519Y-128805044D01*
X86348294Y-128676236D01*
X86416000Y-128608530D01*
X86416000Y-128844775D01*
X86046837Y-129213939D01*
X85941318Y-129170231D01*
X85713924Y-129125000D01*
X85482076Y-129125000D01*
X85254682Y-129170231D01*
X85040481Y-129258956D01*
X84847706Y-129387764D01*
X84683764Y-129551706D01*
X84554956Y-129744481D01*
X84466231Y-129958682D01*
X84421000Y-130186076D01*
X84421000Y-130417924D01*
X84466231Y-130645318D01*
X84554956Y-130859519D01*
X84683764Y-131052294D01*
X84847706Y-131216236D01*
X85040481Y-131345044D01*
X85254682Y-131433769D01*
X85482076Y-131479000D01*
X85713924Y-131479000D01*
X85941318Y-131433769D01*
X86155519Y-131345044D01*
X86348294Y-131216236D01*
X86512236Y-131052294D01*
X86641044Y-130859519D01*
X86729769Y-130645318D01*
X86775000Y-130417924D01*
X86775000Y-130186076D01*
X86729769Y-129958682D01*
X86686061Y-129853163D01*
X87171912Y-129367313D01*
X87189159Y-129353159D01*
X87245643Y-129284333D01*
X87287614Y-129205810D01*
X87307444Y-129140438D01*
X87313460Y-129120608D01*
X87322187Y-129032001D01*
X87320000Y-129009796D01*
X87320000Y-127646076D01*
X89501000Y-127646076D01*
X89501000Y-127877924D01*
X89546231Y-128105318D01*
X89634956Y-128319519D01*
X89763764Y-128512294D01*
X89851000Y-128599530D01*
X89851000Y-129464470D01*
X89763764Y-129551706D01*
X89634956Y-129744481D01*
X89546231Y-129958682D01*
X89501000Y-130186076D01*
X89501000Y-130417924D01*
X89546231Y-130645318D01*
X89634956Y-130859519D01*
X89763764Y-131052294D01*
X89927706Y-131216236D01*
X90120481Y-131345044D01*
X90334682Y-131433769D01*
X90562076Y-131479000D01*
X90793924Y-131479000D01*
X91021318Y-131433769D01*
X91235519Y-131345044D01*
X91428294Y-131216236D01*
X91592236Y-131052294D01*
X91721044Y-130859519D01*
X91809769Y-130645318D01*
X91855000Y-130417924D01*
X91855000Y-130186076D01*
X99661000Y-130186076D01*
X99661000Y-130417924D01*
X99706231Y-130645318D01*
X99794956Y-130859519D01*
X99923764Y-131052294D01*
X100087706Y-131216236D01*
X100280481Y-131345044D01*
X100494682Y-131433769D01*
X100722076Y-131479000D01*
X100953924Y-131479000D01*
X101181318Y-131433769D01*
X101395519Y-131345044D01*
X101588294Y-131216236D01*
X101752236Y-131052294D01*
X101881044Y-130859519D01*
X101969769Y-130645318D01*
X102015000Y-130417924D01*
X102015000Y-130186076D01*
X102201000Y-130186076D01*
X102201000Y-130417924D01*
X102246231Y-130645318D01*
X102334956Y-130859519D01*
X102463764Y-131052294D01*
X102627706Y-131216236D01*
X102820481Y-131345044D01*
X103034682Y-131433769D01*
X103262076Y-131479000D01*
X103493924Y-131479000D01*
X103721318Y-131433769D01*
X103935519Y-131345044D01*
X104128294Y-131216236D01*
X104292236Y-131052294D01*
X104421044Y-130859519D01*
X104509769Y-130645318D01*
X104555000Y-130417924D01*
X104555000Y-130186076D01*
X104741000Y-130186076D01*
X104741000Y-130417924D01*
X104786231Y-130645318D01*
X104874956Y-130859519D01*
X105003764Y-131052294D01*
X105167706Y-131216236D01*
X105360481Y-131345044D01*
X105574682Y-131433769D01*
X105802076Y-131479000D01*
X106033924Y-131479000D01*
X106261318Y-131433769D01*
X106475519Y-131345044D01*
X106668294Y-131216236D01*
X106832236Y-131052294D01*
X106961044Y-130859519D01*
X107049769Y-130645318D01*
X107095000Y-130417924D01*
X107095000Y-130186076D01*
X107281000Y-130186076D01*
X107281000Y-130417924D01*
X107326231Y-130645318D01*
X107414956Y-130859519D01*
X107543764Y-131052294D01*
X107707706Y-131216236D01*
X107900481Y-131345044D01*
X108114682Y-131433769D01*
X108342076Y-131479000D01*
X108573924Y-131479000D01*
X108801318Y-131433769D01*
X109015519Y-131345044D01*
X109208294Y-131216236D01*
X109372236Y-131052294D01*
X109501044Y-130859519D01*
X109589769Y-130645318D01*
X109635000Y-130417924D01*
X109635000Y-130186076D01*
X109589769Y-129958682D01*
X109501044Y-129744481D01*
X109372236Y-129551706D01*
X109208294Y-129387764D01*
X109015519Y-129258956D01*
X108801318Y-129170231D01*
X108573924Y-129125000D01*
X108342076Y-129125000D01*
X108114682Y-129170231D01*
X107900481Y-129258956D01*
X107707706Y-129387764D01*
X107543764Y-129551706D01*
X107414956Y-129744481D01*
X107326231Y-129958682D01*
X107281000Y-130186076D01*
X107095000Y-130186076D01*
X107049769Y-129958682D01*
X106961044Y-129744481D01*
X106832236Y-129551706D01*
X106668294Y-129387764D01*
X106475519Y-129258956D01*
X106261318Y-129170231D01*
X106033924Y-129125000D01*
X105802076Y-129125000D01*
X105574682Y-129170231D01*
X105360481Y-129258956D01*
X105167706Y-129387764D01*
X105003764Y-129551706D01*
X104874956Y-129744481D01*
X104786231Y-129958682D01*
X104741000Y-130186076D01*
X104555000Y-130186076D01*
X104509769Y-129958682D01*
X104421044Y-129744481D01*
X104292236Y-129551706D01*
X104128294Y-129387764D01*
X103935519Y-129258956D01*
X103721318Y-129170231D01*
X103493924Y-129125000D01*
X103262076Y-129125000D01*
X103034682Y-129170231D01*
X102820481Y-129258956D01*
X102627706Y-129387764D01*
X102463764Y-129551706D01*
X102334956Y-129744481D01*
X102246231Y-129958682D01*
X102201000Y-130186076D01*
X102015000Y-130186076D01*
X101969769Y-129958682D01*
X101881044Y-129744481D01*
X101752236Y-129551706D01*
X101588294Y-129387764D01*
X101395519Y-129258956D01*
X101181318Y-129170231D01*
X100953924Y-129125000D01*
X100722076Y-129125000D01*
X100494682Y-129170231D01*
X100280481Y-129258956D01*
X100087706Y-129387764D01*
X99923764Y-129551706D01*
X99794956Y-129744481D01*
X99706231Y-129958682D01*
X99661000Y-130186076D01*
X91855000Y-130186076D01*
X91809769Y-129958682D01*
X91721044Y-129744481D01*
X91592236Y-129551706D01*
X91505000Y-129464470D01*
X91505000Y-128599530D01*
X91592236Y-128512294D01*
X91721044Y-128319519D01*
X91809769Y-128105318D01*
X91855000Y-127877924D01*
X91855000Y-127646076D01*
X91809769Y-127418682D01*
X91721044Y-127204481D01*
X91592236Y-127011706D01*
X91505000Y-126924470D01*
X91505000Y-126912000D01*
X99659418Y-126912000D01*
X99659418Y-128612000D01*
X99665732Y-128676103D01*
X99684430Y-128737743D01*
X99714794Y-128794550D01*
X99755657Y-128844343D01*
X99805450Y-128885206D01*
X99862257Y-128915570D01*
X99923897Y-128934268D01*
X99988000Y-128940582D01*
X101688000Y-128940582D01*
X101752103Y-128934268D01*
X101813743Y-128915570D01*
X101870550Y-128885206D01*
X101920343Y-128844343D01*
X101961206Y-128794550D01*
X101991570Y-128737743D01*
X102010268Y-128676103D01*
X102016582Y-128612000D01*
X102016582Y-127646076D01*
X102201000Y-127646076D01*
X102201000Y-127877924D01*
X102246231Y-128105318D01*
X102334956Y-128319519D01*
X102463764Y-128512294D01*
X102627706Y-128676236D01*
X102820481Y-128805044D01*
X103034682Y-128893769D01*
X103262076Y-128939000D01*
X103493924Y-128939000D01*
X103721318Y-128893769D01*
X103935519Y-128805044D01*
X104128294Y-128676236D01*
X104292236Y-128512294D01*
X104421044Y-128319519D01*
X104509769Y-128105318D01*
X104555000Y-127877924D01*
X104555000Y-127646076D01*
X104741000Y-127646076D01*
X104741000Y-127877924D01*
X104786231Y-128105318D01*
X104874956Y-128319519D01*
X105003764Y-128512294D01*
X105167706Y-128676236D01*
X105360481Y-128805044D01*
X105574682Y-128893769D01*
X105802076Y-128939000D01*
X106033924Y-128939000D01*
X106261318Y-128893769D01*
X106475519Y-128805044D01*
X106668294Y-128676236D01*
X106832236Y-128512294D01*
X106961044Y-128319519D01*
X107049769Y-128105318D01*
X107095000Y-127877924D01*
X107095000Y-127646076D01*
X107281000Y-127646076D01*
X107281000Y-127877924D01*
X107326231Y-128105318D01*
X107414956Y-128319519D01*
X107543764Y-128512294D01*
X107707706Y-128676236D01*
X107900481Y-128805044D01*
X108114682Y-128893769D01*
X108342076Y-128939000D01*
X108573924Y-128939000D01*
X108801318Y-128893769D01*
X109015519Y-128805044D01*
X109208294Y-128676236D01*
X109372236Y-128512294D01*
X109501044Y-128319519D01*
X109589769Y-128105318D01*
X109635000Y-127877924D01*
X109635000Y-127646076D01*
X109589769Y-127418682D01*
X109501044Y-127204481D01*
X109372236Y-127011706D01*
X109208294Y-126847764D01*
X109015519Y-126718956D01*
X108801318Y-126630231D01*
X108573924Y-126585000D01*
X108342076Y-126585000D01*
X108114682Y-126630231D01*
X107900481Y-126718956D01*
X107707706Y-126847764D01*
X107543764Y-127011706D01*
X107414956Y-127204481D01*
X107326231Y-127418682D01*
X107281000Y-127646076D01*
X107095000Y-127646076D01*
X107049769Y-127418682D01*
X106961044Y-127204481D01*
X106832236Y-127011706D01*
X106668294Y-126847764D01*
X106475519Y-126718956D01*
X106261318Y-126630231D01*
X106033924Y-126585000D01*
X105802076Y-126585000D01*
X105574682Y-126630231D01*
X105360481Y-126718956D01*
X105167706Y-126847764D01*
X105003764Y-127011706D01*
X104874956Y-127204481D01*
X104786231Y-127418682D01*
X104741000Y-127646076D01*
X104555000Y-127646076D01*
X104509769Y-127418682D01*
X104421044Y-127204481D01*
X104292236Y-127011706D01*
X104128294Y-126847764D01*
X103935519Y-126718956D01*
X103721318Y-126630231D01*
X103493924Y-126585000D01*
X103262076Y-126585000D01*
X103034682Y-126630231D01*
X102820481Y-126718956D01*
X102627706Y-126847764D01*
X102463764Y-127011706D01*
X102334956Y-127204481D01*
X102246231Y-127418682D01*
X102201000Y-127646076D01*
X102016582Y-127646076D01*
X102016582Y-126912000D01*
X102010268Y-126847897D01*
X101991570Y-126786257D01*
X101961206Y-126729450D01*
X101920343Y-126679657D01*
X101870550Y-126638794D01*
X101813743Y-126608430D01*
X101752103Y-126589732D01*
X101688000Y-126583418D01*
X99988000Y-126583418D01*
X99923897Y-126589732D01*
X99862257Y-126608430D01*
X99805450Y-126638794D01*
X99755657Y-126679657D01*
X99714794Y-126729450D01*
X99684430Y-126786257D01*
X99665732Y-126847897D01*
X99659418Y-126912000D01*
X91505000Y-126912000D01*
X91505000Y-126199553D01*
X92290554Y-125414000D01*
X112687447Y-125414000D01*
X112711000Y-125437554D01*
X112711000Y-126924470D01*
X112623764Y-127011706D01*
X112494956Y-127204481D01*
X112406231Y-127418682D01*
X112361000Y-127646076D01*
X112361000Y-127877924D01*
X112406231Y-128105318D01*
X112494956Y-128319519D01*
X112623764Y-128512294D01*
X112711001Y-128599531D01*
X112711001Y-129464469D01*
X112623764Y-129551706D01*
X112494956Y-129744481D01*
X112406231Y-129958682D01*
X112361000Y-130186076D01*
X112361000Y-130417924D01*
X112406231Y-130645318D01*
X112494956Y-130859519D01*
X112623764Y-131052294D01*
X112787706Y-131216236D01*
X112980481Y-131345044D01*
X113194682Y-131433769D01*
X113422076Y-131479000D01*
X113653924Y-131479000D01*
X113881318Y-131433769D01*
X114095519Y-131345044D01*
X114288294Y-131216236D01*
X114452236Y-131052294D01*
X114581044Y-130859519D01*
X114669769Y-130645318D01*
X114715000Y-130417924D01*
X114715000Y-130186076D01*
X114669769Y-129958682D01*
X114581044Y-129744481D01*
X114452236Y-129551706D01*
X114365000Y-129464470D01*
X114365000Y-128599530D01*
X114452236Y-128512294D01*
X114581044Y-128319519D01*
X114669769Y-128105318D01*
X114715000Y-127877924D01*
X114715000Y-127646076D01*
X114669769Y-127418682D01*
X114581044Y-127204481D01*
X114452236Y-127011706D01*
X114365000Y-126924470D01*
X114365000Y-125135610D01*
X114369000Y-125094999D01*
X114365000Y-125054388D01*
X114365000Y-125054376D01*
X114353034Y-124932880D01*
X114305745Y-124776990D01*
X114304093Y-124773900D01*
X114228951Y-124633319D01*
X114151502Y-124538948D01*
X114151501Y-124538947D01*
X114125606Y-124507394D01*
X114094054Y-124481500D01*
X113643505Y-124030952D01*
X113617606Y-123999394D01*
X113491679Y-123896048D01*
X113348010Y-123819255D01*
X113192120Y-123771966D01*
X113070624Y-123760000D01*
X113070614Y-123760000D01*
X113030000Y-123756000D01*
X112989386Y-123760000D01*
X91988613Y-123760000D01*
X91947999Y-123756000D01*
X91907385Y-123760000D01*
X91907376Y-123760000D01*
X91785880Y-123771966D01*
X91629990Y-123819255D01*
X91596292Y-123837267D01*
X91486319Y-123896048D01*
X91397748Y-123968738D01*
X91360394Y-123999394D01*
X91334499Y-124030947D01*
X90121948Y-125243499D01*
X90090395Y-125269394D01*
X90064500Y-125300947D01*
X90064498Y-125300949D01*
X89987048Y-125395321D01*
X89910256Y-125538990D01*
X89862967Y-125694880D01*
X89847000Y-125857000D01*
X89851001Y-125897624D01*
X89851001Y-126924469D01*
X89763764Y-127011706D01*
X89634956Y-127204481D01*
X89546231Y-127418682D01*
X89501000Y-127646076D01*
X87320000Y-127646076D01*
X87320000Y-127480221D01*
X88391574Y-126408648D01*
X88393130Y-126409167D01*
X88428994Y-126422284D01*
X88457314Y-126426688D01*
X88465572Y-126428573D01*
X88493010Y-126436896D01*
X88531012Y-126440639D01*
X88568876Y-126445444D01*
X88597466Y-126443436D01*
X88605955Y-126443436D01*
X88634545Y-126445444D01*
X88672411Y-126440639D01*
X88710412Y-126436896D01*
X88737847Y-126428574D01*
X88746112Y-126426687D01*
X88774428Y-126422284D01*
X88810286Y-126409170D01*
X88846497Y-126397066D01*
X88871382Y-126382853D01*
X88879027Y-126379172D01*
X88905662Y-126368574D01*
X88937692Y-126347816D01*
X88970302Y-126327958D01*
X88986344Y-126313213D01*
X89012913Y-126291407D01*
X89027795Y-126279539D01*
X89030072Y-126277325D01*
X89032526Y-126275311D01*
X89045982Y-126261855D01*
X89075632Y-126233025D01*
X89077446Y-126230391D01*
X89189466Y-126118371D01*
X89192096Y-126116560D01*
X89220890Y-126086947D01*
X89234384Y-126073453D01*
X89236403Y-126070993D01*
X89238610Y-126068723D01*
X89250461Y-126053862D01*
X89272279Y-126027276D01*
X89287029Y-126011230D01*
X89306887Y-125978620D01*
X89327645Y-125946590D01*
X89338243Y-125919955D01*
X89341925Y-125912308D01*
X89356137Y-125887425D01*
X89368238Y-125851220D01*
X89381355Y-125815356D01*
X89385759Y-125787036D01*
X89387644Y-125778778D01*
X89395967Y-125751340D01*
X89399710Y-125713338D01*
X89404515Y-125675474D01*
X89402507Y-125646884D01*
X89402507Y-125638394D01*
X89404515Y-125609804D01*
X89399709Y-125571937D01*
X89395967Y-125533939D01*
X89387645Y-125506504D01*
X89385759Y-125498242D01*
X89381355Y-125469922D01*
X89368238Y-125434058D01*
X89356137Y-125397853D01*
X89341925Y-125372970D01*
X89338246Y-125365330D01*
X89327649Y-125338695D01*
X89315807Y-125320423D01*
X89319651Y-125320044D01*
X89347086Y-125311722D01*
X89355351Y-125309835D01*
X89383667Y-125305432D01*
X89419527Y-125292317D01*
X89455736Y-125280214D01*
X89480621Y-125266001D01*
X89488275Y-125262315D01*
X89514908Y-125251718D01*
X89546930Y-125230964D01*
X89579541Y-125211106D01*
X89595590Y-125196354D01*
X89622180Y-125174532D01*
X89637041Y-125162680D01*
X89639309Y-125160474D01*
X89641765Y-125158459D01*
X89655255Y-125144969D01*
X89684877Y-125116165D01*
X89686686Y-125113538D01*
X92160020Y-122640202D01*
X92160024Y-122640197D01*
X95532213Y-119268010D01*
X97190170Y-119268010D01*
X97239004Y-119300640D01*
X97353111Y-119347905D01*
X97474246Y-119372000D01*
X97597754Y-119372000D01*
X97718889Y-119347905D01*
X97832996Y-119300640D01*
X97935689Y-119232023D01*
X98023023Y-119144689D01*
X98091640Y-119041996D01*
X98138905Y-118927889D01*
X98163000Y-118806754D01*
X98163000Y-118683246D01*
X98138905Y-118562111D01*
X98091640Y-118448004D01*
X98082951Y-118435000D01*
X109407142Y-118435000D01*
X109409938Y-118449058D01*
X109464741Y-118581364D01*
X109544302Y-118700436D01*
X109645564Y-118801698D01*
X109764636Y-118881259D01*
X109896942Y-118936062D01*
X110037397Y-118964000D01*
X110180603Y-118964000D01*
X110321058Y-118936062D01*
X110453364Y-118881259D01*
X110572436Y-118801698D01*
X110673698Y-118700436D01*
X110753259Y-118581364D01*
X110808062Y-118449058D01*
X110836000Y-118308603D01*
X110836000Y-118165397D01*
X110808062Y-118024942D01*
X110753259Y-117892636D01*
X110673698Y-117773564D01*
X110572436Y-117672302D01*
X110453364Y-117592741D01*
X110321058Y-117537938D01*
X110180603Y-117510000D01*
X110037397Y-117510000D01*
X109913734Y-117534598D01*
X109877205Y-117531000D01*
X109855000Y-117528813D01*
X109832795Y-117531000D01*
X103467063Y-117531000D01*
X103514259Y-117460366D01*
X103569062Y-117328060D01*
X103597000Y-117187605D01*
X103597000Y-117044399D01*
X103569062Y-116903944D01*
X103514259Y-116771638D01*
X103434698Y-116652566D01*
X103333436Y-116551304D01*
X103214364Y-116471743D01*
X103082058Y-116416940D01*
X102941603Y-116389002D01*
X102798397Y-116389002D01*
X102657942Y-116416940D01*
X102525636Y-116471743D01*
X102406564Y-116551304D01*
X102315868Y-116642000D01*
X97342224Y-116642000D01*
X96228317Y-115528093D01*
X96231000Y-115514603D01*
X96231000Y-115371397D01*
X96203062Y-115230942D01*
X96148259Y-115098636D01*
X96068698Y-114979564D01*
X95967436Y-114878302D01*
X95848364Y-114798741D01*
X95716058Y-114743938D01*
X95575603Y-114716000D01*
X95432397Y-114716000D01*
X95291942Y-114743938D01*
X95159636Y-114798741D01*
X95040564Y-114878302D01*
X94939302Y-114979564D01*
X94859741Y-115098636D01*
X94804938Y-115230942D01*
X94777000Y-115371397D01*
X94777000Y-115514603D01*
X94779683Y-115528092D01*
X91771096Y-118536681D01*
X91753842Y-118550841D01*
X91701482Y-118614642D01*
X91697358Y-118619667D01*
X91655386Y-118698191D01*
X91629540Y-118783393D01*
X91620813Y-118872000D01*
X91623001Y-118894215D01*
X91623000Y-119895694D01*
X90602937Y-120915759D01*
X90602932Y-120915763D01*
X90066478Y-121452220D01*
X90044436Y-121437935D01*
X90017810Y-121427341D01*
X89990296Y-121414091D01*
X89965406Y-121399876D01*
X89929206Y-121387777D01*
X89893349Y-121374663D01*
X89865023Y-121370258D01*
X89835268Y-121363467D01*
X89807845Y-121355148D01*
X89769842Y-121351405D01*
X89731962Y-121346598D01*
X89703377Y-121348606D01*
X89672857Y-121348606D01*
X89644261Y-121346597D01*
X89606399Y-121351402D01*
X89568398Y-121355144D01*
X89540966Y-121363465D01*
X89511202Y-121370258D01*
X89482877Y-121374663D01*
X89447013Y-121387780D01*
X89410817Y-121399878D01*
X89385937Y-121414088D01*
X89358413Y-121427342D01*
X89331788Y-121437936D01*
X89299768Y-121458688D01*
X89267143Y-121478555D01*
X89246035Y-121497958D01*
X89242088Y-121501105D01*
X89239271Y-121502611D01*
X89207301Y-121528847D01*
X89192419Y-121540715D01*
X89190146Y-121542925D01*
X89187692Y-121544939D01*
X89174229Y-121558401D01*
X89169558Y-121562943D01*
X89167338Y-121564472D01*
X89156110Y-121576019D01*
X89144581Y-121587229D01*
X89143054Y-121589446D01*
X89138506Y-121594123D01*
X89125058Y-121607571D01*
X89123044Y-121610024D01*
X89120823Y-121612309D01*
X89108941Y-121627209D01*
X89082728Y-121659148D01*
X89081218Y-121661973D01*
X89078064Y-121665928D01*
X89058664Y-121687033D01*
X89038792Y-121719665D01*
X89018045Y-121751679D01*
X89007454Y-121778298D01*
X88994197Y-121805827D01*
X88979987Y-121830707D01*
X88967889Y-121866903D01*
X88954772Y-121902767D01*
X88950368Y-121931086D01*
X88943574Y-121960855D01*
X88935256Y-121988273D01*
X88931514Y-122026258D01*
X88926706Y-122064152D01*
X88928714Y-122092742D01*
X88928714Y-122123266D01*
X88926705Y-122151866D01*
X88931512Y-122189741D01*
X88932625Y-122201047D01*
X88921314Y-122199933D01*
X88883434Y-122195126D01*
X88854849Y-122197134D01*
X88824329Y-122197134D01*
X88795733Y-122195125D01*
X88757871Y-122199930D01*
X88719870Y-122203672D01*
X88692438Y-122211993D01*
X88662674Y-122218786D01*
X88634349Y-122223191D01*
X88598485Y-122236308D01*
X88562289Y-122248406D01*
X88537409Y-122262616D01*
X88509885Y-122275870D01*
X88483260Y-122286464D01*
X88451240Y-122307216D01*
X88418615Y-122327083D01*
X88397507Y-122346486D01*
X88393560Y-122349633D01*
X88390743Y-122351139D01*
X88358773Y-122377375D01*
X88343891Y-122389243D01*
X88341618Y-122391453D01*
X88339164Y-122393467D01*
X88325707Y-122406924D01*
X88321030Y-122411471D01*
X88318810Y-122413000D01*
X88307582Y-122424547D01*
X88296053Y-122435757D01*
X88294526Y-122437974D01*
X88289978Y-122442651D01*
X88276530Y-122456099D01*
X88274516Y-122458552D01*
X88272295Y-122460837D01*
X88260413Y-122475737D01*
X88234200Y-122507676D01*
X88232690Y-122510501D01*
X88229536Y-122514456D01*
X88210136Y-122535561D01*
X88190264Y-122568193D01*
X88169517Y-122600207D01*
X88158926Y-122626826D01*
X88145669Y-122654355D01*
X88131459Y-122679235D01*
X88119361Y-122715431D01*
X88106244Y-122751295D01*
X88101840Y-122779614D01*
X88095046Y-122809383D01*
X88086728Y-122836801D01*
X88082986Y-122874786D01*
X88078178Y-122912680D01*
X88080186Y-122941270D01*
X88080186Y-122971794D01*
X88078177Y-123000394D01*
X88082984Y-123038269D01*
X88086724Y-123076248D01*
X88095045Y-123103679D01*
X88101840Y-123133450D01*
X88106243Y-123161764D01*
X88119358Y-123197625D01*
X88131463Y-123233837D01*
X88145675Y-123258720D01*
X88158921Y-123286225D01*
X88169521Y-123312865D01*
X88190288Y-123344907D01*
X88210135Y-123377500D01*
X88229534Y-123398605D01*
X88232690Y-123402562D01*
X88234196Y-123405379D01*
X88260448Y-123437368D01*
X88272303Y-123452232D01*
X88274510Y-123454501D01*
X88276525Y-123456957D01*
X88277576Y-123458008D01*
X88248750Y-123460847D01*
X88221311Y-123469171D01*
X88191560Y-123475961D01*
X88163238Y-123480366D01*
X88127369Y-123493484D01*
X88091170Y-123505584D01*
X88066290Y-123519795D01*
X88038774Y-123533045D01*
X88012149Y-123543639D01*
X87980129Y-123564391D01*
X87947504Y-123584258D01*
X87926396Y-123603661D01*
X87922450Y-123606807D01*
X87919624Y-123608318D01*
X87887600Y-123634599D01*
X87872780Y-123646418D01*
X87870512Y-123648623D01*
X87868046Y-123650647D01*
X87854534Y-123664159D01*
X87824942Y-123692932D01*
X87823130Y-123695563D01*
X85294096Y-126224600D01*
X85276842Y-126238760D01*
X85231084Y-126294516D01*
X85220358Y-126307586D01*
X85178386Y-126386110D01*
X85152540Y-126471312D01*
X85143813Y-126559919D01*
X85146001Y-126582134D01*
X85146001Y-126675248D01*
X85040481Y-126718956D01*
X84847706Y-126847764D01*
X84683764Y-127011706D01*
X84554956Y-127204481D01*
X84466231Y-127418682D01*
X84421000Y-127646076D01*
X84235000Y-127646076D01*
X84189769Y-127418682D01*
X84101044Y-127204481D01*
X83972236Y-127011706D01*
X83808294Y-126847764D01*
X83615519Y-126718956D01*
X83401318Y-126630231D01*
X83173924Y-126585000D01*
X82942076Y-126585000D01*
X82714682Y-126630231D01*
X82500481Y-126718956D01*
X82307706Y-126847764D01*
X82143764Y-127011706D01*
X82014956Y-127204481D01*
X81926231Y-127418682D01*
X81881000Y-127646076D01*
X81695000Y-127646076D01*
X81649769Y-127418682D01*
X81561044Y-127204481D01*
X81432236Y-127011706D01*
X81268294Y-126847764D01*
X81075519Y-126718956D01*
X80861318Y-126630231D01*
X80633924Y-126585000D01*
X80402076Y-126585000D01*
X80174682Y-126630231D01*
X79960481Y-126718956D01*
X79767706Y-126847764D01*
X79603764Y-127011706D01*
X79474956Y-127204481D01*
X79386231Y-127418682D01*
X79341000Y-127646076D01*
X79156582Y-127646076D01*
X79156582Y-126912000D01*
X79150268Y-126847897D01*
X79131570Y-126786257D01*
X79101206Y-126729450D01*
X79060343Y-126679657D01*
X79010550Y-126638794D01*
X78953743Y-126608430D01*
X78892103Y-126589732D01*
X78828000Y-126583418D01*
X77128000Y-126583418D01*
X77063897Y-126589732D01*
X77002257Y-126608430D01*
X76945450Y-126638794D01*
X76895657Y-126679657D01*
X76854794Y-126729450D01*
X76824430Y-126786257D01*
X76805732Y-126847897D01*
X76799418Y-126912000D01*
X76064000Y-126912000D01*
X76064000Y-105173944D01*
X76115872Y-104644921D01*
X76264297Y-104153313D01*
X76505384Y-103699892D01*
X76829951Y-103301935D01*
X77225629Y-102974602D01*
X77677353Y-102730356D01*
X78167914Y-102578502D01*
X78695929Y-102523005D01*
X78697705Y-102522999D01*
X85715023Y-102522999D01*
X85715658Y-102522936D01*
X85719224Y-102522924D01*
X85735182Y-102521303D01*
X85751207Y-102521415D01*
X85756307Y-102520916D01*
X86338596Y-102459715D01*
X86371210Y-102453021D01*
X86403854Y-102446793D01*
X86408752Y-102445314D01*
X86408759Y-102445313D01*
X86408765Y-102445310D01*
X86968072Y-102272176D01*
X86998788Y-102259265D01*
X87029577Y-102246825D01*
X87034092Y-102244425D01*
X87034101Y-102244421D01*
X87034108Y-102244416D01*
X87549134Y-101965943D01*
X87576737Y-101947324D01*
X87604542Y-101929129D01*
X87608513Y-101925891D01*
X88059648Y-101552680D01*
X88083114Y-101529050D01*
X88106851Y-101505805D01*
X88110118Y-101501857D01*
X88480169Y-101048129D01*
X88498611Y-101020372D01*
X88517368Y-100992977D01*
X88519806Y-100988470D01*
X88794680Y-100471507D01*
X88807377Y-100440702D01*
X88820459Y-100410180D01*
X88821970Y-100405299D01*
X88821975Y-100405286D01*
X88821977Y-100405273D01*
X88991201Y-99844778D01*
X88997663Y-99812145D01*
X89004578Y-99779612D01*
X89005112Y-99774527D01*
X89005114Y-99774516D01*
X89005114Y-99774506D01*
X89062248Y-99191814D01*
X89062248Y-99191810D01*
X89064000Y-99174022D01*
X89064000Y-90173956D01*
X89115871Y-89644925D01*
X89264298Y-89153315D01*
X89505383Y-88699897D01*
X89829951Y-88301937D01*
X90225629Y-87974604D01*
X90677356Y-87730356D01*
X91167914Y-87578503D01*
X91695929Y-87523006D01*
X91697705Y-87523000D01*
X99679065Y-87523000D01*
X100208078Y-87574871D01*
G37*
%TD.AperFunction*%
%TD*%
M02*
