%TF.GenerationSoftware,KiCad,Pcbnew,(5.1.8)-1*%
%TF.CreationDate,2021-03-12T16:01:59+08:00*%
%TF.ProjectId,PModCamera,504d6f64-4361-46d6-9572-612e6b696361,rev?*%
%TF.SameCoordinates,Original*%
%TF.FileFunction,Copper,L1,Top*%
%TF.FilePolarity,Positive*%
%FSLAX46Y46*%
G04 Gerber Fmt 4.6, Leading zero omitted, Abs format (unit mm)*
G04 Created by KiCad (PCBNEW (5.1.8)-1) date 2021-03-12 16:01:59*
%MOMM*%
%LPD*%
G01*
G04 APERTURE LIST*
%TA.AperFunction,SMDPad,CuDef*%
%ADD10R,2.300000X3.100000*%
%TD*%
%TA.AperFunction,SMDPad,CuDef*%
%ADD11R,0.300000X1.100000*%
%TD*%
%TA.AperFunction,SMDPad,CuDef*%
%ADD12C,0.100000*%
%TD*%
%TA.AperFunction,SMDPad,CuDef*%
%ADD13R,0.900000X1.300000*%
%TD*%
%TA.AperFunction,ComponentPad*%
%ADD14O,1.700000X1.700000*%
%TD*%
%TA.AperFunction,ComponentPad*%
%ADD15R,1.700000X1.700000*%
%TD*%
%TA.AperFunction,SMDPad,CuDef*%
%ADD16R,1.200000X1.400000*%
%TD*%
%TA.AperFunction,ViaPad*%
%ADD17C,0.800000*%
%TD*%
%TA.AperFunction,Conductor*%
%ADD18C,0.250000*%
%TD*%
%TA.AperFunction,Conductor*%
%ADD19C,1.000000*%
%TD*%
%TA.AperFunction,Conductor*%
%ADD20C,1.275000*%
%TD*%
%TA.AperFunction,Conductor*%
%ADD21C,0.254000*%
%TD*%
%TA.AperFunction,Conductor*%
%ADD22C,0.100000*%
%TD*%
G04 APERTURE END LIST*
D10*
%TO.P,J1,MP*%
%TO.N,GND*%
X87830000Y-114966000D03*
X103670000Y-114966000D03*
D11*
%TO.P,J1,24*%
%TO.N,Net-(J1-Pad24)*%
X89500000Y-116666000D03*
%TO.P,J1,23*%
%TO.N,GND*%
X90000000Y-116666000D03*
%TO.P,J1,22*%
%TO.N,/OV1_SDA*%
X90500000Y-116666000D03*
%TO.P,J1,21*%
%TO.N,+2V8*%
X91000000Y-116666000D03*
%TO.P,J1,20*%
%TO.N,/OV1_SCL*%
X91500000Y-116666000D03*
%TO.P,J1,19*%
%TO.N,/OV1_RESET*%
X92000000Y-116666000D03*
%TO.P,J1,18*%
%TO.N,/OV1_VSYNC*%
X92500000Y-116666000D03*
%TO.P,J1,17*%
%TO.N,/OV1_PWDN*%
X93000000Y-116666000D03*
%TO.P,J1,16*%
%TO.N,/OV1_HREF*%
X93500000Y-116666000D03*
%TO.P,J1,15*%
%TO.N,+1V5*%
X94000000Y-116666000D03*
%TO.P,J1,14*%
%TO.N,+2V8*%
X94500000Y-116666000D03*
%TO.P,J1,13*%
%TO.N,/OV1_D7*%
X95000000Y-116666000D03*
%TO.P,J1,12*%
%TO.N,/OV1_XCLK*%
X95500000Y-116666000D03*
%TO.P,J1,11*%
%TO.N,/OV1_D6*%
X96000000Y-116666000D03*
%TO.P,J1,10*%
%TO.N,GND*%
X96500000Y-116666000D03*
%TO.P,J1,9*%
%TO.N,/OV1_D5*%
X97000000Y-116666000D03*
%TO.P,J1,8*%
%TO.N,/OV1_PCLK*%
X97500000Y-116666000D03*
%TO.P,J1,7*%
%TO.N,/OV1_D4*%
X98000000Y-116666000D03*
%TO.P,J1,6*%
%TO.N,/OV1_D0*%
X98500000Y-116666000D03*
%TO.P,J1,5*%
%TO.N,/OV1_D3*%
X99000000Y-116666000D03*
%TO.P,J1,4*%
%TO.N,/OV1_D1*%
X99500000Y-116666000D03*
%TO.P,J1,3*%
%TO.N,/OV1_D2*%
X100000000Y-116666000D03*
%TO.P,J1,2*%
%TO.N,+2V8*%
X100500000Y-116666000D03*
%TO.P,J1,1*%
%TO.N,GND*%
X101000000Y-116666000D03*
%TD*%
%TA.AperFunction,SMDPad,CuDef*%
D12*
%TO.P,U2,2*%
%TO.N,+1V5*%
G36*
X112753500Y-120978500D02*
G01*
X112753500Y-124103500D01*
X112337000Y-124103500D01*
X112337000Y-125578500D01*
X111437000Y-125578500D01*
X111437000Y-124103500D01*
X111020500Y-124103500D01*
X111020500Y-120978500D01*
X112753500Y-120978500D01*
G37*
%TD.AperFunction*%
D13*
%TO.P,U2,3*%
%TO.N,+3V3*%
X113387000Y-124928500D03*
%TO.P,U2,1*%
%TO.N,GND*%
X110387000Y-124928500D03*
%TD*%
%TA.AperFunction,SMDPad,CuDef*%
D12*
%TO.P,U1,2*%
%TO.N,+3V3*%
G36*
X112880500Y-109714000D02*
G01*
X112880500Y-112839000D01*
X112464000Y-112839000D01*
X112464000Y-114314000D01*
X111564000Y-114314000D01*
X111564000Y-112839000D01*
X111147500Y-112839000D01*
X111147500Y-109714000D01*
X112880500Y-109714000D01*
G37*
%TD.AperFunction*%
D13*
%TO.P,U1,3*%
%TO.N,+2V8*%
X113514000Y-113664000D03*
%TO.P,U1,1*%
%TO.N,GND*%
X110514000Y-113664000D03*
%TD*%
D14*
%TO.P,J2,12*%
%TO.N,+3V3*%
X113538000Y-130302000D03*
%TO.P,J2,11*%
X113538000Y-127762000D03*
%TO.P,J2,10*%
%TO.N,GND*%
X110998000Y-130302000D03*
%TO.P,J2,9*%
X110998000Y-127762000D03*
%TO.P,J2,8*%
%TO.N,/OV1_D1*%
X108458000Y-130302000D03*
%TO.P,J2,7*%
%TO.N,/OV1_D2*%
X108458000Y-127762000D03*
%TO.P,J2,6*%
%TO.N,/OV1_D0*%
X105918000Y-130302000D03*
%TO.P,J2,5*%
%TO.N,/OV1_D3*%
X105918000Y-127762000D03*
%TO.P,J2,4*%
%TO.N,/OV1_D5*%
X103378000Y-130302000D03*
%TO.P,J2,3*%
%TO.N,/OV1_D4*%
X103378000Y-127762000D03*
%TO.P,J2,2*%
%TO.N,/OV1_D7*%
X100838000Y-130302000D03*
D15*
%TO.P,J2,1*%
%TO.N,/OV1_D6*%
X100838000Y-127762000D03*
%TD*%
D14*
%TO.P,J3,12*%
%TO.N,+3V3*%
X90678000Y-130302000D03*
%TO.P,J3,11*%
X90678000Y-127762000D03*
%TO.P,J3,10*%
%TO.N,GND*%
X88138000Y-130302000D03*
%TO.P,J3,9*%
X88138000Y-127762000D03*
%TO.P,J3,8*%
%TO.N,/OV1_PCLK*%
X85598000Y-130302000D03*
%TO.P,J3,7*%
%TO.N,/OV1_XCLK*%
X85598000Y-127762000D03*
%TO.P,J3,6*%
%TO.N,/OV1_HREF*%
X83058000Y-130302000D03*
%TO.P,J3,5*%
%TO.N,/OV1_PWDN*%
X83058000Y-127762000D03*
%TO.P,J3,4*%
%TO.N,/OV1_VSYNC*%
X80518000Y-130302000D03*
%TO.P,J3,3*%
%TO.N,/OV1_RESET*%
X80518000Y-127762000D03*
%TO.P,J3,2*%
%TO.N,/OV1_SCL*%
X77978000Y-130302000D03*
D15*
%TO.P,J3,1*%
%TO.N,/OV1_SDA*%
X77978000Y-127762000D03*
%TD*%
D16*
%TO.P,X1,4*%
%TO.N,+2V8*%
X108265000Y-116783000D03*
%TO.P,X1,3*%
%TO.N,Net-(R10-Pad2)*%
X108265000Y-119183000D03*
%TO.P,X1,2*%
%TO.N,GND*%
X106365000Y-119183000D03*
%TO.P,X1,1*%
%TO.N,Net-(X1-Pad1)*%
X106365000Y-116783000D03*
%TD*%
%TO.P,R10,2*%
%TO.N,Net-(R10-Pad2)*%
%TA.AperFunction,SMDPad,CuDef*%
G36*
G01*
X104311000Y-118766000D02*
X104311000Y-118216000D01*
G75*
G02*
X104511000Y-118016000I200000J0D01*
G01*
X104911000Y-118016000D01*
G75*
G02*
X105111000Y-118216000I0J-200000D01*
G01*
X105111000Y-118766000D01*
G75*
G02*
X104911000Y-118966000I-200000J0D01*
G01*
X104511000Y-118966000D01*
G75*
G02*
X104311000Y-118766000I0J200000D01*
G01*
G37*
%TD.AperFunction*%
%TO.P,R10,1*%
%TO.N,/OV1_XCLK*%
%TA.AperFunction,SMDPad,CuDef*%
G36*
G01*
X102661000Y-118766000D02*
X102661000Y-118216000D01*
G75*
G02*
X102861000Y-118016000I200000J0D01*
G01*
X103261000Y-118016000D01*
G75*
G02*
X103461000Y-118216000I0J-200000D01*
G01*
X103461000Y-118766000D01*
G75*
G02*
X103261000Y-118966000I-200000J0D01*
G01*
X102861000Y-118966000D01*
G75*
G02*
X102661000Y-118766000I0J200000D01*
G01*
G37*
%TD.AperFunction*%
%TD*%
%TO.P,R9,2*%
%TO.N,Net-(D1-Pad2)*%
%TA.AperFunction,SMDPad,CuDef*%
G36*
G01*
X96025000Y-130075000D02*
X95475000Y-130075000D01*
G75*
G02*
X95275000Y-129875000I0J200000D01*
G01*
X95275000Y-129475000D01*
G75*
G02*
X95475000Y-129275000I200000J0D01*
G01*
X96025000Y-129275000D01*
G75*
G02*
X96225000Y-129475000I0J-200000D01*
G01*
X96225000Y-129875000D01*
G75*
G02*
X96025000Y-130075000I-200000J0D01*
G01*
G37*
%TD.AperFunction*%
%TO.P,R9,1*%
%TO.N,+3V3*%
%TA.AperFunction,SMDPad,CuDef*%
G36*
G01*
X96025000Y-131725000D02*
X95475000Y-131725000D01*
G75*
G02*
X95275000Y-131525000I0J200000D01*
G01*
X95275000Y-131125000D01*
G75*
G02*
X95475000Y-130925000I200000J0D01*
G01*
X96025000Y-130925000D01*
G75*
G02*
X96225000Y-131125000I0J-200000D01*
G01*
X96225000Y-131525000D01*
G75*
G02*
X96025000Y-131725000I-200000J0D01*
G01*
G37*
%TD.AperFunction*%
%TD*%
%TO.P,R4,2*%
%TO.N,GND*%
%TA.AperFunction,SMDPad,CuDef*%
G36*
G01*
X104819000Y-110384000D02*
X104819000Y-109834000D01*
G75*
G02*
X105019000Y-109634000I200000J0D01*
G01*
X105419000Y-109634000D01*
G75*
G02*
X105619000Y-109834000I0J-200000D01*
G01*
X105619000Y-110384000D01*
G75*
G02*
X105419000Y-110584000I-200000J0D01*
G01*
X105019000Y-110584000D01*
G75*
G02*
X104819000Y-110384000I0J200000D01*
G01*
G37*
%TD.AperFunction*%
%TO.P,R4,1*%
%TO.N,/OV1_PWDN*%
%TA.AperFunction,SMDPad,CuDef*%
G36*
G01*
X103169000Y-110384000D02*
X103169000Y-109834000D01*
G75*
G02*
X103369000Y-109634000I200000J0D01*
G01*
X103769000Y-109634000D01*
G75*
G02*
X103969000Y-109834000I0J-200000D01*
G01*
X103969000Y-110384000D01*
G75*
G02*
X103769000Y-110584000I-200000J0D01*
G01*
X103369000Y-110584000D01*
G75*
G02*
X103169000Y-110384000I0J200000D01*
G01*
G37*
%TD.AperFunction*%
%TD*%
%TO.P,R3,2*%
%TO.N,/OV1_RESET*%
%TA.AperFunction,SMDPad,CuDef*%
G36*
G01*
X103969000Y-108310000D02*
X103969000Y-108860000D01*
G75*
G02*
X103769000Y-109060000I-200000J0D01*
G01*
X103369000Y-109060000D01*
G75*
G02*
X103169000Y-108860000I0J200000D01*
G01*
X103169000Y-108310000D01*
G75*
G02*
X103369000Y-108110000I200000J0D01*
G01*
X103769000Y-108110000D01*
G75*
G02*
X103969000Y-108310000I0J-200000D01*
G01*
G37*
%TD.AperFunction*%
%TO.P,R3,1*%
%TO.N,+2V8*%
%TA.AperFunction,SMDPad,CuDef*%
G36*
G01*
X105619000Y-108310000D02*
X105619000Y-108860000D01*
G75*
G02*
X105419000Y-109060000I-200000J0D01*
G01*
X105019000Y-109060000D01*
G75*
G02*
X104819000Y-108860000I0J200000D01*
G01*
X104819000Y-108310000D01*
G75*
G02*
X105019000Y-108110000I200000J0D01*
G01*
X105419000Y-108110000D01*
G75*
G02*
X105619000Y-108310000I0J-200000D01*
G01*
G37*
%TD.AperFunction*%
%TD*%
%TO.P,R2,2*%
%TO.N,/OV1_SCL*%
%TA.AperFunction,SMDPad,CuDef*%
G36*
G01*
X103969000Y-106786000D02*
X103969000Y-107336000D01*
G75*
G02*
X103769000Y-107536000I-200000J0D01*
G01*
X103369000Y-107536000D01*
G75*
G02*
X103169000Y-107336000I0J200000D01*
G01*
X103169000Y-106786000D01*
G75*
G02*
X103369000Y-106586000I200000J0D01*
G01*
X103769000Y-106586000D01*
G75*
G02*
X103969000Y-106786000I0J-200000D01*
G01*
G37*
%TD.AperFunction*%
%TO.P,R2,1*%
%TO.N,+2V8*%
%TA.AperFunction,SMDPad,CuDef*%
G36*
G01*
X105619000Y-106786000D02*
X105619000Y-107336000D01*
G75*
G02*
X105419000Y-107536000I-200000J0D01*
G01*
X105019000Y-107536000D01*
G75*
G02*
X104819000Y-107336000I0J200000D01*
G01*
X104819000Y-106786000D01*
G75*
G02*
X105019000Y-106586000I200000J0D01*
G01*
X105419000Y-106586000D01*
G75*
G02*
X105619000Y-106786000I0J-200000D01*
G01*
G37*
%TD.AperFunction*%
%TD*%
%TO.P,R1,2*%
%TO.N,/OV1_SDA*%
%TA.AperFunction,SMDPad,CuDef*%
G36*
G01*
X103969000Y-104754000D02*
X103969000Y-105304000D01*
G75*
G02*
X103769000Y-105504000I-200000J0D01*
G01*
X103369000Y-105504000D01*
G75*
G02*
X103169000Y-105304000I0J200000D01*
G01*
X103169000Y-104754000D01*
G75*
G02*
X103369000Y-104554000I200000J0D01*
G01*
X103769000Y-104554000D01*
G75*
G02*
X103969000Y-104754000I0J-200000D01*
G01*
G37*
%TD.AperFunction*%
%TO.P,R1,1*%
%TO.N,+2V8*%
%TA.AperFunction,SMDPad,CuDef*%
G36*
G01*
X105619000Y-104754000D02*
X105619000Y-105304000D01*
G75*
G02*
X105419000Y-105504000I-200000J0D01*
G01*
X105019000Y-105504000D01*
G75*
G02*
X104819000Y-105304000I0J200000D01*
G01*
X104819000Y-104754000D01*
G75*
G02*
X105019000Y-104554000I200000J0D01*
G01*
X105419000Y-104554000D01*
G75*
G02*
X105619000Y-104754000I0J-200000D01*
G01*
G37*
%TD.AperFunction*%
%TD*%
%TO.P,D1,2*%
%TO.N,Net-(D1-Pad2)*%
%TA.AperFunction,SMDPad,CuDef*%
G36*
G01*
X95501750Y-127858000D02*
X96014250Y-127858000D01*
G75*
G02*
X96233000Y-128076750I0J-218750D01*
G01*
X96233000Y-128514250D01*
G75*
G02*
X96014250Y-128733000I-218750J0D01*
G01*
X95501750Y-128733000D01*
G75*
G02*
X95283000Y-128514250I0J218750D01*
G01*
X95283000Y-128076750D01*
G75*
G02*
X95501750Y-127858000I218750J0D01*
G01*
G37*
%TD.AperFunction*%
%TO.P,D1,1*%
%TO.N,GND*%
%TA.AperFunction,SMDPad,CuDef*%
G36*
G01*
X95501750Y-126283000D02*
X96014250Y-126283000D01*
G75*
G02*
X96233000Y-126501750I0J-218750D01*
G01*
X96233000Y-126939250D01*
G75*
G02*
X96014250Y-127158000I-218750J0D01*
G01*
X95501750Y-127158000D01*
G75*
G02*
X95283000Y-126939250I0J218750D01*
G01*
X95283000Y-126501750D01*
G75*
G02*
X95501750Y-126283000I218750J0D01*
G01*
G37*
%TD.AperFunction*%
%TD*%
%TO.P,C4,2*%
%TO.N,GND*%
%TA.AperFunction,SMDPad,CuDef*%
G36*
G01*
X112593000Y-119757000D02*
X112593000Y-119257000D01*
G75*
G02*
X112818000Y-119032000I225000J0D01*
G01*
X113268000Y-119032000D01*
G75*
G02*
X113493000Y-119257000I0J-225000D01*
G01*
X113493000Y-119757000D01*
G75*
G02*
X113268000Y-119982000I-225000J0D01*
G01*
X112818000Y-119982000D01*
G75*
G02*
X112593000Y-119757000I0J225000D01*
G01*
G37*
%TD.AperFunction*%
%TO.P,C4,1*%
%TO.N,+1V5*%
%TA.AperFunction,SMDPad,CuDef*%
G36*
G01*
X111043000Y-119757000D02*
X111043000Y-119257000D01*
G75*
G02*
X111268000Y-119032000I225000J0D01*
G01*
X111718000Y-119032000D01*
G75*
G02*
X111943000Y-119257000I0J-225000D01*
G01*
X111943000Y-119757000D01*
G75*
G02*
X111718000Y-119982000I-225000J0D01*
G01*
X111268000Y-119982000D01*
G75*
G02*
X111043000Y-119757000I0J225000D01*
G01*
G37*
%TD.AperFunction*%
%TD*%
%TO.P,C3,2*%
%TO.N,GND*%
%TA.AperFunction,SMDPad,CuDef*%
G36*
G01*
X112593000Y-118233000D02*
X112593000Y-117733000D01*
G75*
G02*
X112818000Y-117508000I225000J0D01*
G01*
X113268000Y-117508000D01*
G75*
G02*
X113493000Y-117733000I0J-225000D01*
G01*
X113493000Y-118233000D01*
G75*
G02*
X113268000Y-118458000I-225000J0D01*
G01*
X112818000Y-118458000D01*
G75*
G02*
X112593000Y-118233000I0J225000D01*
G01*
G37*
%TD.AperFunction*%
%TO.P,C3,1*%
%TO.N,+1V5*%
%TA.AperFunction,SMDPad,CuDef*%
G36*
G01*
X111043000Y-118233000D02*
X111043000Y-117733000D01*
G75*
G02*
X111268000Y-117508000I225000J0D01*
G01*
X111718000Y-117508000D01*
G75*
G02*
X111943000Y-117733000I0J-225000D01*
G01*
X111943000Y-118233000D01*
G75*
G02*
X111718000Y-118458000I-225000J0D01*
G01*
X111268000Y-118458000D01*
G75*
G02*
X111043000Y-118233000I0J225000D01*
G01*
G37*
%TD.AperFunction*%
%TD*%
%TO.P,C2,2*%
%TO.N,GND*%
%TA.AperFunction,SMDPad,CuDef*%
G36*
G01*
X113101000Y-107692000D02*
X113101000Y-107192000D01*
G75*
G02*
X113326000Y-106967000I225000J0D01*
G01*
X113776000Y-106967000D01*
G75*
G02*
X114001000Y-107192000I0J-225000D01*
G01*
X114001000Y-107692000D01*
G75*
G02*
X113776000Y-107917000I-225000J0D01*
G01*
X113326000Y-107917000D01*
G75*
G02*
X113101000Y-107692000I0J225000D01*
G01*
G37*
%TD.AperFunction*%
%TO.P,C2,1*%
%TO.N,+2V8*%
%TA.AperFunction,SMDPad,CuDef*%
G36*
G01*
X111551000Y-107692000D02*
X111551000Y-107192000D01*
G75*
G02*
X111776000Y-106967000I225000J0D01*
G01*
X112226000Y-106967000D01*
G75*
G02*
X112451000Y-107192000I0J-225000D01*
G01*
X112451000Y-107692000D01*
G75*
G02*
X112226000Y-107917000I-225000J0D01*
G01*
X111776000Y-107917000D01*
G75*
G02*
X111551000Y-107692000I0J225000D01*
G01*
G37*
%TD.AperFunction*%
%TD*%
%TO.P,C1,2*%
%TO.N,GND*%
%TA.AperFunction,SMDPad,CuDef*%
G36*
G01*
X113101000Y-106168000D02*
X113101000Y-105668000D01*
G75*
G02*
X113326000Y-105443000I225000J0D01*
G01*
X113776000Y-105443000D01*
G75*
G02*
X114001000Y-105668000I0J-225000D01*
G01*
X114001000Y-106168000D01*
G75*
G02*
X113776000Y-106393000I-225000J0D01*
G01*
X113326000Y-106393000D01*
G75*
G02*
X113101000Y-106168000I0J225000D01*
G01*
G37*
%TD.AperFunction*%
%TO.P,C1,1*%
%TO.N,+2V8*%
%TA.AperFunction,SMDPad,CuDef*%
G36*
G01*
X111551000Y-106168000D02*
X111551000Y-105668000D01*
G75*
G02*
X111776000Y-105443000I225000J0D01*
G01*
X112226000Y-105443000D01*
G75*
G02*
X112451000Y-105668000I0J-225000D01*
G01*
X112451000Y-106168000D01*
G75*
G02*
X112226000Y-106393000I-225000J0D01*
G01*
X111776000Y-106393000D01*
G75*
G02*
X111551000Y-106168000I0J225000D01*
G01*
G37*
%TD.AperFunction*%
%TD*%
D17*
%TO.N,GND*%
X101473000Y-112903000D03*
X102362000Y-112903000D03*
X103251000Y-112903000D03*
X103251000Y-112014000D03*
X102362000Y-112014000D03*
X101473000Y-112014000D03*
X97409000Y-115062000D03*
%TO.N,+2V8*%
X100076000Y-115189000D03*
X100584000Y-111125000D03*
%TO.N,+1V5*%
X110109000Y-118237000D03*
X94079072Y-118354684D03*
%TO.N,/OV1_D5*%
X96787544Y-119106619D03*
%TO.N,/OV1_D6*%
X96225010Y-119933407D03*
%TO.N,/OV1_D7*%
X94625640Y-119519469D03*
%TD*%
D18*
%TO.N,GND*%
X106365000Y-119183000D02*
X106369000Y-119183000D01*
X96500000Y-115971000D02*
X97409000Y-115062000D01*
X96500000Y-116666000D02*
X96500000Y-115971000D01*
D19*
%TO.N,+2V8*%
X112014000Y-107074000D02*
X112001000Y-107061000D01*
D18*
X105283000Y-108521000D02*
X105219000Y-108585000D01*
X99822000Y-106045000D02*
X105283000Y-106045000D01*
X91000000Y-114867000D02*
X99822000Y-106045000D01*
X105283000Y-106045000D02*
X105283000Y-108521000D01*
X91000000Y-116666000D02*
X91000000Y-114867000D01*
X94500000Y-116666000D02*
X94500000Y-114923000D01*
X94500000Y-114923000D02*
X98298000Y-111125000D01*
X98298000Y-111125000D02*
X100584000Y-111125000D01*
D19*
X105219000Y-105029000D02*
X105219000Y-108585000D01*
X105219000Y-105918000D02*
X112001000Y-105918000D01*
D18*
X104140000Y-111125000D02*
X104394000Y-110871000D01*
X100584000Y-111125000D02*
X104140000Y-111125000D01*
X104394000Y-109410000D02*
X105219000Y-108585000D01*
X104394000Y-110871000D02*
X104394000Y-109410000D01*
X108265000Y-114742000D02*
X104394000Y-110871000D01*
X108265000Y-116783000D02*
X108265000Y-114742000D01*
D19*
X113514000Y-113664000D02*
X113514000Y-113562000D01*
X112001000Y-107675164D02*
X112001000Y-105918000D01*
X113672836Y-109347000D02*
X112001000Y-107675164D01*
X113672836Y-113505164D02*
X113514000Y-113664000D01*
X113672836Y-109347000D02*
X113672836Y-113505164D01*
D18*
X100500000Y-111209000D02*
X100584000Y-111125000D01*
X100500000Y-115613000D02*
X100076000Y-115189000D01*
X100500000Y-116666000D02*
X100500000Y-115613000D01*
D19*
%TO.N,+1V5*%
X111887000Y-118377000D02*
X111493000Y-117983000D01*
X111887000Y-124841000D02*
X111887000Y-118377000D01*
D18*
X94000000Y-118344000D02*
X93980000Y-118364000D01*
X94000000Y-116666000D02*
X94000000Y-118344000D01*
X110363000Y-117983000D02*
X110109000Y-118237000D01*
X111493000Y-117983000D02*
X110363000Y-117983000D01*
%TO.N,Net-(D1-Pad2)*%
X95750000Y-128303500D02*
X95758000Y-128295500D01*
X95750000Y-129675000D02*
X95750000Y-128303500D01*
%TO.N,/OV1_D2*%
X108458000Y-127762000D02*
X108458000Y-126873000D01*
X100000000Y-118415000D02*
X100000000Y-116666000D01*
X108458000Y-126873000D02*
X100000000Y-118415000D01*
%TO.N,/OV1_D1*%
X99500000Y-116666000D02*
X99500000Y-118804000D01*
X107282999Y-129126999D02*
X108458000Y-130302000D01*
X107282999Y-126586999D02*
X107282999Y-129126999D01*
X99500000Y-118804000D02*
X107282999Y-126586999D01*
%TO.N,/OV1_D3*%
X105918000Y-127762000D02*
X105918000Y-126362179D01*
X105918000Y-126362179D02*
X99000000Y-119444179D01*
X99000000Y-119444179D02*
X99000000Y-116666000D01*
%TO.N,/OV1_D0*%
X104742999Y-125823589D02*
X104742999Y-129126999D01*
X98500000Y-119580590D02*
X104742999Y-125823589D01*
X104742999Y-129126999D02*
X105918000Y-130302000D01*
X98500000Y-116666000D02*
X98500000Y-119580590D01*
%TO.N,/OV1_D4*%
X103378000Y-125095000D02*
X103378000Y-127762000D01*
X98000000Y-119717000D02*
X103378000Y-125095000D01*
X98000000Y-116666000D02*
X98000000Y-119717000D01*
%TO.N,/OV1_PCLK*%
X86773001Y-127223409D02*
X86773001Y-129126999D01*
X88393410Y-125603000D02*
X86773001Y-127223409D01*
X97500000Y-116666000D02*
X97512546Y-116678546D01*
X97512546Y-116678546D02*
X97512546Y-120093454D01*
X97512546Y-120093454D02*
X92003000Y-125603000D01*
X92003000Y-125603000D02*
X88393410Y-125603000D01*
X86773001Y-129126999D02*
X85598000Y-130302000D01*
%TO.N,/OV1_D5*%
X97000000Y-116666000D02*
X97000000Y-118894163D01*
X97000000Y-118894163D02*
X96787544Y-119106619D01*
%TO.N,/OV1_D6*%
X96000000Y-116666000D02*
X96000000Y-119708397D01*
X96000000Y-119708397D02*
X96225010Y-119933407D01*
%TO.N,/OV1_XCLK*%
X95504000Y-116662000D02*
X95500000Y-116666000D01*
X95500000Y-116666000D02*
X95500000Y-121289000D01*
X95500000Y-121289000D02*
X91694000Y-125095000D01*
X88265000Y-125095000D02*
X85598000Y-127762000D01*
X91694000Y-125095000D02*
X88265000Y-125095000D01*
X95500000Y-115828000D02*
X95500000Y-116666000D01*
X97536000Y-113792000D02*
X95500000Y-115828000D01*
X100711000Y-113792000D02*
X97536000Y-113792000D01*
X101727000Y-114808000D02*
X100711000Y-113792000D01*
X101727000Y-117157000D02*
X101727000Y-114808000D01*
X103061000Y-118491000D02*
X101727000Y-117157000D01*
%TO.N,/OV1_D7*%
X95000000Y-116666000D02*
X95000000Y-119145109D01*
X95000000Y-119145109D02*
X94625640Y-119519469D01*
%TO.N,/OV1_HREF*%
X84233001Y-129126999D02*
X84233001Y-127387997D01*
X93354071Y-118266927D02*
X93354071Y-118006683D01*
X93500000Y-117860754D02*
X93500000Y-116666000D01*
X83058000Y-130302000D02*
X84233001Y-129126999D01*
X84233001Y-127387997D02*
X93354071Y-118266927D01*
X93354071Y-118006683D02*
X93500000Y-117860754D01*
%TO.N,/OV1_PWDN*%
X98429229Y-110109000D02*
X103569000Y-110109000D01*
X93000000Y-115538228D02*
X98429229Y-110109000D01*
X93000000Y-116666000D02*
X93000000Y-115538228D01*
X92904060Y-117820283D02*
X93000000Y-117724343D01*
X83058000Y-127762000D02*
X83098235Y-127762000D01*
X92904060Y-117956175D02*
X92904060Y-117820283D01*
X83098235Y-127762000D02*
X92904060Y-117956175D01*
X93000000Y-117724343D02*
X93000000Y-116666000D01*
%TO.N,/OV1_VSYNC*%
X80518000Y-130302000D02*
X81788000Y-129032000D01*
X83636825Y-126586999D02*
X92454049Y-117769775D01*
X81788000Y-129032000D02*
X81788000Y-127128410D01*
X92500000Y-117466000D02*
X92500000Y-116666000D01*
X92454049Y-117769775D02*
X92454049Y-117511951D01*
X82329411Y-126586999D02*
X83636825Y-126586999D01*
X92454049Y-117511951D02*
X92500000Y-117466000D01*
X81788000Y-127128410D02*
X82329411Y-126586999D01*
%TO.N,/OV1_RESET*%
X103569000Y-108585000D02*
X99316818Y-108585000D01*
X92000000Y-115901819D02*
X92000000Y-116666000D01*
X99316818Y-108585000D02*
X92000000Y-115901819D01*
X82143012Y-126136988D02*
X80518000Y-127762000D01*
X92000000Y-116666000D02*
X92000000Y-117587413D01*
X92000000Y-117587413D02*
X83450425Y-126136988D01*
X83450425Y-126136988D02*
X82143012Y-126136988D01*
%TO.N,/OV1_SCL*%
X99695000Y-107061000D02*
X103569000Y-107061000D01*
X91500000Y-115256000D02*
X99695000Y-107061000D01*
X91500000Y-116666000D02*
X91500000Y-115256000D01*
X79342999Y-127033411D02*
X80689433Y-125686977D01*
X91500000Y-117410770D02*
X91500000Y-116666000D01*
X79342999Y-128937001D02*
X79342999Y-127033411D01*
X77978000Y-130302000D02*
X79342999Y-128937001D01*
X83223793Y-125686977D02*
X91500000Y-117410770D01*
X80689433Y-125686977D02*
X83223793Y-125686977D01*
%TO.N,/OV1_SDA*%
X90500000Y-114476589D02*
X90500000Y-116666000D01*
X99947589Y-105029000D02*
X90500000Y-114476589D01*
X102870000Y-105029000D02*
X103569000Y-105029000D01*
X102870000Y-105029000D02*
X99947589Y-105029000D01*
X82729034Y-125236966D02*
X80503034Y-125236966D01*
X90500000Y-117466000D02*
X82729034Y-125236966D01*
X90500000Y-116666000D02*
X90500000Y-117466000D01*
X80503034Y-125236966D02*
X77978000Y-127762000D01*
D20*
%TO.N,+3V3*%
X113538000Y-130302000D02*
X113538000Y-127762000D01*
X90678000Y-130302000D02*
X90678000Y-127762000D01*
D18*
X94727000Y-130302000D02*
X95750000Y-131325000D01*
X90678000Y-130302000D02*
X94727000Y-130302000D01*
D20*
X114681000Y-124079000D02*
X114681000Y-117475000D01*
X113538000Y-125222000D02*
X114681000Y-124079000D01*
X113538000Y-127762000D02*
X113538000Y-125222000D01*
D19*
X112014000Y-114808000D02*
X112014000Y-113576500D01*
X114681000Y-117475000D02*
X112014000Y-114808000D01*
D18*
%TO.N,Net-(R10-Pad2)*%
X104711000Y-118237000D02*
X104911000Y-118237000D01*
X108265000Y-118933000D02*
X108265000Y-119183000D01*
X107315000Y-117983000D02*
X108265000Y-118933000D01*
X105219000Y-117983000D02*
X104711000Y-118491000D01*
X105537000Y-117983000D02*
X105219000Y-117983000D01*
X105537000Y-117983000D02*
X107315000Y-117983000D01*
%TD*%
D21*
%TO.N,GND*%
X100208078Y-87574871D02*
X100699686Y-87723296D01*
X101153107Y-87964383D01*
X101551064Y-88288950D01*
X101878397Y-88684628D01*
X102122643Y-89136352D01*
X102274497Y-89626913D01*
X102329994Y-90154928D01*
X102330001Y-90156990D01*
X102329999Y-99174021D01*
X102330062Y-99174656D01*
X102330074Y-99178223D01*
X102331695Y-99194181D01*
X102331583Y-99210206D01*
X102332082Y-99215306D01*
X102393283Y-99797595D01*
X102399983Y-99830234D01*
X102406205Y-99862854D01*
X102407684Y-99867751D01*
X102407685Y-99867758D01*
X102407688Y-99867764D01*
X102580823Y-100427073D01*
X102593730Y-100457777D01*
X102606173Y-100488576D01*
X102608577Y-100493097D01*
X102608579Y-100493102D01*
X102608582Y-100493106D01*
X102887055Y-101008133D01*
X102905655Y-101035709D01*
X102923869Y-101063543D01*
X102927108Y-101067514D01*
X103300318Y-101518647D01*
X103323948Y-101542113D01*
X103347193Y-101565850D01*
X103351135Y-101569111D01*
X103351141Y-101569117D01*
X103351148Y-101569121D01*
X103804869Y-101939169D01*
X103832600Y-101957593D01*
X103860021Y-101976369D01*
X103864528Y-101978806D01*
X104381493Y-102253680D01*
X104412272Y-102266367D01*
X104442819Y-102279459D01*
X104447704Y-102280971D01*
X104447714Y-102280975D01*
X104447724Y-102280977D01*
X105008221Y-102450201D01*
X105040854Y-102456663D01*
X105073387Y-102463578D01*
X105078472Y-102464112D01*
X105078483Y-102464114D01*
X105078493Y-102464114D01*
X105661185Y-102521248D01*
X105661200Y-102521248D01*
X105678978Y-102522999D01*
X112000240Y-102522999D01*
X113206129Y-102574680D01*
X113208077Y-102574871D01*
X113699685Y-102723295D01*
X114153107Y-102964384D01*
X114551063Y-103288950D01*
X114878397Y-103684629D01*
X115122643Y-104136353D01*
X115274497Y-104626914D01*
X115329994Y-105154929D01*
X115330001Y-105156992D01*
X115330000Y-116759902D01*
X115219440Y-116669168D01*
X115051884Y-116579607D01*
X114913046Y-116537491D01*
X113013124Y-114637571D01*
X113064000Y-114642582D01*
X113964000Y-114642582D01*
X114028103Y-114636268D01*
X114089743Y-114617570D01*
X114146550Y-114587206D01*
X114196343Y-114546343D01*
X114237206Y-114496550D01*
X114267570Y-114439743D01*
X114286268Y-114378103D01*
X114292582Y-114314000D01*
X114292582Y-114053607D01*
X114363788Y-113966843D01*
X114440581Y-113823174D01*
X114487870Y-113667284D01*
X114499836Y-113545788D01*
X114499836Y-113545779D01*
X114503836Y-113505165D01*
X114499836Y-113464551D01*
X114499836Y-109387613D01*
X114503836Y-109346999D01*
X114499836Y-109306385D01*
X114499836Y-109306376D01*
X114487870Y-109184880D01*
X114440581Y-109028990D01*
X114382492Y-108920313D01*
X114363788Y-108885319D01*
X114286338Y-108790948D01*
X114286337Y-108790947D01*
X114260442Y-108759394D01*
X114228890Y-108733500D01*
X112828000Y-107332611D01*
X112828000Y-107239525D01*
X112829033Y-107236120D01*
X112845000Y-107074000D01*
X112829033Y-106911880D01*
X112828000Y-106908475D01*
X112828000Y-105958624D01*
X112832001Y-105918000D01*
X112816034Y-105755880D01*
X112774873Y-105620192D01*
X112768945Y-105560002D01*
X112737443Y-105456153D01*
X112686287Y-105360446D01*
X112617442Y-105276558D01*
X112533554Y-105207713D01*
X112437847Y-105156557D01*
X112333998Y-105125055D01*
X112226000Y-105114418D01*
X112200872Y-105114418D01*
X112163120Y-105102966D01*
X112041624Y-105091000D01*
X112001000Y-105086999D01*
X111960376Y-105091000D01*
X106046000Y-105091000D01*
X106046000Y-104988376D01*
X106034034Y-104866880D01*
X105986745Y-104710990D01*
X105914869Y-104576519D01*
X105907346Y-104551720D01*
X105858500Y-104460336D01*
X105792764Y-104380236D01*
X105712664Y-104314500D01*
X105621280Y-104265654D01*
X105522121Y-104235575D01*
X105419000Y-104225418D01*
X105418871Y-104225418D01*
X105381119Y-104213966D01*
X105219000Y-104197999D01*
X105056880Y-104213966D01*
X105019128Y-104225418D01*
X105019000Y-104225418D01*
X104915879Y-104235575D01*
X104816720Y-104265654D01*
X104725336Y-104314500D01*
X104645236Y-104380236D01*
X104579500Y-104460336D01*
X104530654Y-104551720D01*
X104523131Y-104576522D01*
X104451255Y-104710991D01*
X104403966Y-104866881D01*
X104392000Y-104988377D01*
X104392000Y-105593000D01*
X104210993Y-105593000D01*
X104257346Y-105506280D01*
X104287425Y-105407121D01*
X104297582Y-105304000D01*
X104297582Y-104754000D01*
X104287425Y-104650879D01*
X104257346Y-104551720D01*
X104208500Y-104460336D01*
X104142764Y-104380236D01*
X104062664Y-104314500D01*
X103971280Y-104265654D01*
X103872121Y-104235575D01*
X103769000Y-104225418D01*
X103369000Y-104225418D01*
X103265879Y-104235575D01*
X103166720Y-104265654D01*
X103075336Y-104314500D01*
X102995236Y-104380236D01*
X102929500Y-104460336D01*
X102880654Y-104551720D01*
X102872986Y-104577000D01*
X99969791Y-104577000D01*
X99947588Y-104574813D01*
X99925385Y-104577000D01*
X99925384Y-104577000D01*
X99858982Y-104583540D01*
X99773779Y-104609386D01*
X99695256Y-104651357D01*
X99626430Y-104707841D01*
X99612275Y-104725089D01*
X90196100Y-114141266D01*
X90178841Y-114155430D01*
X90122357Y-114224257D01*
X90107739Y-114251606D01*
X90080386Y-114302780D01*
X90054540Y-114387982D01*
X90045813Y-114476589D01*
X90048000Y-114498794D01*
X90048001Y-115987318D01*
X90046430Y-115990257D01*
X90027732Y-116051897D01*
X90021418Y-116116000D01*
X90021418Y-117216000D01*
X90027732Y-117280103D01*
X90032140Y-117294636D01*
X89900235Y-117426541D01*
X89923206Y-117398550D01*
X89953570Y-117341743D01*
X89972268Y-117280103D01*
X89978582Y-117216000D01*
X89978582Y-116116000D01*
X89972268Y-116051897D01*
X89953570Y-115990257D01*
X89923206Y-115933450D01*
X89882343Y-115883657D01*
X89832550Y-115842794D01*
X89775743Y-115812430D01*
X89714103Y-115793732D01*
X89650000Y-115787418D01*
X89350000Y-115787418D01*
X89285897Y-115793732D01*
X89224257Y-115812430D01*
X89167450Y-115842794D01*
X89117657Y-115883657D01*
X89076794Y-115933450D01*
X89046430Y-115990257D01*
X89027732Y-116051897D01*
X89021418Y-116116000D01*
X89021418Y-117216000D01*
X89027732Y-117280103D01*
X89046430Y-117341743D01*
X89076794Y-117398550D01*
X89117657Y-117448343D01*
X89167450Y-117489206D01*
X89224257Y-117519570D01*
X89285897Y-117538268D01*
X89350000Y-117544582D01*
X89650000Y-117544582D01*
X89714103Y-117538268D01*
X89775743Y-117519570D01*
X89832550Y-117489206D01*
X89860541Y-117466235D01*
X82541811Y-124784966D01*
X80525238Y-124784966D01*
X80503033Y-124782779D01*
X80414426Y-124791506D01*
X80394596Y-124797522D01*
X80329224Y-124817352D01*
X80250701Y-124859323D01*
X80181875Y-124915807D01*
X80167720Y-124933055D01*
X78517358Y-126583418D01*
X77128000Y-126583418D01*
X77063897Y-126589732D01*
X77002257Y-126608430D01*
X76945450Y-126638794D01*
X76895657Y-126679657D01*
X76854794Y-126729450D01*
X76824430Y-126786257D01*
X76805732Y-126847897D01*
X76799418Y-126912000D01*
X76799418Y-128612000D01*
X76805732Y-128676103D01*
X76824430Y-128737743D01*
X76854794Y-128794550D01*
X76895657Y-128844343D01*
X76945450Y-128885206D01*
X77002257Y-128915570D01*
X77063897Y-128934268D01*
X77128000Y-128940582D01*
X78700193Y-128940582D01*
X78426837Y-129213939D01*
X78321318Y-129170231D01*
X78093924Y-129125000D01*
X77862076Y-129125000D01*
X77634682Y-129170231D01*
X77420481Y-129258956D01*
X77227706Y-129387764D01*
X77063764Y-129551706D01*
X76934956Y-129744481D01*
X76846231Y-129958682D01*
X76801000Y-130186076D01*
X76801000Y-130417924D01*
X76846231Y-130645318D01*
X76934956Y-130859519D01*
X77063764Y-131052294D01*
X77227706Y-131216236D01*
X77420481Y-131345044D01*
X77634682Y-131433769D01*
X77862076Y-131479000D01*
X78093924Y-131479000D01*
X78321318Y-131433769D01*
X78535519Y-131345044D01*
X78728294Y-131216236D01*
X78892236Y-131052294D01*
X79021044Y-130859519D01*
X79109769Y-130645318D01*
X79155000Y-130417924D01*
X79155000Y-130186076D01*
X79109769Y-129958682D01*
X79066061Y-129853163D01*
X79646911Y-129272314D01*
X79664158Y-129258160D01*
X79720642Y-129189334D01*
X79762613Y-129110811D01*
X79765518Y-129101236D01*
X79788459Y-129025609D01*
X79797186Y-128937002D01*
X79794999Y-128914797D01*
X79794999Y-128694473D01*
X79960481Y-128805044D01*
X80174682Y-128893769D01*
X80402076Y-128939000D01*
X80633924Y-128939000D01*
X80861318Y-128893769D01*
X81075519Y-128805044D01*
X81268294Y-128676236D01*
X81336000Y-128608530D01*
X81336000Y-128844775D01*
X80966837Y-129213939D01*
X80861318Y-129170231D01*
X80633924Y-129125000D01*
X80402076Y-129125000D01*
X80174682Y-129170231D01*
X79960481Y-129258956D01*
X79767706Y-129387764D01*
X79603764Y-129551706D01*
X79474956Y-129744481D01*
X79386231Y-129958682D01*
X79341000Y-130186076D01*
X79341000Y-130417924D01*
X79386231Y-130645318D01*
X79474956Y-130859519D01*
X79603764Y-131052294D01*
X79767706Y-131216236D01*
X79960481Y-131345044D01*
X80174682Y-131433769D01*
X80402076Y-131479000D01*
X80633924Y-131479000D01*
X80861318Y-131433769D01*
X81075519Y-131345044D01*
X81268294Y-131216236D01*
X81432236Y-131052294D01*
X81561044Y-130859519D01*
X81649769Y-130645318D01*
X81695000Y-130417924D01*
X81695000Y-130186076D01*
X81649769Y-129958682D01*
X81606061Y-129853163D01*
X82091912Y-129367313D01*
X82109159Y-129353159D01*
X82165643Y-129284333D01*
X82207614Y-129205810D01*
X82231521Y-129126999D01*
X82233460Y-129120608D01*
X82242187Y-129032001D01*
X82240000Y-129009796D01*
X82240000Y-128608530D01*
X82307706Y-128676236D01*
X82500481Y-128805044D01*
X82714682Y-128893769D01*
X82942076Y-128939000D01*
X83173924Y-128939000D01*
X83401318Y-128893769D01*
X83615519Y-128805044D01*
X83781001Y-128694472D01*
X83781001Y-128939774D01*
X83506837Y-129213939D01*
X83401318Y-129170231D01*
X83173924Y-129125000D01*
X82942076Y-129125000D01*
X82714682Y-129170231D01*
X82500481Y-129258956D01*
X82307706Y-129387764D01*
X82143764Y-129551706D01*
X82014956Y-129744481D01*
X81926231Y-129958682D01*
X81881000Y-130186076D01*
X81881000Y-130417924D01*
X81926231Y-130645318D01*
X82014956Y-130859519D01*
X82143764Y-131052294D01*
X82307706Y-131216236D01*
X82500481Y-131345044D01*
X82714682Y-131433769D01*
X82942076Y-131479000D01*
X83173924Y-131479000D01*
X83401318Y-131433769D01*
X83615519Y-131345044D01*
X83808294Y-131216236D01*
X83972236Y-131052294D01*
X84101044Y-130859519D01*
X84189769Y-130645318D01*
X84235000Y-130417924D01*
X84235000Y-130186076D01*
X84189769Y-129958682D01*
X84146061Y-129853163D01*
X84536913Y-129462312D01*
X84554160Y-129448158D01*
X84610644Y-129379332D01*
X84652615Y-129300809D01*
X84678461Y-129215606D01*
X84679426Y-129205809D01*
X84687188Y-129127000D01*
X84685001Y-129104795D01*
X84685001Y-128513531D01*
X84847706Y-128676236D01*
X85040481Y-128805044D01*
X85254682Y-128893769D01*
X85482076Y-128939000D01*
X85713924Y-128939000D01*
X85941318Y-128893769D01*
X86155519Y-128805044D01*
X86321002Y-128694472D01*
X86321002Y-128939773D01*
X86046837Y-129213939D01*
X85941318Y-129170231D01*
X85713924Y-129125000D01*
X85482076Y-129125000D01*
X85254682Y-129170231D01*
X85040481Y-129258956D01*
X84847706Y-129387764D01*
X84683764Y-129551706D01*
X84554956Y-129744481D01*
X84466231Y-129958682D01*
X84421000Y-130186076D01*
X84421000Y-130417924D01*
X84466231Y-130645318D01*
X84554956Y-130859519D01*
X84683764Y-131052294D01*
X84847706Y-131216236D01*
X85040481Y-131345044D01*
X85254682Y-131433769D01*
X85482076Y-131479000D01*
X85713924Y-131479000D01*
X85941318Y-131433769D01*
X86155519Y-131345044D01*
X86348294Y-131216236D01*
X86512236Y-131052294D01*
X86641044Y-130859519D01*
X86729769Y-130645318D01*
X86775000Y-130417924D01*
X86775000Y-130186076D01*
X86729769Y-129958682D01*
X86686061Y-129853163D01*
X87076911Y-129462314D01*
X87094160Y-129448158D01*
X87150644Y-129379332D01*
X87192615Y-129300809D01*
X87218461Y-129215606D01*
X87219426Y-129205809D01*
X87227188Y-129127000D01*
X87225001Y-129104795D01*
X87225001Y-127410632D01*
X88580635Y-126055000D01*
X91980795Y-126055000D01*
X92003000Y-126057187D01*
X92025205Y-126055000D01*
X92091607Y-126048460D01*
X92176810Y-126022614D01*
X92255333Y-125980643D01*
X92324159Y-125924159D01*
X92338323Y-125906900D01*
X97816451Y-120428773D01*
X97833705Y-120414613D01*
X97890189Y-120345787D01*
X97924804Y-120281027D01*
X102926000Y-125282224D01*
X102926001Y-126675248D01*
X102820481Y-126718956D01*
X102627706Y-126847764D01*
X102463764Y-127011706D01*
X102334956Y-127204481D01*
X102246231Y-127418682D01*
X102201000Y-127646076D01*
X102201000Y-127877924D01*
X102246231Y-128105318D01*
X102334956Y-128319519D01*
X102463764Y-128512294D01*
X102627706Y-128676236D01*
X102820481Y-128805044D01*
X103034682Y-128893769D01*
X103262076Y-128939000D01*
X103493924Y-128939000D01*
X103721318Y-128893769D01*
X103935519Y-128805044D01*
X104128294Y-128676236D01*
X104291000Y-128513530D01*
X104291000Y-129104784D01*
X104288812Y-129126999D01*
X104297539Y-129215606D01*
X104323385Y-129300808D01*
X104361373Y-129371879D01*
X104365357Y-129379332D01*
X104421841Y-129448158D01*
X104439095Y-129462318D01*
X104829939Y-129853162D01*
X104786231Y-129958682D01*
X104741000Y-130186076D01*
X104741000Y-130417924D01*
X104786231Y-130645318D01*
X104874956Y-130859519D01*
X105003764Y-131052294D01*
X105167706Y-131216236D01*
X105360481Y-131345044D01*
X105574682Y-131433769D01*
X105802076Y-131479000D01*
X106033924Y-131479000D01*
X106261318Y-131433769D01*
X106475519Y-131345044D01*
X106668294Y-131216236D01*
X106832236Y-131052294D01*
X106961044Y-130859519D01*
X107049769Y-130645318D01*
X107095000Y-130417924D01*
X107095000Y-130186076D01*
X107049769Y-129958682D01*
X106961044Y-129744481D01*
X106832236Y-129551706D01*
X106668294Y-129387764D01*
X106475519Y-129258956D01*
X106261318Y-129170231D01*
X106033924Y-129125000D01*
X105802076Y-129125000D01*
X105574682Y-129170231D01*
X105469162Y-129213939D01*
X105194999Y-128939776D01*
X105194999Y-128694473D01*
X105360481Y-128805044D01*
X105574682Y-128893769D01*
X105802076Y-128939000D01*
X106033924Y-128939000D01*
X106261318Y-128893769D01*
X106475519Y-128805044D01*
X106668294Y-128676236D01*
X106831000Y-128513530D01*
X106831000Y-129104784D01*
X106828812Y-129126999D01*
X106837539Y-129215606D01*
X106863385Y-129300808D01*
X106901373Y-129371879D01*
X106905357Y-129379332D01*
X106961841Y-129448158D01*
X106979095Y-129462318D01*
X107369939Y-129853162D01*
X107326231Y-129958682D01*
X107281000Y-130186076D01*
X107281000Y-130417924D01*
X107326231Y-130645318D01*
X107414956Y-130859519D01*
X107543764Y-131052294D01*
X107707706Y-131216236D01*
X107900481Y-131345044D01*
X108114682Y-131433769D01*
X108342076Y-131479000D01*
X108573924Y-131479000D01*
X108801318Y-131433769D01*
X109015519Y-131345044D01*
X109208294Y-131216236D01*
X109372236Y-131052294D01*
X109501044Y-130859519D01*
X109589769Y-130645318D01*
X109635000Y-130417924D01*
X109635000Y-130186076D01*
X109589769Y-129958682D01*
X109501044Y-129744481D01*
X109372236Y-129551706D01*
X109208294Y-129387764D01*
X109015519Y-129258956D01*
X108801318Y-129170231D01*
X108573924Y-129125000D01*
X108342076Y-129125000D01*
X108114682Y-129170231D01*
X108009162Y-129213939D01*
X107734999Y-128939776D01*
X107734999Y-128694473D01*
X107900481Y-128805044D01*
X108114682Y-128893769D01*
X108342076Y-128939000D01*
X108573924Y-128939000D01*
X108801318Y-128893769D01*
X109015519Y-128805044D01*
X109208294Y-128676236D01*
X109372236Y-128512294D01*
X109501044Y-128319519D01*
X109589769Y-128105318D01*
X109635000Y-127877924D01*
X109635000Y-127646076D01*
X109589769Y-127418682D01*
X109501044Y-127204481D01*
X109372236Y-127011706D01*
X109208294Y-126847764D01*
X109015519Y-126718956D01*
X108851969Y-126651211D01*
X108835643Y-126620667D01*
X108779159Y-126551841D01*
X108761911Y-126537686D01*
X100452000Y-118227777D01*
X100452000Y-117544582D01*
X100650000Y-117544582D01*
X100714103Y-117538268D01*
X100775743Y-117519570D01*
X100832550Y-117489206D01*
X100882343Y-117448343D01*
X100923206Y-117398550D01*
X100953570Y-117341743D01*
X100972268Y-117280103D01*
X100978582Y-117216000D01*
X100978582Y-116116000D01*
X100972268Y-116051897D01*
X100953570Y-115990257D01*
X100952000Y-115987320D01*
X100952000Y-115635205D01*
X100954187Y-115613000D01*
X100945460Y-115524392D01*
X100919614Y-115439190D01*
X100889334Y-115382540D01*
X100877643Y-115360667D01*
X100821159Y-115291841D01*
X100803905Y-115277681D01*
X100800317Y-115274093D01*
X100803000Y-115260603D01*
X100803000Y-115117397D01*
X100775062Y-114976942D01*
X100720259Y-114844636D01*
X100640698Y-114725564D01*
X100539436Y-114624302D01*
X100420364Y-114544741D01*
X100288058Y-114489938D01*
X100147603Y-114462000D01*
X100004397Y-114462000D01*
X99863942Y-114489938D01*
X99731636Y-114544741D01*
X99612564Y-114624302D01*
X99511302Y-114725564D01*
X99431741Y-114844636D01*
X99376938Y-114976942D01*
X99349000Y-115117397D01*
X99349000Y-115260603D01*
X99376938Y-115401058D01*
X99431741Y-115533364D01*
X99511302Y-115652436D01*
X99612564Y-115753698D01*
X99665283Y-115788923D01*
X99650000Y-115787418D01*
X99350000Y-115787418D01*
X99285897Y-115793732D01*
X99250000Y-115804621D01*
X99214103Y-115793732D01*
X99150000Y-115787418D01*
X98850000Y-115787418D01*
X98785897Y-115793732D01*
X98750000Y-115804621D01*
X98714103Y-115793732D01*
X98650000Y-115787418D01*
X98350000Y-115787418D01*
X98285897Y-115793732D01*
X98250000Y-115804621D01*
X98214103Y-115793732D01*
X98150000Y-115787418D01*
X97850000Y-115787418D01*
X97785897Y-115793732D01*
X97750000Y-115804621D01*
X97714103Y-115793732D01*
X97650000Y-115787418D01*
X97350000Y-115787418D01*
X97285897Y-115793732D01*
X97250000Y-115804621D01*
X97214103Y-115793732D01*
X97150000Y-115787418D01*
X96850000Y-115787418D01*
X96785897Y-115793732D01*
X96724257Y-115812430D01*
X96667450Y-115842794D01*
X96617657Y-115883657D01*
X96576794Y-115933450D01*
X96546430Y-115990257D01*
X96527732Y-116051897D01*
X96521418Y-116116000D01*
X96521418Y-117216000D01*
X96527732Y-117280103D01*
X96546430Y-117341743D01*
X96548000Y-117344681D01*
X96548001Y-118418942D01*
X96452000Y-118458707D01*
X96452000Y-117344680D01*
X96453570Y-117341743D01*
X96472268Y-117280103D01*
X96478582Y-117216000D01*
X96478582Y-116116000D01*
X96472268Y-116051897D01*
X96453570Y-115990257D01*
X96423206Y-115933450D01*
X96382343Y-115883657D01*
X96332550Y-115842794D01*
X96275743Y-115812430D01*
X96214103Y-115793732D01*
X96177133Y-115790091D01*
X97723224Y-114244000D01*
X100523777Y-114244000D01*
X101275001Y-114995225D01*
X101275000Y-117134795D01*
X101272813Y-117157000D01*
X101281540Y-117245607D01*
X101295628Y-117292048D01*
X101307386Y-117330809D01*
X101349357Y-117409332D01*
X101405841Y-117478159D01*
X101423100Y-117492323D01*
X102332418Y-118401642D01*
X102332418Y-118766000D01*
X102342575Y-118869121D01*
X102372654Y-118968280D01*
X102421500Y-119059664D01*
X102487236Y-119139764D01*
X102567336Y-119205500D01*
X102658720Y-119254346D01*
X102757879Y-119284425D01*
X102861000Y-119294582D01*
X103261000Y-119294582D01*
X103364121Y-119284425D01*
X103463280Y-119254346D01*
X103554664Y-119205500D01*
X103634764Y-119139764D01*
X103700500Y-119059664D01*
X103749346Y-118968280D01*
X103779425Y-118869121D01*
X103789582Y-118766000D01*
X103789582Y-118216000D01*
X103779425Y-118112879D01*
X103749346Y-118013720D01*
X103700500Y-117922336D01*
X103634764Y-117842236D01*
X103554664Y-117776500D01*
X103463280Y-117727654D01*
X103364121Y-117697575D01*
X103261000Y-117687418D01*
X102896642Y-117687418D01*
X102179000Y-116969777D01*
X102179000Y-114830205D01*
X102181187Y-114808000D01*
X102172460Y-114719392D01*
X102146614Y-114634190D01*
X102138543Y-114619090D01*
X102104643Y-114555667D01*
X102048159Y-114486841D01*
X102030905Y-114472681D01*
X101046323Y-113488100D01*
X101032159Y-113470841D01*
X100963333Y-113414357D01*
X100884810Y-113372386D01*
X100799607Y-113346540D01*
X100733205Y-113340000D01*
X100711000Y-113337813D01*
X100688795Y-113340000D01*
X97558205Y-113340000D01*
X97536000Y-113337813D01*
X97447392Y-113346540D01*
X97362190Y-113372386D01*
X97283667Y-113414357D01*
X97214841Y-113470841D01*
X97200681Y-113488095D01*
X95196100Y-115492677D01*
X95178841Y-115506841D01*
X95122358Y-115575667D01*
X95080386Y-115654191D01*
X95054540Y-115739393D01*
X95049810Y-115787418D01*
X94952000Y-115787418D01*
X94952000Y-115110223D01*
X98485225Y-111577000D01*
X100011661Y-111577000D01*
X100019302Y-111588436D01*
X100120564Y-111689698D01*
X100239636Y-111769259D01*
X100371942Y-111824062D01*
X100512397Y-111852000D01*
X100655603Y-111852000D01*
X100796058Y-111824062D01*
X100928364Y-111769259D01*
X101047436Y-111689698D01*
X101148698Y-111588436D01*
X101156339Y-111577000D01*
X104117795Y-111577000D01*
X104140000Y-111579187D01*
X104162205Y-111577000D01*
X104228607Y-111570460D01*
X104313810Y-111544614D01*
X104388480Y-111504703D01*
X107813001Y-114929225D01*
X107813001Y-115754418D01*
X107665000Y-115754418D01*
X107600897Y-115760732D01*
X107539257Y-115779430D01*
X107482450Y-115809794D01*
X107432657Y-115850657D01*
X107391794Y-115900450D01*
X107361430Y-115957257D01*
X107342732Y-116018897D01*
X107336418Y-116083000D01*
X107336418Y-117483000D01*
X107341184Y-117531392D01*
X107337205Y-117531000D01*
X107315000Y-117528813D01*
X107292795Y-117531000D01*
X107288854Y-117531000D01*
X107293582Y-117483000D01*
X107293582Y-116083000D01*
X107287268Y-116018897D01*
X107268570Y-115957257D01*
X107238206Y-115900450D01*
X107197343Y-115850657D01*
X107147550Y-115809794D01*
X107090743Y-115779430D01*
X107029103Y-115760732D01*
X106965000Y-115754418D01*
X105765000Y-115754418D01*
X105700897Y-115760732D01*
X105639257Y-115779430D01*
X105582450Y-115809794D01*
X105532657Y-115850657D01*
X105491794Y-115900450D01*
X105461430Y-115957257D01*
X105442732Y-116018897D01*
X105436418Y-116083000D01*
X105436418Y-117483000D01*
X105441146Y-117531000D01*
X105241202Y-117531000D01*
X105218999Y-117528813D01*
X105196796Y-117531000D01*
X105196795Y-117531000D01*
X105130393Y-117537540D01*
X105045190Y-117563386D01*
X104966667Y-117605357D01*
X104897841Y-117661841D01*
X104883685Y-117679090D01*
X104875357Y-117687418D01*
X104511000Y-117687418D01*
X104407879Y-117697575D01*
X104308720Y-117727654D01*
X104217336Y-117776500D01*
X104137236Y-117842236D01*
X104071500Y-117922336D01*
X104022654Y-118013720D01*
X103992575Y-118112879D01*
X103982418Y-118216000D01*
X103982418Y-118766000D01*
X103992575Y-118869121D01*
X104022654Y-118968280D01*
X104071500Y-119059664D01*
X104137236Y-119139764D01*
X104217336Y-119205500D01*
X104308720Y-119254346D01*
X104407879Y-119284425D01*
X104511000Y-119294582D01*
X104911000Y-119294582D01*
X105014121Y-119284425D01*
X105113280Y-119254346D01*
X105204664Y-119205500D01*
X105284764Y-119139764D01*
X105350500Y-119059664D01*
X105399346Y-118968280D01*
X105429425Y-118869121D01*
X105439582Y-118766000D01*
X105439582Y-118435000D01*
X107127777Y-118435000D01*
X107336418Y-118643641D01*
X107336418Y-119883000D01*
X107342732Y-119947103D01*
X107361430Y-120008743D01*
X107391794Y-120065550D01*
X107432657Y-120115343D01*
X107482450Y-120156206D01*
X107539257Y-120186570D01*
X107600897Y-120205268D01*
X107665000Y-120211582D01*
X108865000Y-120211582D01*
X108929103Y-120205268D01*
X108990743Y-120186570D01*
X109047550Y-120156206D01*
X109097343Y-120115343D01*
X109138206Y-120065550D01*
X109168570Y-120008743D01*
X109187268Y-119947103D01*
X109193582Y-119883000D01*
X109193582Y-118483000D01*
X109187268Y-118418897D01*
X109168570Y-118357257D01*
X109138206Y-118300450D01*
X109097343Y-118250657D01*
X109047550Y-118209794D01*
X108990743Y-118179430D01*
X108929103Y-118160732D01*
X108865000Y-118154418D01*
X108125642Y-118154418D01*
X107782805Y-117811582D01*
X108865000Y-117811582D01*
X108929103Y-117805268D01*
X108990743Y-117786570D01*
X109047550Y-117756206D01*
X109097343Y-117715343D01*
X109138206Y-117665550D01*
X109168570Y-117608743D01*
X109187268Y-117547103D01*
X109193582Y-117483000D01*
X109193582Y-116083000D01*
X109187268Y-116018897D01*
X109168570Y-115957257D01*
X109138206Y-115900450D01*
X109097343Y-115850657D01*
X109047550Y-115809794D01*
X108990743Y-115779430D01*
X108929103Y-115760732D01*
X108865000Y-115754418D01*
X108717000Y-115754418D01*
X108717000Y-114764205D01*
X108719187Y-114742000D01*
X108710460Y-114653392D01*
X108684614Y-114568190D01*
X108677920Y-114555666D01*
X108642643Y-114489667D01*
X108586159Y-114420841D01*
X108568905Y-114406681D01*
X104846000Y-110683777D01*
X104846000Y-109597223D01*
X105046376Y-109396847D01*
X105056881Y-109400034D01*
X105219000Y-109416001D01*
X105381120Y-109400034D01*
X105418872Y-109388582D01*
X105419000Y-109388582D01*
X105522121Y-109378425D01*
X105621280Y-109348346D01*
X105712664Y-109299500D01*
X105792764Y-109233764D01*
X105858500Y-109153664D01*
X105907346Y-109062280D01*
X105914869Y-109037481D01*
X105986745Y-108903010D01*
X106034034Y-108747120D01*
X106046000Y-108625624D01*
X106046000Y-106745000D01*
X111174001Y-106745000D01*
X111174000Y-107020382D01*
X111170000Y-107061000D01*
X111174000Y-107101617D01*
X111174000Y-107634550D01*
X111170000Y-107675164D01*
X111174000Y-107715778D01*
X111174000Y-107715787D01*
X111185966Y-107837283D01*
X111233255Y-107993173D01*
X111233256Y-107993174D01*
X111310048Y-108136843D01*
X111322723Y-108152287D01*
X111413394Y-108262770D01*
X111444952Y-108288669D01*
X112541700Y-109385418D01*
X111147500Y-109385418D01*
X111083397Y-109391732D01*
X111021757Y-109410430D01*
X110964950Y-109440794D01*
X110915157Y-109481657D01*
X110874294Y-109531450D01*
X110843930Y-109588257D01*
X110825232Y-109649897D01*
X110818918Y-109714000D01*
X110818918Y-112839000D01*
X110825232Y-112903103D01*
X110843930Y-112964743D01*
X110874294Y-113021550D01*
X110915157Y-113071343D01*
X110964950Y-113112206D01*
X111021757Y-113142570D01*
X111083397Y-113161268D01*
X111147500Y-113167582D01*
X111235418Y-113167582D01*
X111235418Y-113294218D01*
X111198967Y-113414380D01*
X111187001Y-113535876D01*
X111187000Y-114767386D01*
X111183000Y-114808000D01*
X111187000Y-114848614D01*
X111187000Y-114848623D01*
X111198966Y-114970119D01*
X111246255Y-115126009D01*
X111279925Y-115189000D01*
X111323048Y-115269679D01*
X111358158Y-115312460D01*
X111426394Y-115395606D01*
X111457952Y-115421505D01*
X113716501Y-117680056D01*
X113716500Y-123679491D01*
X113446073Y-123949918D01*
X113082082Y-123949918D01*
X113082082Y-120978500D01*
X113075768Y-120914397D01*
X113057070Y-120852757D01*
X113026706Y-120795950D01*
X112985843Y-120746157D01*
X112936050Y-120705294D01*
X112879243Y-120674930D01*
X112817603Y-120656232D01*
X112753500Y-120649918D01*
X112714000Y-120649918D01*
X112714000Y-118417613D01*
X112718000Y-118376999D01*
X112714000Y-118336385D01*
X112714000Y-118336376D01*
X112702034Y-118214880D01*
X112654745Y-118058990D01*
X112605232Y-117966358D01*
X112577952Y-117915320D01*
X112517972Y-117842236D01*
X112474606Y-117789394D01*
X112443048Y-117763495D01*
X112241956Y-117562403D01*
X112229443Y-117521153D01*
X112178287Y-117425446D01*
X112109442Y-117341558D01*
X112025554Y-117272713D01*
X111929847Y-117221557D01*
X111825998Y-117190055D01*
X111718000Y-117179418D01*
X111692869Y-117179418D01*
X111655120Y-117167967D01*
X111493000Y-117152000D01*
X111330880Y-117167967D01*
X111293131Y-117179418D01*
X111268000Y-117179418D01*
X111160002Y-117190055D01*
X111056153Y-117221557D01*
X110960446Y-117272713D01*
X110876558Y-117341558D01*
X110807713Y-117425446D01*
X110756557Y-117521153D01*
X110753570Y-117531000D01*
X110385204Y-117531000D01*
X110362999Y-117528813D01*
X110304265Y-117534598D01*
X110180603Y-117510000D01*
X110037397Y-117510000D01*
X109896942Y-117537938D01*
X109764636Y-117592741D01*
X109645564Y-117672302D01*
X109544302Y-117773564D01*
X109464741Y-117892636D01*
X109409938Y-118024942D01*
X109382000Y-118165397D01*
X109382000Y-118308603D01*
X109409938Y-118449058D01*
X109464741Y-118581364D01*
X109544302Y-118700436D01*
X109645564Y-118801698D01*
X109764636Y-118881259D01*
X109896942Y-118936062D01*
X110037397Y-118964000D01*
X110180603Y-118964000D01*
X110321058Y-118936062D01*
X110453364Y-118881259D01*
X110572436Y-118801698D01*
X110673698Y-118700436D01*
X110753259Y-118581364D01*
X110786557Y-118500974D01*
X110807713Y-118540554D01*
X110876558Y-118624442D01*
X110960446Y-118693287D01*
X111056153Y-118744443D01*
X111057989Y-118745000D01*
X111056153Y-118745557D01*
X110960446Y-118796713D01*
X110876558Y-118865558D01*
X110807713Y-118949446D01*
X110756557Y-119045153D01*
X110725055Y-119149002D01*
X110714418Y-119257000D01*
X110714418Y-119757000D01*
X110725055Y-119864998D01*
X110756557Y-119968847D01*
X110807713Y-120064554D01*
X110876558Y-120148442D01*
X110960446Y-120217287D01*
X111056153Y-120268443D01*
X111060001Y-120269610D01*
X111060001Y-120649918D01*
X111020500Y-120649918D01*
X110956397Y-120656232D01*
X110894757Y-120674930D01*
X110837950Y-120705294D01*
X110788157Y-120746157D01*
X110747294Y-120795950D01*
X110716930Y-120852757D01*
X110698232Y-120914397D01*
X110691918Y-120978500D01*
X110691918Y-124103500D01*
X110698232Y-124167603D01*
X110716930Y-124229243D01*
X110747294Y-124286050D01*
X110788157Y-124335843D01*
X110837950Y-124376706D01*
X110894757Y-124407070D01*
X110956397Y-124425768D01*
X111020500Y-124432082D01*
X111060000Y-124432082D01*
X111060000Y-124881623D01*
X111071966Y-125003119D01*
X111108418Y-125123284D01*
X111108418Y-125578500D01*
X111114732Y-125642603D01*
X111133430Y-125704243D01*
X111163794Y-125761050D01*
X111204657Y-125810843D01*
X111254450Y-125851706D01*
X111311257Y-125882070D01*
X111372897Y-125900768D01*
X111437000Y-125907082D01*
X112337000Y-125907082D01*
X112401103Y-125900768D01*
X112462743Y-125882070D01*
X112519550Y-125851706D01*
X112569343Y-125810843D01*
X112573501Y-125805777D01*
X112573500Y-127086931D01*
X112494956Y-127204481D01*
X112406231Y-127418682D01*
X112361000Y-127646076D01*
X112361000Y-127877924D01*
X112406231Y-128105318D01*
X112494956Y-128319519D01*
X112573501Y-128437070D01*
X112573500Y-129626931D01*
X112494956Y-129744481D01*
X112406231Y-129958682D01*
X112361000Y-130186076D01*
X112361000Y-130417924D01*
X112406231Y-130645318D01*
X112494956Y-130859519D01*
X112623764Y-131052294D01*
X112787706Y-131216236D01*
X112980481Y-131345044D01*
X113194682Y-131433769D01*
X113422076Y-131479000D01*
X113653924Y-131479000D01*
X113881318Y-131433769D01*
X114095519Y-131345044D01*
X114288294Y-131216236D01*
X114452236Y-131052294D01*
X114581044Y-130859519D01*
X114669769Y-130645318D01*
X114715000Y-130417924D01*
X114715000Y-130186076D01*
X114669769Y-129958682D01*
X114581044Y-129744481D01*
X114502500Y-129626931D01*
X114502500Y-128437069D01*
X114581044Y-128319519D01*
X114669769Y-128105318D01*
X114715000Y-127877924D01*
X114715000Y-127646076D01*
X114669769Y-127418682D01*
X114581044Y-127204481D01*
X114502500Y-127086931D01*
X114502500Y-125621508D01*
X115329504Y-124794505D01*
X115330000Y-124794098D01*
X115329999Y-131788999D01*
X96480356Y-131788999D01*
X96513346Y-131727280D01*
X96543425Y-131628121D01*
X96553582Y-131525000D01*
X96553582Y-131125000D01*
X96543425Y-131021879D01*
X96513346Y-130922720D01*
X96464500Y-130831336D01*
X96398764Y-130751236D01*
X96318664Y-130685500D01*
X96227280Y-130636654D01*
X96128121Y-130606575D01*
X96025000Y-130596418D01*
X95660642Y-130596418D01*
X95467020Y-130402796D01*
X95475000Y-130403582D01*
X96025000Y-130403582D01*
X96128121Y-130393425D01*
X96227280Y-130363346D01*
X96318664Y-130314500D01*
X96398764Y-130248764D01*
X96450210Y-130186076D01*
X99661000Y-130186076D01*
X99661000Y-130417924D01*
X99706231Y-130645318D01*
X99794956Y-130859519D01*
X99923764Y-131052294D01*
X100087706Y-131216236D01*
X100280481Y-131345044D01*
X100494682Y-131433769D01*
X100722076Y-131479000D01*
X100953924Y-131479000D01*
X101181318Y-131433769D01*
X101395519Y-131345044D01*
X101588294Y-131216236D01*
X101752236Y-131052294D01*
X101881044Y-130859519D01*
X101969769Y-130645318D01*
X102015000Y-130417924D01*
X102015000Y-130186076D01*
X102201000Y-130186076D01*
X102201000Y-130417924D01*
X102246231Y-130645318D01*
X102334956Y-130859519D01*
X102463764Y-131052294D01*
X102627706Y-131216236D01*
X102820481Y-131345044D01*
X103034682Y-131433769D01*
X103262076Y-131479000D01*
X103493924Y-131479000D01*
X103721318Y-131433769D01*
X103935519Y-131345044D01*
X104128294Y-131216236D01*
X104292236Y-131052294D01*
X104421044Y-130859519D01*
X104509769Y-130645318D01*
X104555000Y-130417924D01*
X104555000Y-130186076D01*
X104509769Y-129958682D01*
X104421044Y-129744481D01*
X104292236Y-129551706D01*
X104128294Y-129387764D01*
X103935519Y-129258956D01*
X103721318Y-129170231D01*
X103493924Y-129125000D01*
X103262076Y-129125000D01*
X103034682Y-129170231D01*
X102820481Y-129258956D01*
X102627706Y-129387764D01*
X102463764Y-129551706D01*
X102334956Y-129744481D01*
X102246231Y-129958682D01*
X102201000Y-130186076D01*
X102015000Y-130186076D01*
X101969769Y-129958682D01*
X101881044Y-129744481D01*
X101752236Y-129551706D01*
X101588294Y-129387764D01*
X101395519Y-129258956D01*
X101181318Y-129170231D01*
X100953924Y-129125000D01*
X100722076Y-129125000D01*
X100494682Y-129170231D01*
X100280481Y-129258956D01*
X100087706Y-129387764D01*
X99923764Y-129551706D01*
X99794956Y-129744481D01*
X99706231Y-129958682D01*
X99661000Y-130186076D01*
X96450210Y-130186076D01*
X96464500Y-130168664D01*
X96513346Y-130077280D01*
X96543425Y-129978121D01*
X96553582Y-129875000D01*
X96553582Y-129475000D01*
X96543425Y-129371879D01*
X96513346Y-129272720D01*
X96464500Y-129181336D01*
X96398764Y-129101236D01*
X96318664Y-129035500D01*
X96256610Y-129002331D01*
X96318331Y-128969340D01*
X96401272Y-128901272D01*
X96469340Y-128818331D01*
X96519919Y-128723705D01*
X96551065Y-128621029D01*
X96561582Y-128514250D01*
X96561582Y-128076750D01*
X96551065Y-127969971D01*
X96519919Y-127867295D01*
X96469340Y-127772669D01*
X96401272Y-127689728D01*
X96318331Y-127621660D01*
X96223705Y-127571081D01*
X96121029Y-127539935D01*
X96014250Y-127529418D01*
X95501750Y-127529418D01*
X95394971Y-127539935D01*
X95292295Y-127571081D01*
X95197669Y-127621660D01*
X95114728Y-127689728D01*
X95046660Y-127772669D01*
X94996081Y-127867295D01*
X94964935Y-127969971D01*
X94954418Y-128076750D01*
X94954418Y-128514250D01*
X94964935Y-128621029D01*
X94996081Y-128723705D01*
X95046660Y-128818331D01*
X95114728Y-128901272D01*
X95197669Y-128969340D01*
X95251390Y-128998055D01*
X95181336Y-129035500D01*
X95101236Y-129101236D01*
X95035500Y-129181336D01*
X94986654Y-129272720D01*
X94956575Y-129371879D01*
X94946418Y-129475000D01*
X94946418Y-129875000D01*
X94949720Y-129908529D01*
X94900810Y-129882386D01*
X94815607Y-129856540D01*
X94749205Y-129850000D01*
X94727000Y-129847813D01*
X94704795Y-129850000D01*
X91764751Y-129850000D01*
X91721044Y-129744481D01*
X91642500Y-129626931D01*
X91642500Y-128437069D01*
X91721044Y-128319519D01*
X91809769Y-128105318D01*
X91855000Y-127877924D01*
X91855000Y-127646076D01*
X91809769Y-127418682D01*
X91721044Y-127204481D01*
X91592236Y-127011706D01*
X91492530Y-126912000D01*
X99659418Y-126912000D01*
X99659418Y-128612000D01*
X99665732Y-128676103D01*
X99684430Y-128737743D01*
X99714794Y-128794550D01*
X99755657Y-128844343D01*
X99805450Y-128885206D01*
X99862257Y-128915570D01*
X99923897Y-128934268D01*
X99988000Y-128940582D01*
X101688000Y-128940582D01*
X101752103Y-128934268D01*
X101813743Y-128915570D01*
X101870550Y-128885206D01*
X101920343Y-128844343D01*
X101961206Y-128794550D01*
X101991570Y-128737743D01*
X102010268Y-128676103D01*
X102016582Y-128612000D01*
X102016582Y-126912000D01*
X102010268Y-126847897D01*
X101991570Y-126786257D01*
X101961206Y-126729450D01*
X101920343Y-126679657D01*
X101870550Y-126638794D01*
X101813743Y-126608430D01*
X101752103Y-126589732D01*
X101688000Y-126583418D01*
X99988000Y-126583418D01*
X99923897Y-126589732D01*
X99862257Y-126608430D01*
X99805450Y-126638794D01*
X99755657Y-126679657D01*
X99714794Y-126729450D01*
X99684430Y-126786257D01*
X99665732Y-126847897D01*
X99659418Y-126912000D01*
X91492530Y-126912000D01*
X91428294Y-126847764D01*
X91235519Y-126718956D01*
X91021318Y-126630231D01*
X90793924Y-126585000D01*
X90562076Y-126585000D01*
X90334682Y-126630231D01*
X90120481Y-126718956D01*
X89927706Y-126847764D01*
X89763764Y-127011706D01*
X89634956Y-127204481D01*
X89546231Y-127418682D01*
X89501000Y-127646076D01*
X89501000Y-127877924D01*
X89546231Y-128105318D01*
X89634956Y-128319519D01*
X89713501Y-128437070D01*
X89713500Y-129626931D01*
X89634956Y-129744481D01*
X89546231Y-129958682D01*
X89501000Y-130186076D01*
X89501000Y-130417924D01*
X89546231Y-130645318D01*
X89634956Y-130859519D01*
X89763764Y-131052294D01*
X89927706Y-131216236D01*
X90120481Y-131345044D01*
X90334682Y-131433769D01*
X90562076Y-131479000D01*
X90793924Y-131479000D01*
X91021318Y-131433769D01*
X91235519Y-131345044D01*
X91428294Y-131216236D01*
X91592236Y-131052294D01*
X91721044Y-130859519D01*
X91764751Y-130754000D01*
X94539777Y-130754000D01*
X94946418Y-131160642D01*
X94946418Y-131525000D01*
X94956575Y-131628121D01*
X94986654Y-131727280D01*
X95019644Y-131788999D01*
X76064000Y-131788999D01*
X76064000Y-105173944D01*
X76115872Y-104644921D01*
X76264297Y-104153313D01*
X76505384Y-103699892D01*
X76829951Y-103301935D01*
X77225629Y-102974602D01*
X77677353Y-102730356D01*
X78167914Y-102578502D01*
X78695929Y-102523005D01*
X78697705Y-102522999D01*
X85715023Y-102522999D01*
X85715658Y-102522936D01*
X85719224Y-102522924D01*
X85735182Y-102521303D01*
X85751207Y-102521415D01*
X85756307Y-102520916D01*
X86338596Y-102459715D01*
X86371210Y-102453021D01*
X86403854Y-102446793D01*
X86408752Y-102445314D01*
X86408759Y-102445313D01*
X86408765Y-102445310D01*
X86968072Y-102272176D01*
X86998788Y-102259265D01*
X87029577Y-102246825D01*
X87034092Y-102244425D01*
X87034101Y-102244421D01*
X87034108Y-102244416D01*
X87549134Y-101965943D01*
X87576737Y-101947324D01*
X87604542Y-101929129D01*
X87608513Y-101925891D01*
X88059648Y-101552680D01*
X88083114Y-101529050D01*
X88106851Y-101505805D01*
X88110118Y-101501857D01*
X88480169Y-101048129D01*
X88498611Y-101020372D01*
X88517368Y-100992977D01*
X88519806Y-100988470D01*
X88794680Y-100471507D01*
X88807377Y-100440702D01*
X88820459Y-100410180D01*
X88821970Y-100405299D01*
X88821975Y-100405286D01*
X88821977Y-100405273D01*
X88991201Y-99844778D01*
X88997663Y-99812145D01*
X89004578Y-99779612D01*
X89005112Y-99774527D01*
X89005114Y-99774516D01*
X89005114Y-99774506D01*
X89062248Y-99191814D01*
X89062248Y-99191810D01*
X89064000Y-99174022D01*
X89064000Y-90173956D01*
X89115871Y-89644925D01*
X89264298Y-89153315D01*
X89505383Y-88699897D01*
X89829951Y-88301937D01*
X90225629Y-87974604D01*
X90677356Y-87730356D01*
X91167914Y-87578503D01*
X91695929Y-87523006D01*
X91697705Y-87523000D01*
X99679065Y-87523000D01*
X100208078Y-87574871D01*
%TA.AperFunction,Conductor*%
D22*
G36*
X100208078Y-87574871D02*
G01*
X100699686Y-87723296D01*
X101153107Y-87964383D01*
X101551064Y-88288950D01*
X101878397Y-88684628D01*
X102122643Y-89136352D01*
X102274497Y-89626913D01*
X102329994Y-90154928D01*
X102330001Y-90156990D01*
X102329999Y-99174021D01*
X102330062Y-99174656D01*
X102330074Y-99178223D01*
X102331695Y-99194181D01*
X102331583Y-99210206D01*
X102332082Y-99215306D01*
X102393283Y-99797595D01*
X102399983Y-99830234D01*
X102406205Y-99862854D01*
X102407684Y-99867751D01*
X102407685Y-99867758D01*
X102407688Y-99867764D01*
X102580823Y-100427073D01*
X102593730Y-100457777D01*
X102606173Y-100488576D01*
X102608577Y-100493097D01*
X102608579Y-100493102D01*
X102608582Y-100493106D01*
X102887055Y-101008133D01*
X102905655Y-101035709D01*
X102923869Y-101063543D01*
X102927108Y-101067514D01*
X103300318Y-101518647D01*
X103323948Y-101542113D01*
X103347193Y-101565850D01*
X103351135Y-101569111D01*
X103351141Y-101569117D01*
X103351148Y-101569121D01*
X103804869Y-101939169D01*
X103832600Y-101957593D01*
X103860021Y-101976369D01*
X103864528Y-101978806D01*
X104381493Y-102253680D01*
X104412272Y-102266367D01*
X104442819Y-102279459D01*
X104447704Y-102280971D01*
X104447714Y-102280975D01*
X104447724Y-102280977D01*
X105008221Y-102450201D01*
X105040854Y-102456663D01*
X105073387Y-102463578D01*
X105078472Y-102464112D01*
X105078483Y-102464114D01*
X105078493Y-102464114D01*
X105661185Y-102521248D01*
X105661200Y-102521248D01*
X105678978Y-102522999D01*
X112000240Y-102522999D01*
X113206129Y-102574680D01*
X113208077Y-102574871D01*
X113699685Y-102723295D01*
X114153107Y-102964384D01*
X114551063Y-103288950D01*
X114878397Y-103684629D01*
X115122643Y-104136353D01*
X115274497Y-104626914D01*
X115329994Y-105154929D01*
X115330001Y-105156992D01*
X115330000Y-116759902D01*
X115219440Y-116669168D01*
X115051884Y-116579607D01*
X114913046Y-116537491D01*
X113013124Y-114637571D01*
X113064000Y-114642582D01*
X113964000Y-114642582D01*
X114028103Y-114636268D01*
X114089743Y-114617570D01*
X114146550Y-114587206D01*
X114196343Y-114546343D01*
X114237206Y-114496550D01*
X114267570Y-114439743D01*
X114286268Y-114378103D01*
X114292582Y-114314000D01*
X114292582Y-114053607D01*
X114363788Y-113966843D01*
X114440581Y-113823174D01*
X114487870Y-113667284D01*
X114499836Y-113545788D01*
X114499836Y-113545779D01*
X114503836Y-113505165D01*
X114499836Y-113464551D01*
X114499836Y-109387613D01*
X114503836Y-109346999D01*
X114499836Y-109306385D01*
X114499836Y-109306376D01*
X114487870Y-109184880D01*
X114440581Y-109028990D01*
X114382492Y-108920313D01*
X114363788Y-108885319D01*
X114286338Y-108790948D01*
X114286337Y-108790947D01*
X114260442Y-108759394D01*
X114228890Y-108733500D01*
X112828000Y-107332611D01*
X112828000Y-107239525D01*
X112829033Y-107236120D01*
X112845000Y-107074000D01*
X112829033Y-106911880D01*
X112828000Y-106908475D01*
X112828000Y-105958624D01*
X112832001Y-105918000D01*
X112816034Y-105755880D01*
X112774873Y-105620192D01*
X112768945Y-105560002D01*
X112737443Y-105456153D01*
X112686287Y-105360446D01*
X112617442Y-105276558D01*
X112533554Y-105207713D01*
X112437847Y-105156557D01*
X112333998Y-105125055D01*
X112226000Y-105114418D01*
X112200872Y-105114418D01*
X112163120Y-105102966D01*
X112041624Y-105091000D01*
X112001000Y-105086999D01*
X111960376Y-105091000D01*
X106046000Y-105091000D01*
X106046000Y-104988376D01*
X106034034Y-104866880D01*
X105986745Y-104710990D01*
X105914869Y-104576519D01*
X105907346Y-104551720D01*
X105858500Y-104460336D01*
X105792764Y-104380236D01*
X105712664Y-104314500D01*
X105621280Y-104265654D01*
X105522121Y-104235575D01*
X105419000Y-104225418D01*
X105418871Y-104225418D01*
X105381119Y-104213966D01*
X105219000Y-104197999D01*
X105056880Y-104213966D01*
X105019128Y-104225418D01*
X105019000Y-104225418D01*
X104915879Y-104235575D01*
X104816720Y-104265654D01*
X104725336Y-104314500D01*
X104645236Y-104380236D01*
X104579500Y-104460336D01*
X104530654Y-104551720D01*
X104523131Y-104576522D01*
X104451255Y-104710991D01*
X104403966Y-104866881D01*
X104392000Y-104988377D01*
X104392000Y-105593000D01*
X104210993Y-105593000D01*
X104257346Y-105506280D01*
X104287425Y-105407121D01*
X104297582Y-105304000D01*
X104297582Y-104754000D01*
X104287425Y-104650879D01*
X104257346Y-104551720D01*
X104208500Y-104460336D01*
X104142764Y-104380236D01*
X104062664Y-104314500D01*
X103971280Y-104265654D01*
X103872121Y-104235575D01*
X103769000Y-104225418D01*
X103369000Y-104225418D01*
X103265879Y-104235575D01*
X103166720Y-104265654D01*
X103075336Y-104314500D01*
X102995236Y-104380236D01*
X102929500Y-104460336D01*
X102880654Y-104551720D01*
X102872986Y-104577000D01*
X99969791Y-104577000D01*
X99947588Y-104574813D01*
X99925385Y-104577000D01*
X99925384Y-104577000D01*
X99858982Y-104583540D01*
X99773779Y-104609386D01*
X99695256Y-104651357D01*
X99626430Y-104707841D01*
X99612275Y-104725089D01*
X90196100Y-114141266D01*
X90178841Y-114155430D01*
X90122357Y-114224257D01*
X90107739Y-114251606D01*
X90080386Y-114302780D01*
X90054540Y-114387982D01*
X90045813Y-114476589D01*
X90048000Y-114498794D01*
X90048001Y-115987318D01*
X90046430Y-115990257D01*
X90027732Y-116051897D01*
X90021418Y-116116000D01*
X90021418Y-117216000D01*
X90027732Y-117280103D01*
X90032140Y-117294636D01*
X89900235Y-117426541D01*
X89923206Y-117398550D01*
X89953570Y-117341743D01*
X89972268Y-117280103D01*
X89978582Y-117216000D01*
X89978582Y-116116000D01*
X89972268Y-116051897D01*
X89953570Y-115990257D01*
X89923206Y-115933450D01*
X89882343Y-115883657D01*
X89832550Y-115842794D01*
X89775743Y-115812430D01*
X89714103Y-115793732D01*
X89650000Y-115787418D01*
X89350000Y-115787418D01*
X89285897Y-115793732D01*
X89224257Y-115812430D01*
X89167450Y-115842794D01*
X89117657Y-115883657D01*
X89076794Y-115933450D01*
X89046430Y-115990257D01*
X89027732Y-116051897D01*
X89021418Y-116116000D01*
X89021418Y-117216000D01*
X89027732Y-117280103D01*
X89046430Y-117341743D01*
X89076794Y-117398550D01*
X89117657Y-117448343D01*
X89167450Y-117489206D01*
X89224257Y-117519570D01*
X89285897Y-117538268D01*
X89350000Y-117544582D01*
X89650000Y-117544582D01*
X89714103Y-117538268D01*
X89775743Y-117519570D01*
X89832550Y-117489206D01*
X89860541Y-117466235D01*
X82541811Y-124784966D01*
X80525238Y-124784966D01*
X80503033Y-124782779D01*
X80414426Y-124791506D01*
X80394596Y-124797522D01*
X80329224Y-124817352D01*
X80250701Y-124859323D01*
X80181875Y-124915807D01*
X80167720Y-124933055D01*
X78517358Y-126583418D01*
X77128000Y-126583418D01*
X77063897Y-126589732D01*
X77002257Y-126608430D01*
X76945450Y-126638794D01*
X76895657Y-126679657D01*
X76854794Y-126729450D01*
X76824430Y-126786257D01*
X76805732Y-126847897D01*
X76799418Y-126912000D01*
X76799418Y-128612000D01*
X76805732Y-128676103D01*
X76824430Y-128737743D01*
X76854794Y-128794550D01*
X76895657Y-128844343D01*
X76945450Y-128885206D01*
X77002257Y-128915570D01*
X77063897Y-128934268D01*
X77128000Y-128940582D01*
X78700193Y-128940582D01*
X78426837Y-129213939D01*
X78321318Y-129170231D01*
X78093924Y-129125000D01*
X77862076Y-129125000D01*
X77634682Y-129170231D01*
X77420481Y-129258956D01*
X77227706Y-129387764D01*
X77063764Y-129551706D01*
X76934956Y-129744481D01*
X76846231Y-129958682D01*
X76801000Y-130186076D01*
X76801000Y-130417924D01*
X76846231Y-130645318D01*
X76934956Y-130859519D01*
X77063764Y-131052294D01*
X77227706Y-131216236D01*
X77420481Y-131345044D01*
X77634682Y-131433769D01*
X77862076Y-131479000D01*
X78093924Y-131479000D01*
X78321318Y-131433769D01*
X78535519Y-131345044D01*
X78728294Y-131216236D01*
X78892236Y-131052294D01*
X79021044Y-130859519D01*
X79109769Y-130645318D01*
X79155000Y-130417924D01*
X79155000Y-130186076D01*
X79109769Y-129958682D01*
X79066061Y-129853163D01*
X79646911Y-129272314D01*
X79664158Y-129258160D01*
X79720642Y-129189334D01*
X79762613Y-129110811D01*
X79765518Y-129101236D01*
X79788459Y-129025609D01*
X79797186Y-128937002D01*
X79794999Y-128914797D01*
X79794999Y-128694473D01*
X79960481Y-128805044D01*
X80174682Y-128893769D01*
X80402076Y-128939000D01*
X80633924Y-128939000D01*
X80861318Y-128893769D01*
X81075519Y-128805044D01*
X81268294Y-128676236D01*
X81336000Y-128608530D01*
X81336000Y-128844775D01*
X80966837Y-129213939D01*
X80861318Y-129170231D01*
X80633924Y-129125000D01*
X80402076Y-129125000D01*
X80174682Y-129170231D01*
X79960481Y-129258956D01*
X79767706Y-129387764D01*
X79603764Y-129551706D01*
X79474956Y-129744481D01*
X79386231Y-129958682D01*
X79341000Y-130186076D01*
X79341000Y-130417924D01*
X79386231Y-130645318D01*
X79474956Y-130859519D01*
X79603764Y-131052294D01*
X79767706Y-131216236D01*
X79960481Y-131345044D01*
X80174682Y-131433769D01*
X80402076Y-131479000D01*
X80633924Y-131479000D01*
X80861318Y-131433769D01*
X81075519Y-131345044D01*
X81268294Y-131216236D01*
X81432236Y-131052294D01*
X81561044Y-130859519D01*
X81649769Y-130645318D01*
X81695000Y-130417924D01*
X81695000Y-130186076D01*
X81649769Y-129958682D01*
X81606061Y-129853163D01*
X82091912Y-129367313D01*
X82109159Y-129353159D01*
X82165643Y-129284333D01*
X82207614Y-129205810D01*
X82231521Y-129126999D01*
X82233460Y-129120608D01*
X82242187Y-129032001D01*
X82240000Y-129009796D01*
X82240000Y-128608530D01*
X82307706Y-128676236D01*
X82500481Y-128805044D01*
X82714682Y-128893769D01*
X82942076Y-128939000D01*
X83173924Y-128939000D01*
X83401318Y-128893769D01*
X83615519Y-128805044D01*
X83781001Y-128694472D01*
X83781001Y-128939774D01*
X83506837Y-129213939D01*
X83401318Y-129170231D01*
X83173924Y-129125000D01*
X82942076Y-129125000D01*
X82714682Y-129170231D01*
X82500481Y-129258956D01*
X82307706Y-129387764D01*
X82143764Y-129551706D01*
X82014956Y-129744481D01*
X81926231Y-129958682D01*
X81881000Y-130186076D01*
X81881000Y-130417924D01*
X81926231Y-130645318D01*
X82014956Y-130859519D01*
X82143764Y-131052294D01*
X82307706Y-131216236D01*
X82500481Y-131345044D01*
X82714682Y-131433769D01*
X82942076Y-131479000D01*
X83173924Y-131479000D01*
X83401318Y-131433769D01*
X83615519Y-131345044D01*
X83808294Y-131216236D01*
X83972236Y-131052294D01*
X84101044Y-130859519D01*
X84189769Y-130645318D01*
X84235000Y-130417924D01*
X84235000Y-130186076D01*
X84189769Y-129958682D01*
X84146061Y-129853163D01*
X84536913Y-129462312D01*
X84554160Y-129448158D01*
X84610644Y-129379332D01*
X84652615Y-129300809D01*
X84678461Y-129215606D01*
X84679426Y-129205809D01*
X84687188Y-129127000D01*
X84685001Y-129104795D01*
X84685001Y-128513531D01*
X84847706Y-128676236D01*
X85040481Y-128805044D01*
X85254682Y-128893769D01*
X85482076Y-128939000D01*
X85713924Y-128939000D01*
X85941318Y-128893769D01*
X86155519Y-128805044D01*
X86321002Y-128694472D01*
X86321002Y-128939773D01*
X86046837Y-129213939D01*
X85941318Y-129170231D01*
X85713924Y-129125000D01*
X85482076Y-129125000D01*
X85254682Y-129170231D01*
X85040481Y-129258956D01*
X84847706Y-129387764D01*
X84683764Y-129551706D01*
X84554956Y-129744481D01*
X84466231Y-129958682D01*
X84421000Y-130186076D01*
X84421000Y-130417924D01*
X84466231Y-130645318D01*
X84554956Y-130859519D01*
X84683764Y-131052294D01*
X84847706Y-131216236D01*
X85040481Y-131345044D01*
X85254682Y-131433769D01*
X85482076Y-131479000D01*
X85713924Y-131479000D01*
X85941318Y-131433769D01*
X86155519Y-131345044D01*
X86348294Y-131216236D01*
X86512236Y-131052294D01*
X86641044Y-130859519D01*
X86729769Y-130645318D01*
X86775000Y-130417924D01*
X86775000Y-130186076D01*
X86729769Y-129958682D01*
X86686061Y-129853163D01*
X87076911Y-129462314D01*
X87094160Y-129448158D01*
X87150644Y-129379332D01*
X87192615Y-129300809D01*
X87218461Y-129215606D01*
X87219426Y-129205809D01*
X87227188Y-129127000D01*
X87225001Y-129104795D01*
X87225001Y-127410632D01*
X88580635Y-126055000D01*
X91980795Y-126055000D01*
X92003000Y-126057187D01*
X92025205Y-126055000D01*
X92091607Y-126048460D01*
X92176810Y-126022614D01*
X92255333Y-125980643D01*
X92324159Y-125924159D01*
X92338323Y-125906900D01*
X97816451Y-120428773D01*
X97833705Y-120414613D01*
X97890189Y-120345787D01*
X97924804Y-120281027D01*
X102926000Y-125282224D01*
X102926001Y-126675248D01*
X102820481Y-126718956D01*
X102627706Y-126847764D01*
X102463764Y-127011706D01*
X102334956Y-127204481D01*
X102246231Y-127418682D01*
X102201000Y-127646076D01*
X102201000Y-127877924D01*
X102246231Y-128105318D01*
X102334956Y-128319519D01*
X102463764Y-128512294D01*
X102627706Y-128676236D01*
X102820481Y-128805044D01*
X103034682Y-128893769D01*
X103262076Y-128939000D01*
X103493924Y-128939000D01*
X103721318Y-128893769D01*
X103935519Y-128805044D01*
X104128294Y-128676236D01*
X104291000Y-128513530D01*
X104291000Y-129104784D01*
X104288812Y-129126999D01*
X104297539Y-129215606D01*
X104323385Y-129300808D01*
X104361373Y-129371879D01*
X104365357Y-129379332D01*
X104421841Y-129448158D01*
X104439095Y-129462318D01*
X104829939Y-129853162D01*
X104786231Y-129958682D01*
X104741000Y-130186076D01*
X104741000Y-130417924D01*
X104786231Y-130645318D01*
X104874956Y-130859519D01*
X105003764Y-131052294D01*
X105167706Y-131216236D01*
X105360481Y-131345044D01*
X105574682Y-131433769D01*
X105802076Y-131479000D01*
X106033924Y-131479000D01*
X106261318Y-131433769D01*
X106475519Y-131345044D01*
X106668294Y-131216236D01*
X106832236Y-131052294D01*
X106961044Y-130859519D01*
X107049769Y-130645318D01*
X107095000Y-130417924D01*
X107095000Y-130186076D01*
X107049769Y-129958682D01*
X106961044Y-129744481D01*
X106832236Y-129551706D01*
X106668294Y-129387764D01*
X106475519Y-129258956D01*
X106261318Y-129170231D01*
X106033924Y-129125000D01*
X105802076Y-129125000D01*
X105574682Y-129170231D01*
X105469162Y-129213939D01*
X105194999Y-128939776D01*
X105194999Y-128694473D01*
X105360481Y-128805044D01*
X105574682Y-128893769D01*
X105802076Y-128939000D01*
X106033924Y-128939000D01*
X106261318Y-128893769D01*
X106475519Y-128805044D01*
X106668294Y-128676236D01*
X106831000Y-128513530D01*
X106831000Y-129104784D01*
X106828812Y-129126999D01*
X106837539Y-129215606D01*
X106863385Y-129300808D01*
X106901373Y-129371879D01*
X106905357Y-129379332D01*
X106961841Y-129448158D01*
X106979095Y-129462318D01*
X107369939Y-129853162D01*
X107326231Y-129958682D01*
X107281000Y-130186076D01*
X107281000Y-130417924D01*
X107326231Y-130645318D01*
X107414956Y-130859519D01*
X107543764Y-131052294D01*
X107707706Y-131216236D01*
X107900481Y-131345044D01*
X108114682Y-131433769D01*
X108342076Y-131479000D01*
X108573924Y-131479000D01*
X108801318Y-131433769D01*
X109015519Y-131345044D01*
X109208294Y-131216236D01*
X109372236Y-131052294D01*
X109501044Y-130859519D01*
X109589769Y-130645318D01*
X109635000Y-130417924D01*
X109635000Y-130186076D01*
X109589769Y-129958682D01*
X109501044Y-129744481D01*
X109372236Y-129551706D01*
X109208294Y-129387764D01*
X109015519Y-129258956D01*
X108801318Y-129170231D01*
X108573924Y-129125000D01*
X108342076Y-129125000D01*
X108114682Y-129170231D01*
X108009162Y-129213939D01*
X107734999Y-128939776D01*
X107734999Y-128694473D01*
X107900481Y-128805044D01*
X108114682Y-128893769D01*
X108342076Y-128939000D01*
X108573924Y-128939000D01*
X108801318Y-128893769D01*
X109015519Y-128805044D01*
X109208294Y-128676236D01*
X109372236Y-128512294D01*
X109501044Y-128319519D01*
X109589769Y-128105318D01*
X109635000Y-127877924D01*
X109635000Y-127646076D01*
X109589769Y-127418682D01*
X109501044Y-127204481D01*
X109372236Y-127011706D01*
X109208294Y-126847764D01*
X109015519Y-126718956D01*
X108851969Y-126651211D01*
X108835643Y-126620667D01*
X108779159Y-126551841D01*
X108761911Y-126537686D01*
X100452000Y-118227777D01*
X100452000Y-117544582D01*
X100650000Y-117544582D01*
X100714103Y-117538268D01*
X100775743Y-117519570D01*
X100832550Y-117489206D01*
X100882343Y-117448343D01*
X100923206Y-117398550D01*
X100953570Y-117341743D01*
X100972268Y-117280103D01*
X100978582Y-117216000D01*
X100978582Y-116116000D01*
X100972268Y-116051897D01*
X100953570Y-115990257D01*
X100952000Y-115987320D01*
X100952000Y-115635205D01*
X100954187Y-115613000D01*
X100945460Y-115524392D01*
X100919614Y-115439190D01*
X100889334Y-115382540D01*
X100877643Y-115360667D01*
X100821159Y-115291841D01*
X100803905Y-115277681D01*
X100800317Y-115274093D01*
X100803000Y-115260603D01*
X100803000Y-115117397D01*
X100775062Y-114976942D01*
X100720259Y-114844636D01*
X100640698Y-114725564D01*
X100539436Y-114624302D01*
X100420364Y-114544741D01*
X100288058Y-114489938D01*
X100147603Y-114462000D01*
X100004397Y-114462000D01*
X99863942Y-114489938D01*
X99731636Y-114544741D01*
X99612564Y-114624302D01*
X99511302Y-114725564D01*
X99431741Y-114844636D01*
X99376938Y-114976942D01*
X99349000Y-115117397D01*
X99349000Y-115260603D01*
X99376938Y-115401058D01*
X99431741Y-115533364D01*
X99511302Y-115652436D01*
X99612564Y-115753698D01*
X99665283Y-115788923D01*
X99650000Y-115787418D01*
X99350000Y-115787418D01*
X99285897Y-115793732D01*
X99250000Y-115804621D01*
X99214103Y-115793732D01*
X99150000Y-115787418D01*
X98850000Y-115787418D01*
X98785897Y-115793732D01*
X98750000Y-115804621D01*
X98714103Y-115793732D01*
X98650000Y-115787418D01*
X98350000Y-115787418D01*
X98285897Y-115793732D01*
X98250000Y-115804621D01*
X98214103Y-115793732D01*
X98150000Y-115787418D01*
X97850000Y-115787418D01*
X97785897Y-115793732D01*
X97750000Y-115804621D01*
X97714103Y-115793732D01*
X97650000Y-115787418D01*
X97350000Y-115787418D01*
X97285897Y-115793732D01*
X97250000Y-115804621D01*
X97214103Y-115793732D01*
X97150000Y-115787418D01*
X96850000Y-115787418D01*
X96785897Y-115793732D01*
X96724257Y-115812430D01*
X96667450Y-115842794D01*
X96617657Y-115883657D01*
X96576794Y-115933450D01*
X96546430Y-115990257D01*
X96527732Y-116051897D01*
X96521418Y-116116000D01*
X96521418Y-117216000D01*
X96527732Y-117280103D01*
X96546430Y-117341743D01*
X96548000Y-117344681D01*
X96548001Y-118418942D01*
X96452000Y-118458707D01*
X96452000Y-117344680D01*
X96453570Y-117341743D01*
X96472268Y-117280103D01*
X96478582Y-117216000D01*
X96478582Y-116116000D01*
X96472268Y-116051897D01*
X96453570Y-115990257D01*
X96423206Y-115933450D01*
X96382343Y-115883657D01*
X96332550Y-115842794D01*
X96275743Y-115812430D01*
X96214103Y-115793732D01*
X96177133Y-115790091D01*
X97723224Y-114244000D01*
X100523777Y-114244000D01*
X101275001Y-114995225D01*
X101275000Y-117134795D01*
X101272813Y-117157000D01*
X101281540Y-117245607D01*
X101295628Y-117292048D01*
X101307386Y-117330809D01*
X101349357Y-117409332D01*
X101405841Y-117478159D01*
X101423100Y-117492323D01*
X102332418Y-118401642D01*
X102332418Y-118766000D01*
X102342575Y-118869121D01*
X102372654Y-118968280D01*
X102421500Y-119059664D01*
X102487236Y-119139764D01*
X102567336Y-119205500D01*
X102658720Y-119254346D01*
X102757879Y-119284425D01*
X102861000Y-119294582D01*
X103261000Y-119294582D01*
X103364121Y-119284425D01*
X103463280Y-119254346D01*
X103554664Y-119205500D01*
X103634764Y-119139764D01*
X103700500Y-119059664D01*
X103749346Y-118968280D01*
X103779425Y-118869121D01*
X103789582Y-118766000D01*
X103789582Y-118216000D01*
X103779425Y-118112879D01*
X103749346Y-118013720D01*
X103700500Y-117922336D01*
X103634764Y-117842236D01*
X103554664Y-117776500D01*
X103463280Y-117727654D01*
X103364121Y-117697575D01*
X103261000Y-117687418D01*
X102896642Y-117687418D01*
X102179000Y-116969777D01*
X102179000Y-114830205D01*
X102181187Y-114808000D01*
X102172460Y-114719392D01*
X102146614Y-114634190D01*
X102138543Y-114619090D01*
X102104643Y-114555667D01*
X102048159Y-114486841D01*
X102030905Y-114472681D01*
X101046323Y-113488100D01*
X101032159Y-113470841D01*
X100963333Y-113414357D01*
X100884810Y-113372386D01*
X100799607Y-113346540D01*
X100733205Y-113340000D01*
X100711000Y-113337813D01*
X100688795Y-113340000D01*
X97558205Y-113340000D01*
X97536000Y-113337813D01*
X97447392Y-113346540D01*
X97362190Y-113372386D01*
X97283667Y-113414357D01*
X97214841Y-113470841D01*
X97200681Y-113488095D01*
X95196100Y-115492677D01*
X95178841Y-115506841D01*
X95122358Y-115575667D01*
X95080386Y-115654191D01*
X95054540Y-115739393D01*
X95049810Y-115787418D01*
X94952000Y-115787418D01*
X94952000Y-115110223D01*
X98485225Y-111577000D01*
X100011661Y-111577000D01*
X100019302Y-111588436D01*
X100120564Y-111689698D01*
X100239636Y-111769259D01*
X100371942Y-111824062D01*
X100512397Y-111852000D01*
X100655603Y-111852000D01*
X100796058Y-111824062D01*
X100928364Y-111769259D01*
X101047436Y-111689698D01*
X101148698Y-111588436D01*
X101156339Y-111577000D01*
X104117795Y-111577000D01*
X104140000Y-111579187D01*
X104162205Y-111577000D01*
X104228607Y-111570460D01*
X104313810Y-111544614D01*
X104388480Y-111504703D01*
X107813001Y-114929225D01*
X107813001Y-115754418D01*
X107665000Y-115754418D01*
X107600897Y-115760732D01*
X107539257Y-115779430D01*
X107482450Y-115809794D01*
X107432657Y-115850657D01*
X107391794Y-115900450D01*
X107361430Y-115957257D01*
X107342732Y-116018897D01*
X107336418Y-116083000D01*
X107336418Y-117483000D01*
X107341184Y-117531392D01*
X107337205Y-117531000D01*
X107315000Y-117528813D01*
X107292795Y-117531000D01*
X107288854Y-117531000D01*
X107293582Y-117483000D01*
X107293582Y-116083000D01*
X107287268Y-116018897D01*
X107268570Y-115957257D01*
X107238206Y-115900450D01*
X107197343Y-115850657D01*
X107147550Y-115809794D01*
X107090743Y-115779430D01*
X107029103Y-115760732D01*
X106965000Y-115754418D01*
X105765000Y-115754418D01*
X105700897Y-115760732D01*
X105639257Y-115779430D01*
X105582450Y-115809794D01*
X105532657Y-115850657D01*
X105491794Y-115900450D01*
X105461430Y-115957257D01*
X105442732Y-116018897D01*
X105436418Y-116083000D01*
X105436418Y-117483000D01*
X105441146Y-117531000D01*
X105241202Y-117531000D01*
X105218999Y-117528813D01*
X105196796Y-117531000D01*
X105196795Y-117531000D01*
X105130393Y-117537540D01*
X105045190Y-117563386D01*
X104966667Y-117605357D01*
X104897841Y-117661841D01*
X104883685Y-117679090D01*
X104875357Y-117687418D01*
X104511000Y-117687418D01*
X104407879Y-117697575D01*
X104308720Y-117727654D01*
X104217336Y-117776500D01*
X104137236Y-117842236D01*
X104071500Y-117922336D01*
X104022654Y-118013720D01*
X103992575Y-118112879D01*
X103982418Y-118216000D01*
X103982418Y-118766000D01*
X103992575Y-118869121D01*
X104022654Y-118968280D01*
X104071500Y-119059664D01*
X104137236Y-119139764D01*
X104217336Y-119205500D01*
X104308720Y-119254346D01*
X104407879Y-119284425D01*
X104511000Y-119294582D01*
X104911000Y-119294582D01*
X105014121Y-119284425D01*
X105113280Y-119254346D01*
X105204664Y-119205500D01*
X105284764Y-119139764D01*
X105350500Y-119059664D01*
X105399346Y-118968280D01*
X105429425Y-118869121D01*
X105439582Y-118766000D01*
X105439582Y-118435000D01*
X107127777Y-118435000D01*
X107336418Y-118643641D01*
X107336418Y-119883000D01*
X107342732Y-119947103D01*
X107361430Y-120008743D01*
X107391794Y-120065550D01*
X107432657Y-120115343D01*
X107482450Y-120156206D01*
X107539257Y-120186570D01*
X107600897Y-120205268D01*
X107665000Y-120211582D01*
X108865000Y-120211582D01*
X108929103Y-120205268D01*
X108990743Y-120186570D01*
X109047550Y-120156206D01*
X109097343Y-120115343D01*
X109138206Y-120065550D01*
X109168570Y-120008743D01*
X109187268Y-119947103D01*
X109193582Y-119883000D01*
X109193582Y-118483000D01*
X109187268Y-118418897D01*
X109168570Y-118357257D01*
X109138206Y-118300450D01*
X109097343Y-118250657D01*
X109047550Y-118209794D01*
X108990743Y-118179430D01*
X108929103Y-118160732D01*
X108865000Y-118154418D01*
X108125642Y-118154418D01*
X107782805Y-117811582D01*
X108865000Y-117811582D01*
X108929103Y-117805268D01*
X108990743Y-117786570D01*
X109047550Y-117756206D01*
X109097343Y-117715343D01*
X109138206Y-117665550D01*
X109168570Y-117608743D01*
X109187268Y-117547103D01*
X109193582Y-117483000D01*
X109193582Y-116083000D01*
X109187268Y-116018897D01*
X109168570Y-115957257D01*
X109138206Y-115900450D01*
X109097343Y-115850657D01*
X109047550Y-115809794D01*
X108990743Y-115779430D01*
X108929103Y-115760732D01*
X108865000Y-115754418D01*
X108717000Y-115754418D01*
X108717000Y-114764205D01*
X108719187Y-114742000D01*
X108710460Y-114653392D01*
X108684614Y-114568190D01*
X108677920Y-114555666D01*
X108642643Y-114489667D01*
X108586159Y-114420841D01*
X108568905Y-114406681D01*
X104846000Y-110683777D01*
X104846000Y-109597223D01*
X105046376Y-109396847D01*
X105056881Y-109400034D01*
X105219000Y-109416001D01*
X105381120Y-109400034D01*
X105418872Y-109388582D01*
X105419000Y-109388582D01*
X105522121Y-109378425D01*
X105621280Y-109348346D01*
X105712664Y-109299500D01*
X105792764Y-109233764D01*
X105858500Y-109153664D01*
X105907346Y-109062280D01*
X105914869Y-109037481D01*
X105986745Y-108903010D01*
X106034034Y-108747120D01*
X106046000Y-108625624D01*
X106046000Y-106745000D01*
X111174001Y-106745000D01*
X111174000Y-107020382D01*
X111170000Y-107061000D01*
X111174000Y-107101617D01*
X111174000Y-107634550D01*
X111170000Y-107675164D01*
X111174000Y-107715778D01*
X111174000Y-107715787D01*
X111185966Y-107837283D01*
X111233255Y-107993173D01*
X111233256Y-107993174D01*
X111310048Y-108136843D01*
X111322723Y-108152287D01*
X111413394Y-108262770D01*
X111444952Y-108288669D01*
X112541700Y-109385418D01*
X111147500Y-109385418D01*
X111083397Y-109391732D01*
X111021757Y-109410430D01*
X110964950Y-109440794D01*
X110915157Y-109481657D01*
X110874294Y-109531450D01*
X110843930Y-109588257D01*
X110825232Y-109649897D01*
X110818918Y-109714000D01*
X110818918Y-112839000D01*
X110825232Y-112903103D01*
X110843930Y-112964743D01*
X110874294Y-113021550D01*
X110915157Y-113071343D01*
X110964950Y-113112206D01*
X111021757Y-113142570D01*
X111083397Y-113161268D01*
X111147500Y-113167582D01*
X111235418Y-113167582D01*
X111235418Y-113294218D01*
X111198967Y-113414380D01*
X111187001Y-113535876D01*
X111187000Y-114767386D01*
X111183000Y-114808000D01*
X111187000Y-114848614D01*
X111187000Y-114848623D01*
X111198966Y-114970119D01*
X111246255Y-115126009D01*
X111279925Y-115189000D01*
X111323048Y-115269679D01*
X111358158Y-115312460D01*
X111426394Y-115395606D01*
X111457952Y-115421505D01*
X113716501Y-117680056D01*
X113716500Y-123679491D01*
X113446073Y-123949918D01*
X113082082Y-123949918D01*
X113082082Y-120978500D01*
X113075768Y-120914397D01*
X113057070Y-120852757D01*
X113026706Y-120795950D01*
X112985843Y-120746157D01*
X112936050Y-120705294D01*
X112879243Y-120674930D01*
X112817603Y-120656232D01*
X112753500Y-120649918D01*
X112714000Y-120649918D01*
X112714000Y-118417613D01*
X112718000Y-118376999D01*
X112714000Y-118336385D01*
X112714000Y-118336376D01*
X112702034Y-118214880D01*
X112654745Y-118058990D01*
X112605232Y-117966358D01*
X112577952Y-117915320D01*
X112517972Y-117842236D01*
X112474606Y-117789394D01*
X112443048Y-117763495D01*
X112241956Y-117562403D01*
X112229443Y-117521153D01*
X112178287Y-117425446D01*
X112109442Y-117341558D01*
X112025554Y-117272713D01*
X111929847Y-117221557D01*
X111825998Y-117190055D01*
X111718000Y-117179418D01*
X111692869Y-117179418D01*
X111655120Y-117167967D01*
X111493000Y-117152000D01*
X111330880Y-117167967D01*
X111293131Y-117179418D01*
X111268000Y-117179418D01*
X111160002Y-117190055D01*
X111056153Y-117221557D01*
X110960446Y-117272713D01*
X110876558Y-117341558D01*
X110807713Y-117425446D01*
X110756557Y-117521153D01*
X110753570Y-117531000D01*
X110385204Y-117531000D01*
X110362999Y-117528813D01*
X110304265Y-117534598D01*
X110180603Y-117510000D01*
X110037397Y-117510000D01*
X109896942Y-117537938D01*
X109764636Y-117592741D01*
X109645564Y-117672302D01*
X109544302Y-117773564D01*
X109464741Y-117892636D01*
X109409938Y-118024942D01*
X109382000Y-118165397D01*
X109382000Y-118308603D01*
X109409938Y-118449058D01*
X109464741Y-118581364D01*
X109544302Y-118700436D01*
X109645564Y-118801698D01*
X109764636Y-118881259D01*
X109896942Y-118936062D01*
X110037397Y-118964000D01*
X110180603Y-118964000D01*
X110321058Y-118936062D01*
X110453364Y-118881259D01*
X110572436Y-118801698D01*
X110673698Y-118700436D01*
X110753259Y-118581364D01*
X110786557Y-118500974D01*
X110807713Y-118540554D01*
X110876558Y-118624442D01*
X110960446Y-118693287D01*
X111056153Y-118744443D01*
X111057989Y-118745000D01*
X111056153Y-118745557D01*
X110960446Y-118796713D01*
X110876558Y-118865558D01*
X110807713Y-118949446D01*
X110756557Y-119045153D01*
X110725055Y-119149002D01*
X110714418Y-119257000D01*
X110714418Y-119757000D01*
X110725055Y-119864998D01*
X110756557Y-119968847D01*
X110807713Y-120064554D01*
X110876558Y-120148442D01*
X110960446Y-120217287D01*
X111056153Y-120268443D01*
X111060001Y-120269610D01*
X111060001Y-120649918D01*
X111020500Y-120649918D01*
X110956397Y-120656232D01*
X110894757Y-120674930D01*
X110837950Y-120705294D01*
X110788157Y-120746157D01*
X110747294Y-120795950D01*
X110716930Y-120852757D01*
X110698232Y-120914397D01*
X110691918Y-120978500D01*
X110691918Y-124103500D01*
X110698232Y-124167603D01*
X110716930Y-124229243D01*
X110747294Y-124286050D01*
X110788157Y-124335843D01*
X110837950Y-124376706D01*
X110894757Y-124407070D01*
X110956397Y-124425768D01*
X111020500Y-124432082D01*
X111060000Y-124432082D01*
X111060000Y-124881623D01*
X111071966Y-125003119D01*
X111108418Y-125123284D01*
X111108418Y-125578500D01*
X111114732Y-125642603D01*
X111133430Y-125704243D01*
X111163794Y-125761050D01*
X111204657Y-125810843D01*
X111254450Y-125851706D01*
X111311257Y-125882070D01*
X111372897Y-125900768D01*
X111437000Y-125907082D01*
X112337000Y-125907082D01*
X112401103Y-125900768D01*
X112462743Y-125882070D01*
X112519550Y-125851706D01*
X112569343Y-125810843D01*
X112573501Y-125805777D01*
X112573500Y-127086931D01*
X112494956Y-127204481D01*
X112406231Y-127418682D01*
X112361000Y-127646076D01*
X112361000Y-127877924D01*
X112406231Y-128105318D01*
X112494956Y-128319519D01*
X112573501Y-128437070D01*
X112573500Y-129626931D01*
X112494956Y-129744481D01*
X112406231Y-129958682D01*
X112361000Y-130186076D01*
X112361000Y-130417924D01*
X112406231Y-130645318D01*
X112494956Y-130859519D01*
X112623764Y-131052294D01*
X112787706Y-131216236D01*
X112980481Y-131345044D01*
X113194682Y-131433769D01*
X113422076Y-131479000D01*
X113653924Y-131479000D01*
X113881318Y-131433769D01*
X114095519Y-131345044D01*
X114288294Y-131216236D01*
X114452236Y-131052294D01*
X114581044Y-130859519D01*
X114669769Y-130645318D01*
X114715000Y-130417924D01*
X114715000Y-130186076D01*
X114669769Y-129958682D01*
X114581044Y-129744481D01*
X114502500Y-129626931D01*
X114502500Y-128437069D01*
X114581044Y-128319519D01*
X114669769Y-128105318D01*
X114715000Y-127877924D01*
X114715000Y-127646076D01*
X114669769Y-127418682D01*
X114581044Y-127204481D01*
X114502500Y-127086931D01*
X114502500Y-125621508D01*
X115329504Y-124794505D01*
X115330000Y-124794098D01*
X115329999Y-131788999D01*
X96480356Y-131788999D01*
X96513346Y-131727280D01*
X96543425Y-131628121D01*
X96553582Y-131525000D01*
X96553582Y-131125000D01*
X96543425Y-131021879D01*
X96513346Y-130922720D01*
X96464500Y-130831336D01*
X96398764Y-130751236D01*
X96318664Y-130685500D01*
X96227280Y-130636654D01*
X96128121Y-130606575D01*
X96025000Y-130596418D01*
X95660642Y-130596418D01*
X95467020Y-130402796D01*
X95475000Y-130403582D01*
X96025000Y-130403582D01*
X96128121Y-130393425D01*
X96227280Y-130363346D01*
X96318664Y-130314500D01*
X96398764Y-130248764D01*
X96450210Y-130186076D01*
X99661000Y-130186076D01*
X99661000Y-130417924D01*
X99706231Y-130645318D01*
X99794956Y-130859519D01*
X99923764Y-131052294D01*
X100087706Y-131216236D01*
X100280481Y-131345044D01*
X100494682Y-131433769D01*
X100722076Y-131479000D01*
X100953924Y-131479000D01*
X101181318Y-131433769D01*
X101395519Y-131345044D01*
X101588294Y-131216236D01*
X101752236Y-131052294D01*
X101881044Y-130859519D01*
X101969769Y-130645318D01*
X102015000Y-130417924D01*
X102015000Y-130186076D01*
X102201000Y-130186076D01*
X102201000Y-130417924D01*
X102246231Y-130645318D01*
X102334956Y-130859519D01*
X102463764Y-131052294D01*
X102627706Y-131216236D01*
X102820481Y-131345044D01*
X103034682Y-131433769D01*
X103262076Y-131479000D01*
X103493924Y-131479000D01*
X103721318Y-131433769D01*
X103935519Y-131345044D01*
X104128294Y-131216236D01*
X104292236Y-131052294D01*
X104421044Y-130859519D01*
X104509769Y-130645318D01*
X104555000Y-130417924D01*
X104555000Y-130186076D01*
X104509769Y-129958682D01*
X104421044Y-129744481D01*
X104292236Y-129551706D01*
X104128294Y-129387764D01*
X103935519Y-129258956D01*
X103721318Y-129170231D01*
X103493924Y-129125000D01*
X103262076Y-129125000D01*
X103034682Y-129170231D01*
X102820481Y-129258956D01*
X102627706Y-129387764D01*
X102463764Y-129551706D01*
X102334956Y-129744481D01*
X102246231Y-129958682D01*
X102201000Y-130186076D01*
X102015000Y-130186076D01*
X101969769Y-129958682D01*
X101881044Y-129744481D01*
X101752236Y-129551706D01*
X101588294Y-129387764D01*
X101395519Y-129258956D01*
X101181318Y-129170231D01*
X100953924Y-129125000D01*
X100722076Y-129125000D01*
X100494682Y-129170231D01*
X100280481Y-129258956D01*
X100087706Y-129387764D01*
X99923764Y-129551706D01*
X99794956Y-129744481D01*
X99706231Y-129958682D01*
X99661000Y-130186076D01*
X96450210Y-130186076D01*
X96464500Y-130168664D01*
X96513346Y-130077280D01*
X96543425Y-129978121D01*
X96553582Y-129875000D01*
X96553582Y-129475000D01*
X96543425Y-129371879D01*
X96513346Y-129272720D01*
X96464500Y-129181336D01*
X96398764Y-129101236D01*
X96318664Y-129035500D01*
X96256610Y-129002331D01*
X96318331Y-128969340D01*
X96401272Y-128901272D01*
X96469340Y-128818331D01*
X96519919Y-128723705D01*
X96551065Y-128621029D01*
X96561582Y-128514250D01*
X96561582Y-128076750D01*
X96551065Y-127969971D01*
X96519919Y-127867295D01*
X96469340Y-127772669D01*
X96401272Y-127689728D01*
X96318331Y-127621660D01*
X96223705Y-127571081D01*
X96121029Y-127539935D01*
X96014250Y-127529418D01*
X95501750Y-127529418D01*
X95394971Y-127539935D01*
X95292295Y-127571081D01*
X95197669Y-127621660D01*
X95114728Y-127689728D01*
X95046660Y-127772669D01*
X94996081Y-127867295D01*
X94964935Y-127969971D01*
X94954418Y-128076750D01*
X94954418Y-128514250D01*
X94964935Y-128621029D01*
X94996081Y-128723705D01*
X95046660Y-128818331D01*
X95114728Y-128901272D01*
X95197669Y-128969340D01*
X95251390Y-128998055D01*
X95181336Y-129035500D01*
X95101236Y-129101236D01*
X95035500Y-129181336D01*
X94986654Y-129272720D01*
X94956575Y-129371879D01*
X94946418Y-129475000D01*
X94946418Y-129875000D01*
X94949720Y-129908529D01*
X94900810Y-129882386D01*
X94815607Y-129856540D01*
X94749205Y-129850000D01*
X94727000Y-129847813D01*
X94704795Y-129850000D01*
X91764751Y-129850000D01*
X91721044Y-129744481D01*
X91642500Y-129626931D01*
X91642500Y-128437069D01*
X91721044Y-128319519D01*
X91809769Y-128105318D01*
X91855000Y-127877924D01*
X91855000Y-127646076D01*
X91809769Y-127418682D01*
X91721044Y-127204481D01*
X91592236Y-127011706D01*
X91492530Y-126912000D01*
X99659418Y-126912000D01*
X99659418Y-128612000D01*
X99665732Y-128676103D01*
X99684430Y-128737743D01*
X99714794Y-128794550D01*
X99755657Y-128844343D01*
X99805450Y-128885206D01*
X99862257Y-128915570D01*
X99923897Y-128934268D01*
X99988000Y-128940582D01*
X101688000Y-128940582D01*
X101752103Y-128934268D01*
X101813743Y-128915570D01*
X101870550Y-128885206D01*
X101920343Y-128844343D01*
X101961206Y-128794550D01*
X101991570Y-128737743D01*
X102010268Y-128676103D01*
X102016582Y-128612000D01*
X102016582Y-126912000D01*
X102010268Y-126847897D01*
X101991570Y-126786257D01*
X101961206Y-126729450D01*
X101920343Y-126679657D01*
X101870550Y-126638794D01*
X101813743Y-126608430D01*
X101752103Y-126589732D01*
X101688000Y-126583418D01*
X99988000Y-126583418D01*
X99923897Y-126589732D01*
X99862257Y-126608430D01*
X99805450Y-126638794D01*
X99755657Y-126679657D01*
X99714794Y-126729450D01*
X99684430Y-126786257D01*
X99665732Y-126847897D01*
X99659418Y-126912000D01*
X91492530Y-126912000D01*
X91428294Y-126847764D01*
X91235519Y-126718956D01*
X91021318Y-126630231D01*
X90793924Y-126585000D01*
X90562076Y-126585000D01*
X90334682Y-126630231D01*
X90120481Y-126718956D01*
X89927706Y-126847764D01*
X89763764Y-127011706D01*
X89634956Y-127204481D01*
X89546231Y-127418682D01*
X89501000Y-127646076D01*
X89501000Y-127877924D01*
X89546231Y-128105318D01*
X89634956Y-128319519D01*
X89713501Y-128437070D01*
X89713500Y-129626931D01*
X89634956Y-129744481D01*
X89546231Y-129958682D01*
X89501000Y-130186076D01*
X89501000Y-130417924D01*
X89546231Y-130645318D01*
X89634956Y-130859519D01*
X89763764Y-131052294D01*
X89927706Y-131216236D01*
X90120481Y-131345044D01*
X90334682Y-131433769D01*
X90562076Y-131479000D01*
X90793924Y-131479000D01*
X91021318Y-131433769D01*
X91235519Y-131345044D01*
X91428294Y-131216236D01*
X91592236Y-131052294D01*
X91721044Y-130859519D01*
X91764751Y-130754000D01*
X94539777Y-130754000D01*
X94946418Y-131160642D01*
X94946418Y-131525000D01*
X94956575Y-131628121D01*
X94986654Y-131727280D01*
X95019644Y-131788999D01*
X76064000Y-131788999D01*
X76064000Y-105173944D01*
X76115872Y-104644921D01*
X76264297Y-104153313D01*
X76505384Y-103699892D01*
X76829951Y-103301935D01*
X77225629Y-102974602D01*
X77677353Y-102730356D01*
X78167914Y-102578502D01*
X78695929Y-102523005D01*
X78697705Y-102522999D01*
X85715023Y-102522999D01*
X85715658Y-102522936D01*
X85719224Y-102522924D01*
X85735182Y-102521303D01*
X85751207Y-102521415D01*
X85756307Y-102520916D01*
X86338596Y-102459715D01*
X86371210Y-102453021D01*
X86403854Y-102446793D01*
X86408752Y-102445314D01*
X86408759Y-102445313D01*
X86408765Y-102445310D01*
X86968072Y-102272176D01*
X86998788Y-102259265D01*
X87029577Y-102246825D01*
X87034092Y-102244425D01*
X87034101Y-102244421D01*
X87034108Y-102244416D01*
X87549134Y-101965943D01*
X87576737Y-101947324D01*
X87604542Y-101929129D01*
X87608513Y-101925891D01*
X88059648Y-101552680D01*
X88083114Y-101529050D01*
X88106851Y-101505805D01*
X88110118Y-101501857D01*
X88480169Y-101048129D01*
X88498611Y-101020372D01*
X88517368Y-100992977D01*
X88519806Y-100988470D01*
X88794680Y-100471507D01*
X88807377Y-100440702D01*
X88820459Y-100410180D01*
X88821970Y-100405299D01*
X88821975Y-100405286D01*
X88821977Y-100405273D01*
X88991201Y-99844778D01*
X88997663Y-99812145D01*
X89004578Y-99779612D01*
X89005112Y-99774527D01*
X89005114Y-99774516D01*
X89005114Y-99774506D01*
X89062248Y-99191814D01*
X89062248Y-99191810D01*
X89064000Y-99174022D01*
X89064000Y-90173956D01*
X89115871Y-89644925D01*
X89264298Y-89153315D01*
X89505383Y-88699897D01*
X89829951Y-88301937D01*
X90225629Y-87974604D01*
X90677356Y-87730356D01*
X91167914Y-87578503D01*
X91695929Y-87523006D01*
X91697705Y-87523000D01*
X99679065Y-87523000D01*
X100208078Y-87574871D01*
G37*
%TD.AperFunction*%
%TD*%
M02*
